<?xml version="1.0" encoding="utf-8"?>
<!-- Generator: Adobe Illustrator 22.1.0, SVG Export Plug-In . SVG Version: 6.00 Build 0)  -->
<svg version="1.1" id="图层_1" xmlns="http://www.w3.org/2000/svg" xmlns:xlink="http://www.w3.org/1999/xlink" x="0px" y="0px"
	 viewBox="0 0 200 200" style="enable-background:new 0 0 200 200;" xml:space="preserve">
<g>
	<g>
		<path d="M39,118.1c-1.6,0-3.2-0.8-4.1-2.4c-4.9-8.4-7.6-16.7-8.2-25.5l0-51.2C26.7,13.5,40.6,0,67,0h67.9c26,0,39.7,13.5,39.7,39
			V81c0.6,12.1-2.4,23.9-8.9,34.8c-1.4,2.3-4.3,3-6.5,1.6c-2.3-1.4-3-4.3-1.6-6.5c5.6-9.3,8.1-19.3,7.6-29.7l0-42.2
			c0-20.4-9.3-29.5-30.2-29.5H67c-21,0-30.8,9.4-30.8,29.5v50.8c0.5,7,2.8,14,7,21.1c1.3,2.3,0.6,5.2-1.7,6.5
			C40.7,117.9,39.9,118.1,39,118.1z"/>
	</g>
	<g>
		<path d="M100,45.1c-2.6,0-4.8-2.1-4.8-4.8V21.9c0-2.6,2.1-4.8,4.8-4.8s4.8,2.1,4.8,4.8v18.4C104.8,42.9,102.6,45.1,100,45.1z"/>
	</g>
	<g>
		<path d="M117.8,45.1H100c-2.6,0-4.8-2.1-4.8-4.8c0-2.6,2.1-4.8,4.8-4.8h17.8c2.6,0,4.8,2.1,4.8,4.8
			C122.5,42.9,120.4,45.1,117.8,45.1z"/>
	</g>
	<g>
		<path d="M100,45.1H81.6c-2.6,0-4.8-2.1-4.8-4.8c0-2.6,2.1-4.8,4.8-4.8H100c2.6,0,4.8,2.1,4.8,4.8C104.8,42.9,102.6,45.1,100,45.1z
			"/>
	</g>
	<g>
		<path d="M100,62.9c-2.6,0-4.8-2.1-4.8-4.8V40.3c0-2.6,2.1-4.8,4.8-4.8s4.8,2.1,4.8,4.8v17.8C104.8,60.7,102.6,62.9,100,62.9z"/>
	</g>
	<g>
		<path d="M173,200H27c-1.5,0-2.8-0.7-3.7-1.8s-1.2-2.6-0.9-4c2.9-12.4,7.9-22.9,15-31.2c1.8-2.4,3.9-5.2,6.6-7.9
			c6-6,13.7-11.5,23.3-16.7c2.3-1.3,5.2-0.4,6.5,1.9c1.2,2.3,0.4,5.2-1.9,6.4c-8.8,4.8-15.7,9.7-21.1,15c-2.3,2.3-4,4.6-5.9,7.1
			c-5.1,6-8.9,13.3-11.6,21.6h133.8c-2.1-7.7-5.8-14.6-11-20.7c-0.2-0.2-0.3-0.4-0.5-0.6c-1.6-2.7-3.9-4.9-6.3-7.3
			c-6.1-6.1-12.8-10.9-21-15c-2.4-1.2-3.3-4-2.1-6.4c1.2-2.4,4-3.3,6.4-2.1c9.1,4.6,16.6,9.9,23.5,16.8c2.6,2.6,5.3,5.3,7.5,8.8
			c7.4,8.8,12.1,19.1,14.1,30.5c0.2,1.4-0.1,2.8-1,3.9C175.8,199.4,174.4,200,173,200z"/>
	</g>
	<g>
		<path d="M100.6,154.3c-13.1,0-23.7-2.4-33.4-7.5c-2.3-1.2-3.2-4.1-2-6.4c1.2-2.3,4.1-3.2,6.4-2c8.2,4.4,17.4,6.4,28.9,6.4
			c11,0,20-2.1,27.5-6.4c2.3-1.3,5.2-0.5,6.5,1.8c1.3,2.3,0.5,5.2-1.8,6.5C123.9,151.8,113.3,154.3,100.6,154.3z"/>
	</g>
	<g>
		<path d="M130.5,147.3c-1.9,0-3.7-1.1-4.4-3c-1-2.4,0.2-5.2,2.7-6.2c6.1-2.4,11.7-7,16.4-11.2c2-1.8,5-1.6,6.7,0.4
			c1.7,2,1.6,5-0.4,6.7c-5.3,4.7-11.8,10-19.2,12.9C131.7,147.2,131.1,147.3,130.5,147.3z"/>
	</g>
	<g>
		<path d="M69.5,147.3c-0.8,0-1.6-0.2-2.3-0.6c-7.2-4-12.8-8.1-17.6-12.9c-1.9-1.9-1.9-4.9,0-6.7c1.9-1.9,4.9-1.9,6.7,0
			c4.1,4.1,9,7.7,15.4,11.3c2.3,1.3,3.1,4.2,1.9,6.5C72.8,146.4,71.2,147.3,69.5,147.3z"/>
	</g>
</g>
<g>
	<g>
		<path d="M100,109.2c-7.9,0-15.1-4.3-19-11.3c-1.3-2.3-0.4-5.2,1.9-6.5c2.3-1.3,5.2-0.4,6.5,1.9c2.1,3.9,6.2,6.4,10.6,6.4
			c4.4,0,8.4-2.4,10.6-6.4c1.3-2.3,4.2-3.1,6.5-1.9c2.3,1.3,3.2,4.2,1.9,6.5C115.1,104.8,107.9,109.2,100,109.2z"/>
	</g>
</g>
</svg>
