<?xml version="1.0" encoding="utf-8"?>
<!-- Generator: Adobe Illustrator 22.1.0, SVG Export Plug-In . SVG Version: 6.00 Build 0)  -->
<svg version="1.1" id="图层_1" xmlns="http://www.w3.org/2000/svg" xmlns:xlink="http://www.w3.org/1999/xlink" x="0px" y="0px"
	 viewBox="0 0 200 200" style="enable-background:new 0 0 200 200;" xml:space="preserve">
<g>
	<g>
		<g>
			<path d="M100.6,120.6c-17,0-32-2.4-46.6-7.2c-2.5-0.8-3.8-3.5-3-6c0.8-2.5,3.5-3.8,6-3c13.6,4.5,27.7,6.7,42.9,6.7
				c2.6,0,5.1,2.1,5.1,4.8S103.3,120.6,100.6,120.6z"/>
		</g>
		<g>
			<path d="M100.6,142.2c-2.6,0-4.8-2.1-4.8-4.8v-21.6c0-2.6,2.1-4.8,4.8-4.8c2.6,0,4.8,2.1,4.8,4.8v21.6
				C105.4,140.1,103.3,142.2,100.6,142.2z"/>
		</g>
		<g>
			<path d="M53.6,113.2c-7.1-3.2-14.4-6.5-21.1-11.2c-3.9-2.2-8.1-5.5-12.1-9.4c-1.9-1.9-1.9-4.9,0-6.7c1.9-1.9,4.9-1.9,6.7,0
				c3.4,3.4,6.9,6.1,10.4,8.1c6.3,4.4,12.9,7.4,19.9,10.6L53.6,113.2z"/>
		</g>
		<g>
			<path d="M46,132.1c-0.7,0-1.5-0.2-2.2-0.5c-2.3-1.2-3.2-4.1-2-6.4l9.5-18.4c1.2-2.3,4.1-3.3,6.4-2c2.3,1.2,3.2,4.1,2,6.4
				l-9.5,18.4C49.4,131.1,47.8,132.1,46,132.1z"/>
		</g>
		<g>
			<path d="M153.3,132.1c-1.7,0-3.3-0.9-4.2-2.5L139,111.2c-1.3-2.3-0.4-5.2,1.9-6.5c2.3-1.3,5.2-0.4,6.5,1.9l10.2,18.4
				c1.3,2.3,0.4,5.2-1.9,6.5C154.9,131.9,154.1,132.1,153.3,132.1z"/>
		</g>
		<g>
			<path d="M143.2,113.6c-1.9,0-3.8-1.2-4.5-3.1c-0.9-2.5,0.4-5.2,2.9-6.1c6.9-2.5,14.2-6.2,19.8-10.2c5-3.1,8.6-6.1,12.4-9.3
				c2-1.7,5-1.4,6.7,0.6c1.7,2,1.4,5-0.6,6.7c-3.9,3.2-7.9,6.6-13.2,9.9c-6.2,4.4-14.1,8.4-21.8,11.2
				C144.3,113.6,143.7,113.6,143.2,113.6z"/>
		</g>
		<g>
			<path d="M195.2,104.1c-0.8,0-1.6-0.2-2.4-0.7l-18.4-10.8c-2.3-1.3-3-4.2-1.7-6.5c1.3-2.3,4.3-3,6.5-1.7l18.4,10.8
				c2.3,1.3,3,4.2,1.7,6.5C198.5,103.3,196.9,104.1,195.2,104.1z"/>
		</g>
		<g>
			<path d="M100.6,120.6c-2.6,0-4.8-2.1-4.8-4.8s2.1-4.8,4.8-4.8c14.7,0,28.1-2.2,41-6.7c2.5-0.8,5.2,0.4,6.1,2.9
				c0.9,2.5-0.4,5.2-2.9,6.1C130.8,118.3,116.4,120.6,100.6,120.6z"/>
		</g>
		<g>
			<path d="M176.8,93.3c-1.2,0-2.4-0.5-3.4-1.4c-1.9-1.9-1.9-4.9,0-6.7c6.6-6.6,10.9-14.5,12.7-23.6c0.5-2.6,3-4.2,5.6-3.7
				c2.6,0.5,4.3,3,3.7,5.6c-2.2,10.9-7.3,20.5-15.3,28.5C179.3,92.9,178,93.3,176.8,93.3z"/>
		</g>
		<g>
			<path d="M23.8,94c-1.2,0-2.3-0.4-3.2-1.3C11.3,84.1,5.9,74.2,4.5,63.1c-0.3-2.6,1.5-5,4.1-5.3c2.6-0.3,5,1.5,5.3,4.1
				C15,70.7,19.4,78.7,27,85.7c1.9,1.8,2.1,4.8,0.3,6.7C26.4,93.5,25.1,94,23.8,94z"/>
		</g>
		<g>
			<path d="M4.8,104.1c-1.7,0-3.3-0.9-4.2-2.5c-1.2-2.3-0.4-5.2,2-6.4l19-10.2c2.3-1.2,5.2-0.4,6.4,2c1.2,2.3,0.4,5.2-2,6.4L7,103.6
				C6.3,103.9,5.5,104.1,4.8,104.1z"/>
		</g>
	</g>
	<g>
		<g>
			<g>
				<path d="M122.9,75.9c-2.6,0-4.8-2.1-4.8-4.8V66c0-2.6,2.1-4.8,4.8-4.8s4.8,2.1,4.8,4.8v5.1C127.6,73.7,125.5,75.9,122.9,75.9z"
					/>
			</g>
			<g>
				<path d="M77.1,75.9c-2.6,0-4.8-2.1-4.8-4.8V66c0-2.6,2.1-4.8,4.8-4.8c2.6,0,4.8,2.1,4.8,4.8v5.1C81.9,73.7,79.8,75.9,77.1,75.9z
					"/>
			</g>
		</g>
		<g>
			<path d="M100,96.2c-7.9,0-15.1-4.3-19-11.3c-1.3-2.3-0.4-5.2,1.9-6.5c2.3-1.3,5.2-0.4,6.5,1.9c2.1,3.9,6.2,6.4,10.6,6.4
				c4.4,0,8.4-2.4,10.6-6.4c1.3-2.3,4.2-3.1,6.5-1.9c2.3,1.3,3.2,4.2,1.9,6.5C115.1,91.9,107.9,96.2,100,96.2z"/>
		</g>
	</g>
</g>
</svg>
