<?xml version="1.0" encoding="utf-8"?>
<!-- Generator: Adobe Illustrator 22.1.0, SVG Export Plug-In . SVG Version: 6.00 Build 0)  -->
<svg version="1.1" id="图层_1" xmlns="http://www.w3.org/2000/svg" xmlns:xlink="http://www.w3.org/1999/xlink" x="0px" y="0px"
	 viewBox="0 0 200 200" style="enable-background:new 0 0 200 200;" xml:space="preserve">
<style type="text/css">
	.st0{fill:none;stroke:#000000;stroke-width:1.5;stroke-linecap:round;stroke-linejoin:round;stroke-miterlimit:10;}
</style>
<g>
	<g>
		<g>
			<path class="st0" d="M182.5,173.9"/>
		</g>
		<g>
			<path class="st0" d="M182.5,184.7"/>
		</g>
		<g>
			<path d="M108.4,200.3H18.3c-1.4,0-2.8-0.7-3.7-1.8c-0.9-1.1-1.3-2.6-0.9-4c3.3-15,10.3-27.8,22.1-40.3
				c5.2-5.2,13.2-12.5,23.3-16.4c2.4-0.9,5.2,0.3,6.2,2.7c0.9,2.5-0.3,5.2-2.7,6.2c-6.5,2.5-12.6,6.9-19.9,14.2
				c-9,9.5-14.8,19.1-18.2,30h84c2.6,0,4.8,2.1,4.8,4.8S111,200.3,108.4,200.3z"/>
		</g>
		<g>
			<path d="M182.5,178.7h-48.1c-2.6,0-4.8-2.1-4.8-4.8s2.1-4.8,4.8-4.8h48.1c2.6,0,4.8,2.1,4.8,4.8S185.1,178.7,182.5,178.7z"/>
		</g>
		<g>
			<path d="M182.5,200.3h-33.2c-2.6,0-4.8-2.1-4.8-4.8s2.1-4.8,4.8-4.8h33.2c2.6,0,4.8,2.1,4.8,4.8S185.1,200.3,182.5,200.3z"/>
		</g>
		<g>
			<path d="M182.5,157h-35.9c-2.6,0-4.8-2.1-4.8-4.8s2.1-4.8,4.8-4.8h35.9c2.6,0,4.8,2.1,4.8,4.8S185.1,157,182.5,157z"/>
		</g>
	</g>
	<g>
		<g>
			<g>
				<path d="M88.9,125.2c-7.9,0-15.1-4.3-19-11.3c-1.3-2.3-0.4-5.2,1.9-6.5c2.3-1.3,5.2-0.4,6.5,1.9c2.1,3.9,6.2,6.4,10.6,6.4
					c4.4,0,8.4-2.4,10.6-6.4c1.3-2.3,4.2-3.2,6.5-1.9c2.3,1.3,3.1,4.2,1.9,6.5C104.1,120.8,96.8,125.2,88.9,125.2z"/>
			</g>
		</g>
		<g>
			<g>
				<path d="M89.3,152.7c-20.2,0-37.9-6.8-52.7-20.3c-1.9-1.8-2.1-4.8-0.3-6.7c1.8-1.9,4.8-2.1,6.7-0.3c13.2,12,28.3,17.8,46.3,17.8
					c17.9,0,33.2-6,45.6-17.7c1.9-1.8,4.9-1.7,6.7,0.2c1.8,1.9,1.7,4.9-0.2,6.7C127.2,145.8,109.7,152.7,89.3,152.7z"/>
			</g>
			<g>
				<path d="M25.8,115.2c-1.7,0-3.4-1-4.3-2.6c-5.8-11.6-8.8-23.6-8.8-35.8c0-21.1,7.3-39,22.3-54.7C50.2,6.9,68.5-0.3,89.4,0.3
					c20.3-0.7,38,6.4,53.9,21.6c14.9,15.6,21.8,33,21.8,54.9c0,13-2.7,25-8.1,35.8c-1.2,2.4-4,3.3-6.4,2.1c-2.4-1.2-3.3-4-2.1-6.4
					c4.7-9.4,7.1-20,7.1-31.5c0-19.3-6-34.6-19-48.1C122.8,15.5,107.3,9.3,89.4,9.8C70.9,9.3,55,15.6,41.9,28.8
					C28.5,42.7,22.3,58,22.3,76.8c0,10.6,2.6,21.2,7.8,31.5c1.2,2.3,0.2,5.2-2.1,6.4C27.2,115,26.5,115.2,25.8,115.2z"/>
			</g>
		</g>
	</g>
</g>
</svg>
