<?xml version="1.0" encoding="utf-8"?>
<!-- Generator: Adobe Illustrator 22.1.0, SVG Export Plug-In . SVG Version: 6.00 Build 0)  -->
<svg version="1.1" id="图层_1" xmlns="http://www.w3.org/2000/svg" xmlns:xlink="http://www.w3.org/1999/xlink" x="0px" y="0px"
	 viewBox="0 0 200 200" style="enable-background:new 0 0 200 200;" xml:space="preserve">
<style type="text/css">
	.st0{fill:none;}
	.st1{opacity:0.5;}
</style>
<g>
	<path class="st0" d="M90.5,107.3c-1.5,0-3,0.5-4.5,2c-3.5,3-7,4.5-11,5c-5-0.5-8.5-2-12-5c-1-1.5-3-2-4.5-2c-1.5,0-3.5,1-4.5,2
		c-1,1.5-1.5,3-1.5,5c0,1.5,1,2.5,2,4c5.5,5,12.5,8,20,8H75c7.5,0,14-3,19.5-8c1.5-1.5,2-2.5,2-4c0-2-0.5-3.5-1.5-5
		C93.5,108.3,92.5,107.3,90.5,107.3z"/>
	<path class="st0" d="M176.5,151.3h-18v-18c0-1,0-2-1-2.5c-0.5-0.5-1-1-2.5-1c-0.5,0-1.5,0.5-2,1c-0.5,0.5-1,1.5-1,2.5v18h-18
		c-1,0-1.5,0-2,1c-1,0.5-1,1.5-1,2.5c0,0.5,0,1.5,1,2.5c0.5,0,1,0.5,2,0.5h18v18c0,1,0.5,1.5,1,2.5c0.5,0.5,1.5,0.5,2,1
		c1.5-0.5,2-0.5,2.5-1c1-1,1-1.5,1-2.5v-18h18c1,0,1.5-0.5,2.5-0.5c0.5-1,0.5-2,1-2.5c-0.5-1-0.5-2-1-2.5
		C178,151.3,177.5,151.3,176.5,151.3z"/>
	<path class="st1" d="M187.5,122.8c-9-9-20-13.5-32.5-13.5c-12.5,0-23,4.5-31.5,13.5c-9,8.5-13.5,19.5-13.5,32
		c0,12.5,4.5,23,13.5,32c8.5,8.5,19,13,31.5,13c12.5,0,23.5-4.5,32.5-13c8.5-9,12.5-19.5,12.5-32C200,142.3,196,131.3,187.5,122.8z
		 M179,157.3c-1,0-1.5,0.5-2.5,0.5h-18v18c0,1,0,1.5-1,2.5c-0.5,0.5-1,0.5-2.5,1c-0.5-0.5-1.5-0.5-2-1c-0.5-1-1-1.5-1-2.5v-18h-18
		c-1,0-1.5-0.5-2-0.5c-1-1-1-2-1-2.5c0-1,0-2,1-2.5c0.5-1,1-1,2-1h18v-18c0-1,0.5-2,1-2.5c0.5-0.5,1.5-1,2-1c1.5,0,2,0.5,2.5,1
		c1,0.5,1,1.5,1,2.5v18h18c1,0,1.5,0,2.5,1c0.5,0.5,0.5,1.5,1,2.5C179.5,155.3,179.5,156.3,179,157.3z"/>
	<path d="M103.5,154.8c0-14.5,5-27,15-37c6.5-6.5,14-11,23-13.5c4.5-9,6.5-19.5,6.5-30c0-20.5-7-38-21.5-52.5
		c-15-14.5-32-22-52.5-21.5c-20-0.5-37.5,7-52,21.5C7.5,36.3,0,53.8,0,74.3c0,20,7.5,37.5,22,52c5,5,10,9,15.5,12.5
		c-5.5,3.5-11,7.5-16.5,13.5c-11.5,11.5-18.5,25-21,40.5c0,1.5,0,2.5,1,3.5c0,1,1,2,2,3c1,0.5,2,0.5,3.5,0.5H130
		c-4-2-7.5-5-11.5-8.5C108.5,180.8,103.5,168.8,103.5,154.8z M94.5,118.3c-5.5,5-12,8-19.5,8h-0.5c-7.5,0-14.5-3-20-8
		c-1-1.5-2-2.5-2-4c0-2,0.5-3.5,1.5-5c1-1,3-2,4.5-2c1.5,0,3.5,0.5,4.5,2c3.5,3,7,4.5,12,5c4-0.5,7.5-2,11-5c1.5-1.5,3-2,4.5-2
		c2,0,3,1,4.5,2c1,1.5,1.5,3,1.5,5C96.5,115.8,96,116.8,94.5,118.3z"/>
</g>
</svg>
