<?xml version="1.0" encoding="utf-8"?>
<!-- Generator: Adobe Illustrator 22.1.0, SVG Export Plug-In . SVG Version: 6.00 Build 0)  -->
<svg version="1.1" id="图层_1" xmlns="http://www.w3.org/2000/svg" xmlns:xlink="http://www.w3.org/1999/xlink" x="0px" y="0px"
	 viewBox="0 0 200 200" style="enable-background:new 0 0 200 200;" xml:space="preserve">
<g>
	<g>
		<g>
			<path d="M100,200c-20.3,0-37.8-7.3-52.3-21.7C33.3,163.9,26,146.3,26,126v-7.6c0-2.6,2.1-4.8,4.8-4.8s4.8,2.1,4.8,4.8v7.6
				c0,17.7,6.4,33,18.9,45.5c12.6,12.6,27.9,18.9,45.5,18.9c17.6,0,33-6.4,45.5-18.9c12.6-12.5,18.9-27.9,18.9-45.5V67.3H58.1
				c-2.6,0-4.8-2.1-4.8-4.8c0-2.6,2.1-4.8,4.8-4.8h111.1c2.6,0,4.8,2.1,4.8,4.8V126c0,20.3-7.3,37.9-21.7,52.3
				C137.8,192.7,120.3,200,100,200z"/>
		</g>
		<g>
			<path d="M30.8,96.5c-2.6,0-4.8-2.1-4.8-4.8V62.5c0-2.6,2.1-4.8,4.8-4.8h27.3c2.6,0,4.8,2.1,4.8,4.8c0,2.6-2.1,4.8-4.8,4.8H35.6
				v24.4C35.6,94.4,33.4,96.5,30.8,96.5z"/>
		</g>
		<g>
			<path d="M58.1,67.3c-2.6,0-4.8-2.1-4.8-4.8V25.7C53.3,9.1,62.2,0,78.4,0h43.8c16.4,0,25.1,8.9,25.1,25.7V41
				c0,2.6-2.1,4.8-4.8,4.8c-2.6,0-4.8-2.1-4.8-4.8V25.7c0-11.5-4.5-16.2-15.6-16.2H78.4c-10.8,0-15.6,5-15.6,16.2v36.8
				C62.9,65.2,60.7,67.3,58.1,67.3z"/>
		</g>
	</g>
	<g>
		<g>
			<g>
				<path d="M122.9,97.4c-2.6,0-4.8-2.1-4.8-4.8v-5.1c0-2.6,2.1-4.8,4.8-4.8c2.6,0,4.8,2.1,4.8,4.8v5.1
					C127.6,95.3,125.5,97.4,122.9,97.4z"/>
			</g>
			<g>
				<path d="M77.1,97.4c-2.6,0-4.8-2.1-4.8-4.8v-5.1c0-2.6,2.1-4.8,4.8-4.8s4.8,2.1,4.8,4.8v5.1C81.9,95.3,79.8,97.4,77.1,97.4z"/>
			</g>
		</g>
		<g>
			<path d="M100,124.2c-7.9,0-15.1-4.3-19-11.3c-1.3-2.3-0.4-5.2,1.9-6.5c2.3-1.3,5.2-0.4,6.5,1.9c2.1,3.9,6.2,6.4,10.6,6.4
				c4.4,0,8.4-2.4,10.6-6.4c1.3-2.3,4.2-3.2,6.5-1.9c2.3,1.3,3.2,4.2,1.9,6.5C115.1,119.8,107.9,124.2,100,124.2z"/>
		</g>
	</g>
</g>
</svg>
