<?xml version="1.0" encoding="utf-8"?>
<!-- Generator: Adobe Illustrator 22.1.0, SVG Export Plug-In . SVG Version: 6.00 Build 0)  -->
<svg version="1.1" id="图层_1" xmlns="http://www.w3.org/2000/svg" xmlns:xlink="http://www.w3.org/1999/xlink" x="0px" y="0px"
	 viewBox="0 0 200 200" style="enable-background:new 0 0 200 200;" xml:space="preserve">
<g>
	<g>
		<g>
			<path d="M195.2,71.7c-2.6,0-4.8-2.1-4.8-4.8V50.5c0-19.3-8-28.3-25.1-28.3H35.2c-17.8,0-25.7,8.7-25.7,28.3V67
				c0,2.6-2.1,4.8-4.8,4.8S0,69.6,0,67V50.5c0-31.2,19.2-37.8,35.2-37.8h130.2c15.8,0,34.6,6.6,34.6,37.8V67
				C200,69.6,197.9,71.7,195.2,71.7z"/>
		</g>
		<g>
			<path d="M195.2,135.9c-2.6,0-4.8-2.1-4.8-4.8V89.8c0-2.6,2.1-4.8,4.8-4.8s4.8,2.1,4.8,4.8v41.3
				C200,133.7,197.9,135.9,195.2,135.9z"/>
		</g>
		<g>
			<path d="M165.4,187.3H35.2c-22.3,0-34.5-12.1-35.2-35.1c-0.1-2.6,2-4.8,4.6-4.9c2.6,0,4.8,2,4.9,4.6c0.5,17.6,8.7,25.9,25.7,25.9
				h130.2c17.1,0,25.1-9,25.1-28.3v-18.4c0-2.6,2.1-4.8,4.8-4.8s4.8,2.1,4.8,4.8v18.4C200,180.7,181.2,187.3,165.4,187.3z"/>
		</g>
		<g>
			<path d="M89.2,144.8c-1.5,0-3-0.7-3.9-2.1c-1.5-2.2-0.9-5.1,1.3-6.6l59.7-40.6c1.6-1.1,3.8-1.1,5.4,0l46.3,31.7
				c2.2,1.5,2.7,4.5,1.2,6.6c-1.5,2.2-4.5,2.7-6.6,1.2l-43.7-29.9l-57,38.8C91.1,144.5,90.1,144.8,89.2,144.8z"/>
		</g>
		<g>
			<path d="M105.7,156.2c-0.9,0-1.9-0.3-2.7-0.8l-16.5-11.4c-2.2-1.5-2.7-4.5-1.2-6.6c1.5-2.2,4.5-2.7,6.6-1.2l16.5,11.4
				c2.2,1.5,2.7,4.5,1.2,6.6C108.7,155.5,107.2,156.2,105.7,156.2z"/>
		</g>
		<g>
			<path d="M4.8,156.8c-1.4,0-2.9-0.6-3.8-1.9c-1.6-2.1-1.2-5.1,0.9-6.7l48.3-36.8c1.6-1.2,3.9-1.3,5.6-0.1l36.2,24.8
				c2.2,1.5,2.7,4.5,1.2,6.6c-1.5,2.2-4.5,2.7-6.6,1.2l-33.4-22.8L7.7,155.8C6.8,156.5,5.8,156.8,4.8,156.8z"/>
		</g>
		<g>
			<path d="M4.8,156.8c-2.6,0-4.8-2.1-4.8-4.8V89.8c0-2.6,2.1-4.8,4.8-4.8s4.8,2.1,4.8,4.8v62.2C9.5,154.7,7.4,156.8,4.8,156.8z"/>
		</g>
	</g>
	<g>
		<g>
			<g>
				<path d="M122.9,55.8c-2.6,0-4.8-2.1-4.8-4.8V46c0-2.6,2.1-4.8,4.8-4.8s4.8,2.1,4.8,4.8v5.1C127.6,53.7,125.5,55.8,122.9,55.8z"
					/>
			</g>
			<g>
				<path d="M77.1,55.8c-2.6,0-4.8-2.1-4.8-4.8V46c0-2.6,2.1-4.8,4.8-4.8s4.8,2.1,4.8,4.8v5.1C81.9,53.7,79.8,55.8,77.1,55.8z"/>
			</g>
		</g>
		<g>
			<path d="M100,82.6c-7.9,0-15.1-4.3-18.9-11.3c-1.3-2.3-0.4-5.2,1.9-6.5c2.3-1.3,5.2-0.4,6.5,1.9c2.1,3.9,6.2,6.4,10.6,6.4
				c4.4,0,8.4-2.4,10.6-6.4c1.3-2.3,4.2-3.1,6.5-1.9c2.3,1.3,3.2,4.2,1.9,6.5C115.1,78.2,107.9,82.6,100,82.6z"/>
		</g>
	</g>
</g>
</svg>
