<?xml version="1.0" encoding="utf-8"?>
<!-- Generator: Adobe Illustrator 22.1.0, SVG Export Plug-In . SVG Version: 6.00 Build 0)  -->
<svg version="1.1" id="图层_1" xmlns="http://www.w3.org/2000/svg" xmlns:xlink="http://www.w3.org/1999/xlink" x="0px" y="0px"
	 viewBox="0 0 200 200" style="enable-background:new 0 0 200 200;" xml:space="preserve">
<g>
	<g>
		<path d="M100,129.5c8.3,0,15.2-2.6,20.9-8.7c5.2-4.8,7.8-10.9,8.7-17.4c0.4-2.6-0.9-3.9-3.9-3.9H73.9c-2.6,0.4-3.9,1.3-3.9,3.9
			c0.9,6.5,3.9,12.6,8.7,17.4C84.8,126.9,91.7,129.5,100,129.5"/>
	</g>
	<g>
		<path d="M55.2,194.7c-21.7-0.5-32.6-11.5-32.6-32.6v-42.2h-3.5c-4.9,0-9.5-2-13.5-6.1c-3.8-3.2-5.6-7.4-5.6-13.1
			c0-5.2,1.9-9.8,5.6-13.5l69.1-69.6l0,0c16.5-16.5,34-16.5,50.5,0l70.4,70.9c3,3.6,4.3,7.5,4.3,12.2c0,5.5-1.8,9.7-5.6,13.1
			c-3.1,3.5-7.2,5.4-12.6,6c-0.2,0-0.3,0-0.5,0h-3.9V162c0,20.8-11.1,32.1-32.1,32.6L55.2,194.7L55.2,194.7z M80.9,23.8L11.8,93.4
			c-2.1,2.1-3.1,4.4-3.1,7.4c0,3.1,0.8,4.9,2.8,6.7c2.6,2.6,5,3.7,7.6,3.7H27c2.4,0,4.3,1.9,4.3,4.3V162c0,16.4,7.2,23.5,24,23.9
			h89.9c16.2-0.4,23.5-7.8,23.5-23.9v-46.5c0-2.4,1.9-4.3,4.3-4.3h8c3.2-0.4,5.4-1.4,7-3.3c0.1-0.2,0.3-0.3,0.5-0.5
			c2.1-1.8,2.8-3.6,2.8-6.7c0-2.7-0.6-4.7-2-6.4l-70.2-70.6C106.1,10.8,93.9,10.8,80.9,23.8z"/>
	</g>
	<g>
		<path d="M78.4,77.3c0,4.6-3.8,8.4-8.4,8.4s-8.4-3.8-8.4-8.4s3.8-8.4,8.4-8.4S78.4,72.7,78.4,77.3z"/>
	</g>
	<g>
		<path d="M138,77.3c0,4.6-3.8,8.4-8.4,8.4c-4.6,0-8.4-3.8-8.4-8.4s3.8-8.4,8.4-8.4C134.3,68.9,138,72.7,138,77.3z"/>
	</g>
</g>
</svg>
