<?xml version="1.0" encoding="utf-8"?>
<!-- Generator: Adobe Illustrator 22.1.0, SVG Export Plug-In . SVG Version: 6.00 Build 0)  -->
<svg version="1.1" id="图层_1" xmlns="http://www.w3.org/2000/svg" xmlns:xlink="http://www.w3.org/1999/xlink" x="0px" y="0px"
	 viewBox="0 0 200 200" style="enable-background:new 0 0 200 200;" xml:space="preserve">
<g>
	<g>
		<g>
			<path d="M144.4,74.2c-1.2,0-2.5-0.4-3.5-1.3c-2.3-1.9-2.6-5.4-0.6-7.7l16-18.9c3.2-4.3,4.5-9.3,3.8-15.6
				c-1.2-6.1-3.8-10.6-8.3-14.6c-4.3-3.2-10.3-5.2-16.1-5.2c-5.5,0.6-10,2.9-14.1,7.6l-15.1,18.7c-1.9,2.3-5.3,2.7-7.7,0.8
				c-2.3-1.9-2.7-5.3-0.8-7.7l15.3-18.9c6-6.9,13.1-10.6,21.9-11.5c0,0,0.1,0,0.1,0c8.6,0,16.9,2.8,23.3,7.6
				c6.7,5.8,10.5,12.6,12.3,21.5c1,9.4-1.1,17.3-6.1,24l-16.2,19.2C147.5,73.5,145.9,74.2,144.4,74.2z"/>
		</g>
		<g>
			<path d="M144.4,74.2c-1.2,0-2.5-0.4-3.5-1.3L98.7,38c-2.3-1.9-2.6-5.4-0.7-7.7c1.9-2.3,5.4-2.6,7.7-0.7l42.2,34.9
				c2.3,1.9,2.6,5.4,0.7,7.7C147.5,73.5,145.9,74.2,144.4,74.2z"/>
		</g>
		<g>
			<path d="M5.5,200c-1.2,0-2.5-0.4-3.5-1.3c-2.3-1.9-2.6-5.4-0.6-7.7l28.4-33.5c1.9-2.3,5.4-2.6,7.7-0.6c2.3,1.9,2.6,5.4,0.6,7.7
				L9.6,198.1C8.5,199.3,7,200,5.5,200z"/>
		</g>
		<g>
			<path d="M5.5,200c-0.2,0-0.5,0-0.7,0c-3-0.4-5.1-3.1-4.7-6.1l6.5-50.2c0.1-1,0.5-2,1.2-2.7L98,30.4c1.9-2.3,5.3-2.7,7.7-0.8
				c2.3,1.9,2.7,5.3,0.8,7.7L17.2,146.6l-6.3,48.6C10.5,198,8.2,200,5.5,200z"/>
		</g>
		<g>
			<path d="M194.5,200H76.7c-3,0-5.5-2.4-5.5-5.5s2.4-5.5,5.5-5.5h117.8c3,0,5.5,2.4,5.5,5.5S197.6,200,194.5,200z"/>
		</g>
		<g>
			<path d="M5.5,200c-2.3,0-4.5-1.5-5.2-3.8c-0.9-2.9,0.7-5.9,3.6-6.8L51,174.5l89.2-109.3c1.9-2.3,5.3-2.7,7.7-0.8
				c2.3,1.9,2.7,5.3,0.8,7.7L58.4,182.7c-0.7,0.8-1.6,1.4-2.6,1.8L7.1,199.7C6.5,199.9,6,200,5.5,200z"/>
		</g>
	</g>
	<g>
		<g>
			<g>
				<path d="M187.3,138.6c-3,0-5.5-2.4-5.5-5.5v-5.8c0-3,2.4-5.5,5.5-5.5s5.5,2.4,5.5,5.5v5.8C192.7,136.1,190.3,138.6,187.3,138.6z
					"/>
			</g>
			<g>
				<path d="M134.9,138.6c-3,0-5.5-2.4-5.5-5.5v-5.8c0-3,2.4-5.5,5.5-5.5s5.5,2.4,5.5,5.5v5.8C140.4,136.1,137.9,138.6,134.9,138.6z
					"/>
			</g>
		</g>
		<g>
			<path d="M161.1,169.1c-9,0-17.3-5-21.7-13c-1.4-2.6-0.5-6,2.2-7.4c2.6-1.4,6-0.5,7.4,2.2c2.5,4.5,7.1,7.3,12.1,7.3
				c5,0,9.7-2.8,12.1-7.3c1.4-2.6,4.8-3.6,7.4-2.2c2.6,1.4,3.6,4.8,2.2,7.4C178.4,164.2,170.1,169.1,161.1,169.1z"/>
		</g>
	</g>
</g>
</svg>
