<?xml version="1.0" encoding="utf-8"?>
<!-- Generator: Adobe Illustrator 22.1.0, SVG Export Plug-In . SVG Version: 6.00 Build 0)  -->
<svg version="1.1" id="图层_1" xmlns="http://www.w3.org/2000/svg" xmlns:xlink="http://www.w3.org/1999/xlink" x="0px" y="0px"
	 viewBox="0 0 200 200" style="enable-background:new 0 0 200 200;" xml:space="preserve">
<g>
	<g>
		<g>
			<path d="M100,105.4c-1.3,0-2.6-0.5-3.6-1.5L67.9,74.7c-2-2-1.9-5.2,0.1-7.2c2-2,5.2-1.9,7.2,0.1l28.5,29.2c2,2,1.9,5.2-0.1,7.2
				C102.6,104.9,101.3,105.4,100,105.4z"/>
		</g>
		<g>
			<path d="M71.5,133.9c-1.3,0-2.6-0.5-3.6-1.5c-2-2-2-5.2,0-7.2l28.5-28.5c2-2,5.2-2,7.2,0s2,5.2,0,7.2l-28.5,28.5
				C74.1,133.4,72.8,133.9,71.5,133.9z"/>
		</g>
		<g>
			<path d="M100,194.2c-28.2,0-52-9.9-70.8-29.4C9.9,145.5,0,121.9,0,94.9c0-27.2,9.8-51.2,29.2-71.3c7.2-7.2,15.2-13,23.8-17.3
				c2.5-1.2,5.6-0.2,6.8,2.3c1.3,2.5,0.2,5.6-2.3,6.8c-7.6,3.8-14.7,9-21.1,15.3C18.8,49.1,10.2,70.1,10.2,94.9
				c0,24.2,8.9,45.4,26.3,62.8c17.1,17.7,37.9,26.3,63.5,26.3c25.7,0,46.4-8.6,63.5-26.2c17.5-16.9,26.4-38,26.4-62.9
				c0-25.5-8.6-46.5-26.3-64.2c-6.1-6.1-13-11.3-20.5-15.4c-2.5-1.3-3.4-4.4-2-6.9c1.3-2.5,4.4-3.4,6.9-2c8.3,4.6,16,10.3,22.9,17.1
				C190.4,43.2,200,66.6,200,94.9c0,27.7-9.9,51.3-29.3,70.1C152,184.4,128.2,194.2,100,194.2z"/>
		</g>
		<g>
			<path d="M129.2,133.9c-1.3,0-2.6-0.5-3.6-1.4L96.4,104c-2-2-2-5.2-0.1-7.2c2-2,5.2-2,7.2-0.1l29.2,28.5c2,2,2,5.2,0.1,7.2
				C131.8,133.4,130.5,133.9,129.2,133.9z"/>
		</g>
		<g>
			<path d="M100,105.4c-1.3,0-2.6-0.5-3.6-1.5c-2-2-2-5.2,0-7.2l29.2-29.2c2-2,5.2-2,7.2,0c2,2,2,5.2,0,7.2l-29.2,29.2
				C102.6,104.9,101.3,105.4,100,105.4z"/>
		</g>
	</g>
	<g>
		<g>
			<g>
				<path d="M124.4,21.4c-2.8,0-5.1-2.3-5.1-5.1v-5.4c0-2.8,2.3-5.1,5.1-5.1c2.8,0,5.1,2.3,5.1,5.1v5.4
					C129.5,19.1,127.2,21.4,124.4,21.4z"/>
			</g>
			<g>
				<path d="M75.6,21.4c-2.8,0-5.1-2.3-5.1-5.1v-5.4c0-2.8,2.3-5.1,5.1-5.1c2.8,0,5.1,2.3,5.1,5.1v5.4
					C80.7,19.1,78.4,21.4,75.6,21.4z"/>
			</g>
		</g>
		<g>
			<path d="M100,49.9c-8.4,0-16.2-4.6-20.2-12.1c-1.3-2.5-0.4-5.6,2-6.9c2.5-1.3,5.6-0.4,6.9,2c2.3,4.2,6.6,6.8,11.3,6.8
				c4.7,0,9-2.6,11.3-6.8c1.3-2.5,4.4-3.4,6.9-2c2.5,1.4,3.4,4.4,2,6.9C116.1,45.2,108.4,49.9,100,49.9z"/>
		</g>
	</g>
</g>
</svg>
