<?xml version="1.0" encoding="utf-8"?>
<!-- Generator: Adobe Illustrator 22.1.0, SVG Export Plug-In . SVG Version: 6.00 Build 0)  -->
<svg version="1.1" id="图层_1" xmlns="http://www.w3.org/2000/svg" xmlns:xlink="http://www.w3.org/1999/xlink" x="0px" y="0px"
	 viewBox="0 0 200 200" style="enable-background:new 0 0 200 200;" xml:space="preserve">
<g>
	<g>
		<g>
			<g>
				<path d="M91.7,181c-1.2,0-2.4-0.5-3.4-1.4l-8.9-8.9c-0.9-0.9-1.4-2.1-1.4-3.4v-65.9L7.9,35.5c-1-0.9-1.5-2.2-1.5-3.5V16.2
					C6.4,6.2,12.8,0,23.2,0h28.6c2.6,0,4.8,2.1,4.8,4.8s-2.1,4.8-4.8,4.8H23.2c-6.4,0-7.3,3.2-7.3,6.7V30l70.2,65.9
					c1,0.9,1.5,2.2,1.5,3.5v66l7.5,7.5c1.9,1.9,1.9,4.9,0,6.7C94.2,180.5,93,181,91.7,181z"/>
			</g>
			<g>
				<path d="M112.1,200c-2.6,0-4.8-2.1-4.8-4.8V99.4c0-1.3,0.5-2.5,1.4-3.4l67.8-65.9V16.2c0-5-1.7-6.7-6.7-6.7H140
					c-2.6,0-4.8-2.1-4.8-4.8S137.4,0,140,0h29.8C180.1,0,186,5.9,186,16.2v15.9c0,1.3-0.5,2.5-1.4,3.4l-67.8,65.9v93.9
					C116.8,197.9,114.7,200,112.1,200z M181.3,32.1L181.3,32.1L181.3,32.1z"/>
			</g>
		</g>
		<g>
			<g>
				<path d="M188.9,139h-51.4c-2.6,0-4.8-2.1-4.8-4.8c0-2.6,2.1-4.8,4.8-4.8h51.4c2.6,0,4.8,2.1,4.8,4.8
					C193.6,136.9,191.5,139,188.9,139z"/>
			</g>
			<g>
				<path d="M188.9,165.7h-51.4c-2.6,0-4.8-2.1-4.8-4.8c0-2.6,2.1-4.8,4.8-4.8h51.4c2.6,0,4.8,2.1,4.8,4.8
					C193.6,163.6,191.5,165.7,188.9,165.7z"/>
			</g>
			<g>
				<path d="M188.9,111.7h-39.4c-2.6,0-4.8-2.1-4.8-4.8c0-2.6,2.1-4.8,4.8-4.8h39.4c2.6,0,4.8,2.1,4.8,4.8
					C193.6,109.6,191.5,111.7,188.9,111.7z"/>
			</g>
		</g>
	</g>
	<g>
		<g>
			<g>
				<path d="M121.2,14.6c-2.6,0-4.8-2.1-4.8-4.8V4.8c0-2.6,2.1-4.8,4.8-4.8s4.8,2.1,4.8,4.8v5.1C125.9,12.5,123.8,14.6,121.2,14.6z"
					/>
			</g>
			<g>
				<path d="M75.5,14.6c-2.6,0-4.8-2.1-4.8-4.8V4.8c0-2.6,2.1-4.8,4.8-4.8s4.8,2.1,4.8,4.8v5.1C80.2,12.5,78.1,14.6,75.5,14.6z"/>
			</g>
		</g>
		<g>
			<path d="M98.3,41.3c-7.9,0-15.1-4.3-19-11.3c-1.3-2.3-0.4-5.2,1.9-6.5c2.3-1.3,5.2-0.4,6.5,1.9c2.1,3.9,6.2,6.4,10.6,6.4
				c4.4,0,8.4-2.4,10.6-6.4c1.3-2.3,4.2-3.1,6.5-1.9c2.3,1.3,3.2,4.2,1.9,6.5C113.5,37,106.2,41.3,98.3,41.3z"/>
		</g>
	</g>
</g>
</svg>
