<?xml version="1.0" encoding="utf-8"?>
<!-- Generator: Adobe Illustrator 22.1.0, SVG Export Plug-In . SVG Version: 6.00 Build 0)  -->
<svg version="1.1" id="图层_1" xmlns="http://www.w3.org/2000/svg" xmlns:xlink="http://www.w3.org/1999/xlink" x="0px" y="0px"
	 viewBox="0 0 200 200" style="enable-background:new 0 0 200 200;" xml:space="preserve">
<style type="text/css">
	.st0{fill:#F19819;}
</style>
<g>
	<path class="st0" d="M171,16.8H28.6C12.6,16.8,0,29.1,0,44.4v110.8c0,15.6,12.6,28,28.6,28h142.8c15.6,0,28.6-12.3,28.6-27.6V44.4
		C199.7,29.1,187,16.8,171,16.8L171,16.8z M101.5,90c0.3,0.7,0.7,1,1.3,1.7c3,3,7.3,6,13.3,10.3c8.3,6,9.3,13.6,1.3,20
		c-7.7,5-20.6,5.7-20.6,5.7H63.2v-3.3h16.6c11,0.3,16.3-6.3,16.3-6.3c3.3-4.7,3.7-9-0.7-13c-1-1-2.3-1.7-3.3-2.3
		c-6-3-13.6-6.3-14.3-13c-0.7-6,2.3-10,6-12.6c6.3-5,16-5,16-5h32.3l-1.3,3.3h-17c-4.3,0-8,1.7-10.6,4c-2,2-2.7,5-2.7,7
		C100.2,87.7,100.5,89,101.5,90L101.5,90z M136.4,72h15.3l-10.3,55.6h-16.6L136.4,72z M108.8,61.1c-38.9,0-70.5,17.3-70.5,38.6
		s31.6,38.6,70.5,38.6c33.9,0,61.9-13,68.9-30.6c0.3-0.3,0.3-0.7,0.7-1c-5.7,24-38.6,41.6-78.2,41.6c-43.6,0-78.9-21.6-78.9-48.6
		c0-27,35.3-48.6,78.9-48.6c39.6,0,72.5,18,78.2,41.6c0-0.3-0.3-0.7-0.7-1C170.7,74,142.4,61.1,108.8,61.1L108.8,61.1z M108.8,61.1"
		/>
</g>
</svg>
