<?xml version="1.0" encoding="utf-8"?>
<!-- Generator: Adobe Illustrator 22.1.0, SVG Export Plug-In . SVG Version: 6.00 Build 0)  -->
<svg version="1.1" id="图层_1" xmlns="http://www.w3.org/2000/svg" xmlns:xlink="http://www.w3.org/1999/xlink" x="0px" y="0px"
	 viewBox="0 0 200 200" style="enable-background:new 0 0 200 200;" xml:space="preserve">
<g>
	<g>
		<path d="M100,169c-26.3,0-49.8-6.4-69.9-19.2c-20-13.1-30.1-29-30.1-47.2c0-18.9,9.5-34.3,30-48.4c9.7-6.2,20.5-10.8,31.5-13.4
			c2.6-0.6,5.1,1,5.7,3.5c0.6,2.6-1,5.1-3.5,5.7c-9.9,2.3-19.7,6.5-28.4,12.1c-17.5,12.1-25.8,25-25.8,40.4c0,14.8,8.7,28,25.8,39.2
			c18.7,11.8,39.9,17.6,64.7,17.6c25.4,0,46.6-5.8,64.7-17.6c17.1-10.9,25.8-24,25.8-39.2c0-16.1-8-28.6-25.8-40.5
			c-8.9-5.7-18-9.8-27.1-12c-2.6-0.6-4.1-3.2-3.5-5.8c0.6-2.5,3.2-4.1,5.8-3.5c10.1,2.5,20.2,7,30,13.3C190.4,68,200,83.3,200,102.7
			c0,18.7-10.1,34.5-30.2,47.2C150.5,162.6,127,169,100,169z"/>
	</g>
	<g>
		<g>
			<g>
				<path d="M122.9,45.6c-2.6,0-4.8-2.1-4.8-4.8v-5.1c0-2.6,2.1-4.8,4.8-4.8s4.8,2.1,4.8,4.8v5.1C127.6,43.4,125.5,45.6,122.9,45.6z
					"/>
			</g>
			<g>
				<path d="M77.1,45.6c-2.6,0-4.8-2.1-4.8-4.8v-5.1c0-2.6,2.1-4.8,4.8-4.8s4.8,2.1,4.8,4.8v5.1C81.9,43.4,79.8,45.6,77.1,45.6z"/>
			</g>
		</g>
		<g>
			<path d="M100,65.9c-7.9,0-15.1-4.3-19-11.3c-1.3-2.3-0.4-5.2,1.9-6.5c2.3-1.3,5.2-0.4,6.5,1.9c2.1,3.9,6.2,6.4,10.6,6.4
				c4.4,0,8.4-2.4,10.6-6.4c1.3-2.3,4.2-3.1,6.5-1.9c2.3,1.3,3.2,4.2,1.9,6.5C115.1,61.6,107.9,65.9,100,65.9z"/>
		</g>
	</g>
	<g>
		<path d="M100,134.9c-16.5,0-30-13.4-30-30s13.4-30,30-30c16.5,0,30,13.4,30,30S116.5,134.9,100,134.9z M100,84.5
			c-11.3,0-20.4,9.2-20.4,20.4s9.2,20.4,20.4,20.4c11.3,0,20.4-9.2,20.4-20.4S111.3,84.5,100,84.5z"/>
	</g>
</g>
</svg>
