<?xml version="1.0" encoding="utf-8"?>
<!-- Generator: Adobe Illustrator 22.1.0, SVG Export Plug-In . SVG Version: 6.00 Build 0)  -->
<svg version="1.1" id="图层_1" xmlns="http://www.w3.org/2000/svg" xmlns:xlink="http://www.w3.org/1999/xlink" x="0px" y="0px"
	 viewBox="0 0 200 200" style="enable-background:new 0 0 200 200;" xml:space="preserve">
<style type="text/css">
	.st0{fill:none;}
</style>
<g>
	<path class="st0" d="M147.1,80.6c-2.4,0-4.1,1.2-5.3,2.4L100,124.7L57.6,82.9c-1.2-1.2-2.9-2.4-4.7-2.4c-2.4,0-4.1,1.2-5.3,2.4
		c-1.8,1.8-2.4,2.9-2.4,5.3c0,1.8,0.6,3.5,2.4,5.3l47.1,47.1c1.2,1.2,2.9,1.8,5.3,1.8c1.8,0,3.5-0.6,4.7-1.8l47.1-47.1
		c1.8-1.8,2.4-3.5,2.4-5.3c0-2.4-0.6-3.5-2.4-5.3C150.6,81.8,148.8,80.6,147.1,80.6z"/>
	<path d="M170.6,29.4C151.2,10,127.6,0,100,0S48.8,10,29.4,29.4C9.4,48.8,0,72.4,0,100c0,27.6,9.4,51.2,29.4,71.2
		C48.8,190.6,72.4,200,100,200s51.2-9.4,70.6-28.8c19.4-20,29.4-43.5,29.4-71.2C200,72.4,190,48.8,170.6,29.4z M151.8,93.5
		l-47.1,47.1c-1.2,1.2-2.9,1.8-4.7,1.8c-2.4,0-4.1-0.6-5.3-1.8L47.6,93.5c-1.8-1.8-2.4-3.5-2.4-5.3c0-2.4,0.6-3.5,2.4-5.3
		c1.2-1.2,2.9-2.4,5.3-2.4c1.8,0,3.5,1.2,4.7,2.4l42.4,41.8l41.8-41.8c1.2-1.2,2.9-2.4,5.3-2.4c1.8,0,3.5,1.2,4.7,2.4
		c1.8,1.8,2.4,2.9,2.4,5.3C154.1,90,153.5,91.8,151.8,93.5z"/>
</g>
</svg>
