<?xml version="1.0" encoding="utf-8"?>
<!-- Generator: Adobe Illustrator 22.1.0, SVG Export Plug-In . SVG Version: 6.00 Build 0)  -->
<svg version="1.1" id="图层_1" xmlns="http://www.w3.org/2000/svg" xmlns:xlink="http://www.w3.org/1999/xlink" x="0px" y="0px"
	 viewBox="0 0 200 200" style="enable-background:new 0 0 200 200;" xml:space="preserve">
<g>
	<g>
		<g>
			<g>
				<path d="M114.9,200c-6,0-12.5-1.1-19.3-3.4c-14.4-5.5-26-16.1-35.7-32.6L16.7,87.6c-9-15.9-12.2-31.5-9.4-46.4
					c2.8-16,10-27.4,21.4-33.8l4-2.9c6.8-4.5,14.5-5.6,23.1-3.3c8.1,2.2,15,7.4,18.8,14.4L84.7,34c4.3,7.1,5.3,14.8,3,23.3l0,0
					c-2.3,8.4-6.8,15.4-13.1,20.3c-3.9,2.8-5.6,4.5-5.9,6.1c-0.1,0.3-0.2,0.6-0.3,0.9c-1.2,2.8-0.9,5.5,0.9,8.2l12.3,21.9
					c1.2,2.4,3.5,4.1,6.7,5.2c2.8-0.1,6-0.8,9.7-2.2c7.6-2.8,15-3,23.3-0.8c7.5,2,13.8,6.8,18.6,14l10.4,18.8
					c4.3,7.1,5.3,14.8,3,23.3c-2.3,8.6-7.1,15.1-14.2,19.4l-3.6,2.4C129.1,198.3,122.3,200,114.9,200z M47.2,9.5
					c-3.3,0-6.3,0.9-9.1,2.8l-4.3,3.1c-9.4,5.3-14.8,14.2-17.1,27.4C14.3,55.6,17.1,69,25,82.9l43.2,76.3
					c8.4,14.5,18.5,23.8,30.6,28.4c12.4,4.1,23.1,3.8,31.6-1l3.5-2.4c5.2-3.1,8.4-7.6,10.1-13.8c1.6-6,1-10.9-2-16l-10.3-18.6
					c-3.4-5-7.7-8.3-13-9.8c-6.3-1.7-11.7-1.6-17.5,0.5c-5.1,1.9-9.6,2.8-13.7,2.8c-0.4,0-0.9-0.1-1.3-0.2
					c-6.1-1.7-10.7-5.3-13.1-10.1l-12-21.4c-3.3-4.9-3.9-10.8-1.7-16.5c1.1-4.6,4.6-7.9,9.4-11.3c4.5-3.5,7.9-8.8,9.6-15.2l0,0
					c1.6-6,1-10.9-2-16L66.2,20.2c-2.6-4.7-7.3-8.2-13-9.8C51.1,9.8,49.1,9.5,47.2,9.5z M64,82.7L64,82.7L64,82.7z"/>
			</g>
		</g>
		<g>
			<g>
				<path d="M163.8,146c-1.3,0-2.6-0.5-3.6-1.6c-1.8-2-1.6-5,0.4-6.7c9.9-8.8,16.9-20.4,21.5-35.3c4.7-19.4,2.3-38.2-7.2-55.4
					c-10-17.1-24.9-28.5-44.2-33.9c-15-3.8-28.5-3.4-40.9,1.2c-2.5,0.9-5.2-0.4-6.1-2.9c-0.9-2.5,0.4-5.2,2.9-6.1
					c14.3-5.2,29.6-5.7,46.6-1.4c21.9,6.1,38.6,19.1,50,38.4c10.8,19.5,13.5,40.6,8.1,62.7c-5.1,17-13.1,29.9-24.3,39.9
					C166.1,145.6,165,146,163.8,146z"/>
			</g>
		</g>
	</g>
	<g>
		<g>
			<g>
				<path d="M158.3,67.4c-2.6,0-4.8-2.1-4.8-4.8v-5.1c0-2.6,2.1-4.8,4.8-4.8c2.6,0,4.8,2.1,4.8,4.8v5.1
					C163.1,65.2,160.9,67.4,158.3,67.4z"/>
			</g>
			<g>
				<path d="M112.5,67.4c-2.6,0-4.8-2.1-4.8-4.8v-5.1c0-2.6,2.1-4.8,4.8-4.8c2.6,0,4.8,2.1,4.8,4.8v5.1
					C117.3,65.2,115.2,67.4,112.5,67.4z"/>
			</g>
		</g>
		<g>
			<path d="M135.4,94.1c-7.9,0-15.2-4.3-19-11.3c-1.3-2.3-0.4-5.2,1.9-6.5c2.3-1.3,5.2-0.4,6.5,1.9c2.1,3.9,6.2,6.4,10.6,6.4
				c4.4,0,8.5-2.4,10.6-6.4c1.3-2.3,4.2-3.2,6.5-1.9c2.3,1.3,3.2,4.2,1.9,6.5C150.6,89.8,143.3,94.1,135.4,94.1z"/>
		</g>
	</g>
</g>
</svg>
