<?xml version="1.0" encoding="utf-8"?>
<!-- Generator: Adobe Illustrator 22.1.0, SVG Export Plug-In . SVG Version: 6.00 Build 0)  -->
<svg version="1.1" id="图层_1" xmlns="http://www.w3.org/2000/svg" xmlns:xlink="http://www.w3.org/1999/xlink" x="0px" y="0px"
	 viewBox="0 0 200 200" style="enable-background:new 0 0 200 200;" xml:space="preserve">
<path d="M170.6,29.4C151.2,9.4,127.6,0,100,0C72.4,0,48.8,9.4,29.4,29.4C9.4,48.8,0,72.4,0,100s9.4,51.2,29.4,70.6
	C48.8,190,72.4,200,100,200c27.6,0,51.2-10,70.6-29.4C190,151.2,200,127.6,200,100S190,48.8,170.6,29.4z M151.8,104.7
	c-1.2,1.8-2.9,2.4-4.7,2.4h-40v39.4c0,2.3-0.6,4.1-1.8,5.3c-1.8,1.8-3.5,2.4-5.3,2.4c-2.4,0-3.5-0.6-5.3-2.4
	c-1.2-1.2-2.3-2.9-2.3-4.7v-40H52.9c-2.4,0-4.1-0.6-5.3-2.4c-1.8-1.2-2.3-2.9-2.3-4.7c0-2.3,0.6-4.1,2.3-5.3
	c1.2-1.8,2.9-2.4,5.3-2.4h40v-40c-0.6-1.8,0.6-3.5,1.8-5.3c1.8-1.2,3.5-1.8,5.3-1.8c2.4,0,3.5,0.6,5.3,1.8c1.2,1.8,1.8,3.5,1.8,5.3
	v40h40c1.8,0,3.5,0.6,4.7,2.4c1.8,1.2,2.4,2.9,2.4,5.3C154.1,101.8,153.5,103.5,151.8,104.7z"/>
</svg>
