<?xml version="1.0" encoding="utf-8"?>
<!-- Generator: Adobe Illustrator 22.1.0, SVG Export Plug-In . SVG Version: 6.00 Build 0)  -->
<svg version="1.1" id="图层_1" xmlns="http://www.w3.org/2000/svg" xmlns:xlink="http://www.w3.org/1999/xlink" x="0px" y="0px"
	 viewBox="0 0 200 200" style="enable-background:new 0 0 200 200;" xml:space="preserve">
<style type="text/css">
	.st0{fill:#1885BE;}
</style>
<g>
	<g>
		<g>
			<path class="st0" d="M133,51.2c-2.6,0-4.7-2.1-4.7-4.7v-8.8c0-8.1-2.7-14.8-8.4-20.4c-5.8-5.4-12.2-7.9-20-7.9
				c-7.9,0-14.8,2.7-20.6,8.1c-5.1,5.5-7.8,12.4-7.8,20.3v8.8c0,2.6-2.1,4.7-4.7,4.7c-2.6,0-4.7-2.1-4.7-4.7v-8.8
				c0-10.3,3.5-19.4,10.5-26.9C80.7,3.5,89.7,0,100,0c10.1,0,18.8,3.4,26.4,10.5c7.5,7.5,11.3,16.6,11.3,27.1v8.8
				C137.7,49.1,135.6,51.2,133,51.2z"/>
		</g>
		<g>
			<path class="st0" d="M67,66c-2.6,0-4.7-2.1-4.7-4.7V46.5c0-2.6,2.1-4.7,4.7-4.7c2.6,0,4.7,2.1,4.7,4.7v14.9
				C71.6,64,69.6,66,67,66z"/>
		</g>
		<g>
			<path class="st0" d="M133,51.2H67c-2.6,0-4.7-2.1-4.7-4.7c0-2.6,2.1-4.7,4.7-4.7h66c2.6,0,4.7,2.1,4.7,4.7
				C137.7,49.1,135.6,51.2,133,51.2z"/>
		</g>
		<g>
			<path class="st0" d="M168.8,200H30.7c-10.3,0-18-2.9-22.8-8.7c-5.2-6.3-6.8-15.7-4.6-28l19.1-100c1.5-9.7,7.7-21.5,28.8-21.5H67
				c2.6,0,4.7,2.1,4.7,4.7c0,2.6-2.1,4.7-4.7,4.7H51.2c-15.5,0-18.6,7.3-19.6,13.7L12.5,165.1c-1.7,9.4-0.9,16.2,2.5,20.3
				c3,3.5,8.2,5.3,15.7,5.3h138.1c7.7,0,13.1-1.8,16.1-5.4c3.4-4.1,4.2-10.9,2.5-20.2l-19.1-100c-0.9-6.1-3.9-13.9-19.2-13.9H133
				c-2.6,0-4.7-2.1-4.7-4.7c0-2.6,2.1-4.7,4.7-4.7h16.3c16.1,0,26.2,7.7,28.3,21.6l19,99.8c2.2,12.3,0.7,21.6-4.5,27.9
				C187.3,197,179.4,200,168.8,200z"/>
		</g>
	</g>
	<g>
		<g>
			<path class="st0" d="M68.1,127c0.9,7.4,4.2,13.5,9.3,18.6c6.5,6.5,13.5,9.3,22.8,9.8c8.8-0.5,16.3-3.3,22.3-9.8
				c5.6-5.1,8.4-11.2,9.3-18.6c0.5-2.3-1.4-3.7-4.2-3.7H72.3C69.5,123.3,68.1,124.7,68.1,127"/>
		</g>
		<g>
			<g>
				<path class="st0" d="M77.1,99.3c0,4.9-4,8.9-8.9,8.9s-8.9-4-8.9-8.9c0-4.9,4-8.9,8.9-8.9S77.1,94.4,77.1,99.3z"/>
			</g>
			<g>
				<path class="st0" d="M140.9,99.3c0,4.9-4,8.9-8.9,8.9c-4.9,0-9-4-9-8.9c0-4.9,4-8.9,9-8.9C136.9,90.4,140.9,94.4,140.9,99.3z"/>
			</g>
		</g>
	</g>
	<g>
		<g>
			<path class="st0" d="M155.8,180.9H44.2c-2.6,0-4.7-2.1-4.7-4.7s2.1-4.7,4.7-4.7h111.6c2.6,0,4.7,2.1,4.7,4.7
				S158.4,180.9,155.8,180.9z"/>
		</g>
	</g>
</g>
</svg>
