<?xml version="1.0" encoding="utf-8"?>
<!-- Generator: Adobe Illustrator 22.1.0, SVG Export Plug-In . SVG Version: 6.00 Build 0)  -->
<svg version="1.1" id="图层_1" xmlns="http://www.w3.org/2000/svg" xmlns:xlink="http://www.w3.org/1999/xlink" x="0px" y="0px"
	 viewBox="0 0 200 200" style="enable-background:new 0 0 200 200;" xml:space="preserve">
<g>
	<g>
		<path d="M100,23.3c-2.6,0-4.7-2.1-4.7-4.7V4.7c0-2.6,2.1-4.7,4.7-4.7s4.7,2.1,4.7,4.7v13.8C104.7,21.2,102.6,23.3,100,23.3z"/>
	</g>
	<g>
		<path d="M171.1,110.1c-2.6,0-4.7-2.1-4.7-4.7V91c0-19.2-6.5-35.4-19.4-48.3c-12.3-13.5-28.1-19.9-46.9-19.4
			c-2.6,0.2-4.8-2-4.9-4.6s2-4.8,4.6-4.9c21.7-0.7,39.9,6.8,54,22.3c14.3,14.3,22,33.3,22,54.8v14.5
			C175.8,108,173.7,110.1,171.1,110.1z"/>
	</g>
	<g>
		<path d="M29.5,110.1c-2.6,0-4.7-2.1-4.7-4.7V91c0-21.2,7.4-40.2,21.4-54.9c15.6-15.6,33.1-22.9,53.9-22.2c2.6,0.1,4.6,2.3,4.6,4.9
			c-0.1,2.6-2.2,4.8-4.9,4.6C82,22.7,66.6,29.1,53,42.7C40.6,55.7,34.2,72,34.2,91v14.5C34.2,108,32.1,110.1,29.5,110.1z"/>
	</g>
	<g>
		<path d="M29.5,159.9H5.6c-2.6,0-4.7-2.1-4.7-4.7s2.1-4.7,4.7-4.7h23.9c2.6,0,4.7,2.1,4.7,4.7S32.1,159.9,29.5,159.9z"/>
	</g>
	<g>
		<path d="M29.5,159.9c-2.6,0-4.7-2.1-4.7-4.7v-27.7c0-2.6,2.1-4.7,4.7-4.7s4.7,2.1,4.7,4.7v27.7C34.2,157.8,32.1,159.9,29.5,159.9z
			"/>
	</g>
	<g>
		<path d="M171.1,159.9c-2.6,0-4.7-2.1-4.7-4.7v-27.7c0-2.6,2.1-4.7,4.7-4.7c2.6,0,4.7,2.1,4.7,4.7v27.7
			C175.8,157.8,173.7,159.9,171.1,159.9z"/>
	</g>
	<g>
		<path d="M194.4,159.9h-23.3c-2.6,0-4.7-2.1-4.7-4.7s2.1-4.7,4.7-4.7h23.3c2.6,0,4.7,2.1,4.7,4.7S197,159.9,194.4,159.9z"/>
	</g>
	<g>
		<path d="M171.1,159.9H29.5c-2.6,0-4.7-2.1-4.7-4.7s2.1-4.7,4.7-4.7h141.6c2.6,0,4.7,2.1,4.7,4.7S173.7,159.9,171.1,159.9z"/>
	</g>
	<g>
		<g>
			<path d="M100,200c-13.2,0-25.3-8.3-31.6-21.6c-1.1-2.4-0.1-5.2,2.2-6.3c2.4-1.1,5.2-0.1,6.3,2.2c4.7,10,13.6,16.2,23.1,16.2
				c9.5,0,18.3-6.2,23.1-16.2c1.1-2.3,3.9-3.3,6.3-2.2c2.4,1.1,3.4,3.9,2.2,6.3C125.3,191.7,113.2,200,100,200z"/>
		</g>
	</g>
</g>
<g>
	<g>
		<g>
			<path d="M122.7,94c-2.6,0-4.7-2.1-4.7-4.7v-5c0-2.6,2.1-4.7,4.7-4.7s4.7,2.1,4.7,4.7v5C127.4,91.9,125.3,94,122.7,94z"/>
		</g>
		<g>
			<path d="M77.3,94c-2.6,0-4.7-2.1-4.7-4.7v-5c0-2.6,2.1-4.7,4.7-4.7s4.7,2.1,4.7,4.7v5C82.1,91.9,79.9,94,77.3,94z"/>
		</g>
	</g>
	<g>
		<path d="M100,120.5c-7.8,0-15-4.3-18.8-11.2c-1.3-2.3-0.4-5.2,1.9-6.4c2.3-1.2,5.2-0.4,6.4,1.9c2.1,3.9,6.2,6.3,10.5,6.3
			c4.3,0,8.4-2.4,10.5-6.3c1.3-2.3,4.1-3.1,6.4-1.9c2.3,1.3,3.1,4.1,1.9,6.4C115,116.2,107.8,120.5,100,120.5z"/>
	</g>
</g>
</svg>
