<?xml version="1.0" encoding="utf-8"?>
<!-- Generator: Adobe Illustrator 22.1.0, SVG Export Plug-In . SVG Version: 6.00 Build 0)  -->
<svg version="1.1" id="图层_1" xmlns="http://www.w3.org/2000/svg" xmlns:xlink="http://www.w3.org/1999/xlink" x="0px" y="0px"
	 viewBox="0 0 200 200" style="enable-background:new 0 0 200 200;" xml:space="preserve">
<g>
	<g>
		<g>
			<path d="M160.3,121.3h-21.6c-2.6,0-4.8-2.1-4.8-4.8c0-2.6,2.1-4.8,4.8-4.8h21.6c2.6,0,4.8,2.1,4.8,4.8
				C165.1,119.1,162.9,121.3,160.3,121.3z"/>
		</g>
		<g>
			<path d="M4.8,197.1c-0.6,0-1.2-0.1-1.8-0.4c-1.8-0.7-3-2.5-3-4.4V85.1c0-2.6,2.1-4.8,4.8-4.8s4.8,2.1,4.8,4.8v95.6l25.5-26
				c0.9-0.9,2.1-1.4,3.4-1.4h131.3c14.6-0.5,20.6-16.7,20.6-31.3V83.1c0-2.6,2.1-4.8,4.8-4.8c2.7,0,4.8,2.1,4.8,4.8V122
				c0,19.7-10.1,40.1-30,40.8H40.5L8.2,195.7C7.2,196.6,6,197.1,4.8,197.1z"/>
		</g>
		<g>
			<path d="M61.9,121.3H40.3c-2.6,0-4.8-2.1-4.8-4.8c0-2.6,2.1-4.8,4.8-4.8h21.6c2.6,0,4.8,2.1,4.8,4.8
				C66.7,119.1,64.5,121.3,61.9,121.3z"/>
		</g>
		<g>
			<path d="M195.2,64.5c-2.6,0-4.8-2.1-4.8-4.8V36.2c0-14.5-6.2-20.6-20.6-20.6h-139C16.1,15.6,9.5,22,9.5,36.2v23.5
				c0,2.6-2.1,4.8-4.8,4.8S0,62.3,0,59.6V36.2C0,16.8,10.9,5.9,30.8,5.9h138.9c19.7,0,30.2,10.4,30.2,30.2v23.5
				C200,62.3,197.9,64.5,195.2,64.5z"/>
		</g>
	</g>
	<g>
		<g>
			<g>
				<path d="M122.9,61.8c-2.6,0-4.8-2.1-4.8-4.8V52c0-2.6,2.1-4.8,4.8-4.8s4.8,2.1,4.8,4.8V57C127.6,59.8,125.5,61.8,122.9,61.8z"/>
			</g>
			<g>
				<path d="M77.2,61.8c-2.6,0-4.8-2.1-4.8-4.8V52c0-2.6,2.1-4.8,4.8-4.8S82,49.3,82,52V57C81.9,59.8,79.8,61.8,77.2,61.8z"/>
			</g>
		</g>
		<g>
			<path d="M100,88.6c-7.9,0-15.1-4.3-18.9-11.3c-1.3-2.3-0.4-5.2,1.9-6.5s5.2-0.4,6.5,1.9c2.1,3.9,6.2,6.4,10.6,6.4
				s8.5-2.4,10.6-6.4c1.3-2.3,4.2-3.1,6.5-1.9c2.3,1.3,3.1,4.2,1.9,6.5C115.1,84.3,107.9,88.6,100,88.6z"/>
		</g>
	</g>
</g>
</svg>
