<?xml version="1.0" encoding="utf-8"?>
<!-- Generator: Adobe Illustrator 22.1.0, SVG Export Plug-In . SVG Version: 6.00 Build 0)  -->
<svg version="1.1" id="图层_1" xmlns="http://www.w3.org/2000/svg" xmlns:xlink="http://www.w3.org/1999/xlink" x="0px" y="0px"
	 viewBox="0 0 200 200" style="enable-background:new 0 0 200 200;" xml:space="preserve">
<g>
	<g>
		<g>
			<path d="M137.6,35.3c-2.8,0-5.1-2.3-5.1-5.1V18c0-6-1.8-7.8-7.8-7.8H74.6c-5.7,0-7.8,2.1-7.8,7.8v12.2c0,2.8-2.3,5.1-5.1,5.1
				s-5.1-2.3-5.1-5.1V18c0-11.3,6.7-18,18-18h50.2c11.6,0,18,6.4,18,18v12.2C142.7,33,140.4,35.3,137.6,35.3z"/>
		</g>
		<g>
			<path d="M61.7,35.3H11.5c-2.8,0-5.1-2.3-5.1-5.1s2.3-5.1,5.1-5.1h50.2c2.8,0,5.1,2.3,5.1,5.1S64.5,35.3,61.7,35.3z"/>
		</g>
		<g>
			<path d="M188.5,35.3h-50.8c-2.8,0-5.1-2.3-5.1-5.1s2.3-5.1,5.1-5.1h50.8c2.8,0,5.1,2.3,5.1,5.1S191.3,35.3,188.5,35.3z"/>
		</g>
		<g>
			<path d="M137.6,35.3H61.7c-2.8,0-5.1-2.3-5.1-5.1s2.3-5.1,5.1-5.1h75.9c2.8,0,5.1,2.3,5.1,5.1S140.4,35.3,137.6,35.3z"/>
		</g>
		<g>
			<path d="M156.6,200H99.7c-2.8,0-5.1-2.3-5.1-5.1s2.3-5.1,5.1-5.1h56.9c6,0,7.8-1.8,7.8-7.8V54.6c0-2.8,2.3-5.1,5.1-5.1
				s5.1,2.3,5.1,5.1V182C174.6,193.6,168.2,200,156.6,200z"/>
		</g>
		<g>
			<path d="M99.7,200H42.7c-5.8,0-10.3-1.7-13.4-5c-3-3.3-4.3-7.8-3.9-13.4l0-127.1c0-2.8,2.3-5.1,5.1-5.1s5.1,2.3,5.1,5.1V182
				c-0.2,2.2-0.1,4.7,1.2,6.1c1.3,1.4,3.9,1.7,5.9,1.7h56.9c2.8,0,5.1,2.3,5.1,5.1S102.5,200,99.7,200z"/>
		</g>
		<g>
			<path d="M136.9,174.2c-2.8,0-5.1-2.3-5.1-5.1v-42.7c0-2.8,2.3-5.1,5.1-5.1s5.1,2.3,5.1,5.1v42.7C142,172,139.8,174.2,136.9,174.2
				z"/>
		</g>
		<g>
			<path d="M99.7,200c-2.8,0-5.1-2.3-5.1-5.1v-68.5c0-2.8,2.3-5.1,5.1-5.1c2.8,0,5.1,2.3,5.1,5.1v68.5
				C104.7,197.7,102.5,200,99.7,200z"/>
		</g>
		<g>
			<path d="M63.1,174.2c-2.8,0-5.1-2.3-5.1-5.1v-42.7c0-2.8,2.3-5.1,5.1-5.1c2.8,0,5.1,2.3,5.1,5.1v42.7
				C68.1,172,65.9,174.2,63.1,174.2z"/>
		</g>
	</g>
	<g>
		<g>
			<g>
				<path d="M124.4,62.3c-2.8,0-5.1-2.3-5.1-5.1v-5.4c0-2.8,2.3-5.1,5.1-5.1s5.1,2.3,5.1,5.1v5.4C129.5,60.1,127.2,62.3,124.4,62.3z
					"/>
			</g>
			<g>
				<path d="M75.6,62.3c-2.8,0-5.1-2.3-5.1-5.1v-5.4c0-2.8,2.3-5.1,5.1-5.1c2.8,0,5.1,2.3,5.1,5.1v5.4
					C80.7,60.1,78.4,62.3,75.6,62.3z"/>
			</g>
		</g>
		<g>
			<path d="M100,90.9c-8.4,0-16.2-4.6-20.2-12.1c-1.3-2.5-0.4-5.6,2-6.9c2.5-1.3,5.6-0.4,6.9,2c2.3,4.2,6.6,6.8,11.3,6.8
				s9-2.6,11.3-6.8c1.4-2.5,4.4-3.4,6.9-2c2.5,1.3,3.4,4.4,2,6.9C116.2,86.2,108.4,90.9,100,90.9z"/>
		</g>
	</g>
</g>
</svg>
