<?xml version="1.0" encoding="utf-8"?>
<!-- Generator: Adobe Illustrator 22.1.0, SVG Export Plug-In . SVG Version: 6.00 Build 0)  -->
<svg version="1.1" id="图层_1" xmlns="http://www.w3.org/2000/svg" xmlns:xlink="http://www.w3.org/1999/xlink" x="0px" y="0px"
	 viewBox="0 0 200 200" style="enable-background:new 0 0 200 200;" xml:space="preserve">
<g>
	<g>
		<g>
			<path d="M99.1,156.3c-0.7,0-1.3-0.1-1.9-0.3c-35.6-11.7-59.2-30.3-70-55.3c-1.4-3.2,0.1-6.8,3.3-8.2c3.2-1.4,6.8,0.1,8.2,3.3
				c9.2,21.2,29.5,37.2,60.5,47.8c31.8-10.8,52.8-26.9,62.4-47.9c1.4-3.1,5.2-4.5,8.3-3.1c3.1,1.4,4.5,5.2,3.1,8.3
				c-11.4,24.7-35.5,43.3-71.9,55.2C100.4,156.1,99.7,156.3,99.1,156.3z"/>
		</g>
		<g>
			<path d="M99.1,200c-3.5,0-6.2-2.8-6.2-6.2v-25.6c0-3.5,2.8-6.2,6.2-6.2c3.5,0,6.2,2.8,6.2,6.2v25.6
				C105.3,197.2,102.5,200,99.1,200z"/>
		</g>
		<g>
			<path d="M120.9,196.2c-1.8,0-3.7-0.8-4.9-2.4c-2.1-2.7-1.7-6.6,1-8.8l46.9-36.9c2.7-2.1,6.6-1.7,8.8,1c2.1,2.7,1.7,6.6-1,8.8
				l-46.9,36.9C123.7,195.8,122.3,196.2,120.9,196.2z"/>
		</g>
		<g>
			<path d="M79.1,196.2c-1.4,0-2.7-0.4-3.9-1.3L28.3,158c-2.7-2.1-3.2-6.1-1-8.8c2.1-2.7,6.1-3.2,8.8-1l46.9,36.9
				c2.7,2.1,3.2,6.1,1,8.8C82.7,195.4,80.9,196.2,79.1,196.2z"/>
		</g>
		<g>
			<path d="M174.1,79.4c-0.2,0-0.4,0-0.6,0c-3.4-0.3-5.9-3.4-5.6-6.8c1.1-11.1,0.1-23.2-3-35.9c-0.1,0-0.1,0-0.2,0
				c-10.5,0-19.8,3.5-28.4,10.7c-1.5,1.2-3.4,1.7-5.2,1.3c-1.9-0.4-3.4-1.6-4.3-3.2c-7.4-14.2-16.4-24.7-27.4-31.7
				C88.7,21,79.9,31.9,73.5,45.2c-0.8,1.7-2.4,3-4.3,3.4c-1.9,0.4-3.9-0.1-5.3-1.3c-8.5-7.1-18.2-10.7-29-10.7c0,0-0.1,0-0.1,0
				c-2.8,13.1-3.6,25.2-2.6,35.9c0.3,3.4-2.2,6.5-5.6,6.8c-3.4,0.3-6.5-2.2-6.8-5.6c-1.3-13.3,0-28.3,3.9-44.6
				c0.6-2.6,2.8-4.5,5.5-4.8c13.2-1.2,25.7,1.8,36.5,8.8C73.4,19.4,83.7,8.4,95.8,0.9c1.9-1.2,4.4-1.3,6.4-0.1
				c12.9,7.3,23.4,17.9,32.1,32.4c10.8-7.1,22.9-10,36.1-8.8c2.6,0.2,4.8,2,5.5,4.5c4.4,15.8,6,30.9,4.6,44.8
				C180,77,177.2,79.4,174.1,79.4z"/>
		</g>
	</g>
	<g>
		<g>
			<g>
				<path d="M122.5,69.7c-3.5,0-6.2-2.8-6.2-6.2v-5c0-3.5,2.8-6.2,6.2-6.2s6.2,2.8,6.2,6.2v5C128.7,66.9,125.9,69.7,122.5,69.7z"/>
			</g>
			<g>
				<path d="M77.5,69.7c-3.5,0-6.2-2.8-6.2-6.2v-5c0-3.5,2.8-6.2,6.2-6.2c3.5,0,6.2,2.8,6.2,6.2v5C83.8,66.9,81,69.7,77.5,69.7z"/>
			</g>
		</g>
		<g>
			<path d="M100,96c-8.3,0-16-4.6-20-12c-1.7-3-0.5-6.8,2.5-8.5c3-1.6,6.8-0.5,8.5,2.5c1.8,3.4,5.3,5.5,9.1,5.5
				c3.7,0,7.2-2.1,9.1-5.5c1.7-3,5.5-4.1,8.5-2.5c3,1.7,4.1,5.5,2.5,8.5C116,91.4,108.3,96,100,96z"/>
		</g>
	</g>
</g>
</svg>
