<?xml version="1.0" encoding="utf-8"?>
<!-- Generator: Adobe Illustrator 22.1.0, SVG Export Plug-In . SVG Version: 6.00 Build 0)  -->
<svg version="1.1" id="图层_1" xmlns="http://www.w3.org/2000/svg" xmlns:xlink="http://www.w3.org/1999/xlink" x="0px" y="0px"
	 viewBox="0 0 200 200" style="enable-background:new 0 0 200 200;" xml:space="preserve">
<path d="M100,0C72.4,0,48.8,9.4,29.4,29.4C10,48.8,0,72.4,0,100c0,27.1,10,50.6,29.4,70.6C48.8,190,72.4,200,100,200
	s51.2-10,71.2-29.4c19.4-20,28.8-43.5,28.8-70.6c0-27.6-9.4-51.2-28.8-70.6C151.2,9.4,127.6,0,100,0z M138.8,127.6
	c1.2,1.8,1.8,2.9,1.8,5.3c0,1.8-0.6,3.5-1.8,5.3c-1.8,1.2-3.5,1.8-5.3,1.8c-2.4,0-3.5-0.6-5.3-1.8L100.6,110l-28.2,28.2
	c-1.8,1.2-2.9,1.8-5.3,1.8c-1.8,0-3.5-0.6-5.3-1.8c-1.2-1.8-2.4-2.9-2.4-5.3c0-1.8,0.6-3.5,2.4-5.3L90,99.4L61.8,71.8
	c-1.2-1.8-2.4-3.5-2.4-5.3c0-2.3,1.2-3.5,2.4-5.3c1.8-1.2,2.9-2.4,5.3-2.4c1.8,0,3.5,1.2,5.3,2.4L100,89.4l28.8-28.2
	c1.2-1.2,2.9-2.4,4.7-2.4c2.3,0,4.1,1.2,5.3,2.4c1.8,1.8,2.4,2.9,2.4,5.3c0,1.8-0.6,3.5-2.4,5.3l-28.2,27.6L138.8,127.6z"/>
</svg>
