<?xml version="1.0" encoding="utf-8"?>
<!-- Generator: Adobe Illustrator 22.1.0, SVG Export Plug-In . SVG Version: 6.00 Build 0)  -->
<svg version="1.1" id="图层_1" xmlns="http://www.w3.org/2000/svg" xmlns:xlink="http://www.w3.org/1999/xlink" x="0px" y="0px"
	 viewBox="0 0 200 200" style="enable-background:new 0 0 200 200;" xml:space="preserve">
<g>
	<g>
		<g>
			<path d="M194.9,37.3H5.1C2.3,37.3,0,35,0,32.2c0-2.8,2.3-5.1,5.1-5.1h189.8c2.8,0,5.1,2.3,5.1,5.1C200,35,197.7,37.3,194.9,37.3z
				"/>
		</g>
	</g>
	<g>
		<g>
			<path d="M194.9,105.1H5.1c-2.8,0-5.1-2.3-5.1-5.1s2.3-5.1,5.1-5.1h189.8c2.8,0,5.1,2.3,5.1,5.1S197.7,105.1,194.9,105.1z"/>
		</g>
	</g>
	<g>
		<g>
			<path d="M194.9,172.9H5.1c-2.8,0-5.1-2.3-5.1-5.1s2.3-5.1,5.1-5.1h189.8c2.8,0,5.1,2.3,5.1,5.1S197.7,172.9,194.9,172.9z"/>
		</g>
	</g>
</g>
</svg>
