<?xml version="1.0" encoding="utf-8"?>
<!-- Generator: Adobe Illustrator 22.1.0, SVG Export Plug-In . SVG Version: 6.00 Build 0)  -->
<svg version="1.1" id="图层_1" xmlns="http://www.w3.org/2000/svg" xmlns:xlink="http://www.w3.org/1999/xlink" x="0px" y="0px"
	 viewBox="0 0 200 200" style="enable-background:new 0 0 200 200;" xml:space="preserve">
<g>
	<g>
		<g>
			<path d="M150.8,39.4H49.2c-2.6,0-4.8-2.1-4.8-4.8c0-2.6,2.1-4.8,4.8-4.8h101.6c2.6,0,4.8,2.1,4.8,4.8
				C155.6,37.2,153.4,39.4,150.8,39.4z"/>
		</g>
		<g>
			<path d="M159,193.7H41.6c-13.3,0-20.6-7.6-20.6-21.3V121c0-2.6,2.1-4.8,4.8-4.8s4.8,2.1,4.8,4.8v51.4c0,8.3,3.2,11.8,11.1,11.8
				H159c7.9,0,11.1-3.4,11.1-11.8V121c0-2.6,2.1-4.8,4.8-4.8s4.8,2.1,4.8,4.8v51.4C179.7,186.1,172.3,193.7,159,193.7z"/>
		</g>
		<g>
			<path d="M100,108.6c-13.4-0.7-24.5-3.3-34.1-8.1c-6.3,3.7-13.9,5.6-22.4,5.6c-12.2,0-22.1-3.7-30.5-11.4C4.4,86.8,0,77.2,0,66.4
				c0-4,0.8-8.4,2.2-11.9L11.7,31c6.6-16.7,19.4-25.2,37-24.6H152c16.7-0.7,29.5,7.8,36.7,24.5l9.6,22.9c0.1,0.3,0.2,0.6,0.3,0.9
				c0.6,2.9,1.4,7.3,1.4,11.7c0,10.6-4.1,20.1-12.2,28.1c-8.3,7.6-18.8,11.5-30.7,11.5c-8.2,0-15.9-1.8-22.4-5.1
				C123.7,106.1,112.3,108.6,100,108.6z M65.7,90.2c0.8,0,1.6,0.2,2.3,0.6c8.8,4.9,19.3,7.6,32.2,8.3c11.4,0,22.1-2.5,32.6-7.8
				c1.5-0.7,3.2-0.7,4.6,0.2c5.5,3.3,12.3,5,19.8,5c9.5,0,17.6-3,24.1-8.9c6.1-6.1,9.3-13.3,9.3-21.3c0-3.4-0.6-6.9-1.1-9.4
				L180,34.6c-5.7-13.1-14.8-19.1-27.8-18.7H48.5c-13.7-0.5-22.9,5.5-28,18.6L11.1,58c-0.9,2.4-1.5,5.6-1.5,8.4
				c0,8.2,3.2,15.2,9.9,21.3c6.6,6.1,14.3,8.9,24.1,8.9c7.7,0,14.3-1.8,19.5-5.5C63.8,90.5,64.8,90.2,65.7,90.2z"/>
		</g>
	</g>
	<g>
		<g>
			<g>
				<path d="M122.9,135.9c-2.6,0-4.8-2.1-4.8-4.8V126c0-2.6,2.1-4.8,4.8-4.8s4.8,2.1,4.8,4.8v5.1
					C127.6,133.7,125.5,135.9,122.9,135.9z"/>
			</g>
			<g>
				<path d="M77.1,135.9c-2.6,0-4.8-2.1-4.8-4.8V126c0-2.6,2.1-4.8,4.8-4.8s4.8,2.1,4.8,4.8v5.1C81.9,133.7,79.8,135.9,77.1,135.9z"
					/>
			</g>
		</g>
		<g>
			<path d="M100,162.6c-7.9,0-15.1-4.3-18.9-11.3c-1.3-2.3-0.4-5.2,1.9-6.5s5.2-0.4,6.5,1.9c2.1,3.9,6.2,6.4,10.6,6.4
				s8.4-2.4,10.6-6.4c1.3-2.3,4.2-3.1,6.5-1.9c2.3,1.3,3.2,4.2,1.9,6.5C115.1,158.2,107.9,162.6,100,162.6z"/>
		</g>
	</g>
</g>
</svg>
