<?xml version="1.0" encoding="utf-8"?>
<!-- Generator: Adobe Illustrator 22.1.0, SVG Export Plug-In . SVG Version: 6.00 Build 0)  -->
<svg version="1.1" id="图层_1" xmlns="http://www.w3.org/2000/svg" xmlns:xlink="http://www.w3.org/1999/xlink" x="0px" y="0px"
	 viewBox="0 0 200 200" style="enable-background:new 0 0 200 200;" xml:space="preserve">
<style type="text/css">
	.st0{fill:none;}
</style>
<g>
	<path class="st0" d="M81.9,104.4c5.1,5.1,11.1,7.4,18.1,7.4c7.4,0,13.5-2.3,18-7.4c4.2-4.2,6.9-9.3,7.4-14.9
		c0.5-2.3-0.9-3.2-3.2-3.2H78.1c-2.3,0.4-3.7,1.3-3.2,3.2C75.4,95.1,77.7,100.2,81.9,104.4z"/>
	<path d="M100,138.3c18.9,0,35-6.7,49.2-20.4c13.2-13.2,19.9-29,20.4-48.2v-0.1v-65c0-2.5-2-4.6-4.6-4.6h-65
		C80.6,0,64.6,6.5,51.2,19.9C37.5,33.6,30.8,49.7,30.8,69.1c0,19.3,6.9,35.8,20.4,48.8C64.8,131.4,81.2,138.3,100,138.3z M78.1,86.3
		h44.1c2.3,0,3.7,0.9,3.2,3.2c-0.5,5.6-3.2,10.7-7.4,14.9c-4.6,5.1-10.7,7.4-18,7.4c-7,0-13-2.3-18.1-7.4c-4.2-4.2-6.5-9.3-7-14.9
		C74.4,87.6,75.8,86.7,78.1,86.3z"/>
	<path d="M189.1,149.4c-5.7-5.8-13-8.8-20.9-8.8h-39.4c-1.3,0-2.4,0.4-3.3,1.3L100,167l-25-25c-0.9-0.9-2.1-1.4-3.3-1.4H32.3
		c-8.3,0-14.9,2.8-20.9,8.8c-5.8,5.7-8.8,13-8.8,20.9v25.1c0,2.5,2,4.6,4.6,4.6h185.6c2.6,0,4.6-2.1,4.6-4.6v-25.5
		C197.4,161.9,194.5,154.8,189.1,149.4z"/>
</g>
</svg>
