<?xml version="1.0" encoding="utf-8"?>
<!-- Generator: Adobe Illustrator 22.1.0, SVG Export Plug-In . SVG Version: 6.00 Build 0)  -->
<svg version="1.1" id="图层_1" xmlns="http://www.w3.org/2000/svg" xmlns:xlink="http://www.w3.org/1999/xlink" x="0px" y="0px"
	 viewBox="0 0 200 200" style="enable-background:new 0 0 200 200;" xml:space="preserve">
<g>
	<path d="M160.4,89.4c5.5-6.4,7.7-13.6,8.2-22.3l0,0c-0.5-10-3.6-18.2-10.5-25c-6.8-7.3-15.5-10.9-25-10.5c-8.6,0-16.4,2.7-22.7,8.2
		c-1.4,0.9-2.3,2.7-2.3,4.1c0,1.8,0.5,3.6,1.4,5c1.4,1.4,3.2,1.8,5,1.8c1.8,0.5,3.2,0,4.5-1.4c4.1-3.2,8.6-5,14.1-5
		c5.9,0,11.4,2.3,15.9,6.8c4.1,4.1,6.4,9.5,6.4,15.9l0,0c0,5.5-1.8,10-5,14.1c-0.9,1.4-1.8,2.7-1.4,4.5c0,1.8,0.9,3.2,2.3,4.5
		c1.4,0.9,3.2,1.8,5,1.4C158.1,91.7,159.5,90.8,160.4,89.4"/>
	<path d="M172.6,113.5c0,1.8,0.9,3.2,2.3,4.5c1.4,0.9,3.2,1.8,4.5,1.4c1.8,0,3.6-0.9,4.5-2.3c10.5-13.2,15.9-28.2,15.9-45
		c0-20-6.8-36.8-20.9-50.9C164.9,7.1,148.1,0.3,128.1,0.3c-17.3,0-32.3,5.5-45,15.9c-1.8,1.4-2.3,2.7-2.3,4.5
		c-0.5,1.8,0,3.2,1.4,4.5c0.9,1.4,2.3,2.3,4.1,2.3s3.6-0.5,5-1.4c10.5-8.6,22.7-13.2,36.8-13.2c16.4,0,30,5.9,41.8,17.3
		c11.4,11.4,16.8,25.5,16.8,41.8c0,13.6-4.1,26.4-12.7,36.8C173.1,110.3,172.6,111.7,172.6,113.5"/>
	<path d="M66.2,40.3C56.2,22.1,46.2,9.9,37.1,4c-5.9-3.6-10.5-4.5-14.6-3.6C18.9,1.2,15.3,4,11.7,7.6c-3.2,4.1-5.9,8.6-7.7,14.5
		c-2.3,5.5-3.6,12.3-3.6,19.1c-0.9,7.3,0.5,14.5,2.3,21.8C6.2,79,12.1,94,19.8,108.5c8.6,15,18.6,28.6,30.9,40.9
		c12.3,11.8,25.5,21.8,40.9,30.5c14.6,8.2,29.6,14.1,45,17.7c7.7,1.8,15,2.7,22.3,2.3c6.8-0.5,13.2-1.4,19.1-3.6
		c5.9-2.3,10.5-5,14.6-8.2c3.6-3.2,5.9-6.8,6.8-10.5c1.4-4.5,0-9.1-3.2-14.5c-6.4-9.5-18.2-19.1-36.8-29.1c-2.7-1.8-5.5-2.7-7.3-3.2
		c-1.8,0-3.6,0.5-5.9,1.4c-1.4,0.9-4.5,2.7-8.6,5.9c-5.5,3.6-10,6.8-14.6,9.5c-5,2.7-10.9,2.7-18.2,0.5c-2.3-0.9-4.5-1.8-6.8-3.2
		l-2.3-1.8c-2.3-1.4-4.5-3.2-7.7-5c-5.5-4.5-10-8.2-14.1-11.8c-3.6-4.1-7.7-8.6-11.8-14.5c-1.4-1.4-2.7-3.2-3.6-5l-1.4-2.3
		c-1.8-2.3-3.6-5.9-5-9.1c-2.7-7.3-2.7-13.2,0.5-18.2c2.7-4.5,5.9-9.5,9.5-14.5c3.2-4.5,5-7.3,5.9-8.6c0.9-2.3,1.4-4.5,1.4-6.4
		C69,45.8,68,43.5,66.2,40.3"/>
</g>
</svg>
