<?xml version="1.0" encoding="utf-8"?>
<!-- Generator: Adobe Illustrator 22.1.0, SVG Export Plug-In . SVG Version: 6.00 Build 0)  -->
<svg version="1.1" id="图层_1" xmlns="http://www.w3.org/2000/svg" xmlns:xlink="http://www.w3.org/1999/xlink" x="0px" y="0px"
	 viewBox="0 0 200 200" style="enable-background:new 0 0 200 200;" xml:space="preserve">
<g>
	<g>
		<g>
			<path d="M148.4,196.3c-3.3,0-6.6-0.8-9.8-2.4l-30-15.9c-3.4-1.7-5.8-2.6-8.6-2.6c-2.7,0-5.7,0.9-8.4,2.5l-30.7,16
				c-3.3,1.6-6.5,2.4-9.8,2.4c-0.4,0-0.8,0-1.2-0.1c-0.7-0.2-1.3-0.3-1.9-0.4c-1.7-0.3-3.7-0.7-6-1.9c-0.2-0.1-0.4-0.2-0.6-0.3
				c-2-1.3-4.2-2.8-6.4-5c-4.6-5.5-6-11.5-4.4-17.9l5.6-33.3c0.4-2.6,2.9-4.4,5.5-3.9c2.6,0.4,4.3,2.9,3.9,5.5l-5.7,33.7
				c-0.9,3.8-0.2,6.7,2.1,9.5c1.3,1.2,2.8,2.3,4.6,3.5c0.7,0.3,1.6,0.5,3.1,0.8c0.6,0.1,1.2,0.2,1.8,0.4c1.6-0.1,3.3-0.5,5-1.4
				l30.4-15.8c3.9-2.3,8.6-3.7,13-3.7c4.6,0,8.4,1.4,12.9,3.7l30,15.9c1.6,0.8,3.3,1.3,4.9,1.3c0.7-0.1,1.4-0.3,2.1-0.4
				c1.1-0.2,2.3-0.4,2.8-0.7c2.6-1.4,3.8-2.2,4.4-3.1c2.6-3.2,3.5-6.4,3-10.1l-5.7-33.5c-0.4-2.6,1.3-5.1,3.9-5.5
				c2.6-0.5,5.1,1.3,5.5,3.9l5.7,33.7c0.8,6.6-0.8,12.3-4.8,17.2c-1.7,2.6-4.6,4.4-7.2,5.7c-1.6,1.1-3.9,1.5-5.9,1.9
				c-0.7,0.1-1.3,0.2-2,0.4C149.2,196.3,148.8,196.3,148.4,196.3z"/>
		</g>
		<g>
			<path d="M165.6,122.6c-1.2,0-2.5-0.5-3.4-1.4c-1.8-1.9-1.8-4.9,0.1-6.7L187,90.3c1.3-1.3,2.7-3.7,3.1-5.4
				c0.5-2.3,0.4-4.3-0.3-5.6c-0.2-0.4-0.3-0.8-0.4-1.2c-0.3-1.6-1.3-3.3-2.9-4.9c-1.7-1.2-4-2.2-6.3-2.8l-33.8-5
				c-4.3-0.7-8-2.1-11.9-4.4c-0.2-0.1-0.4-0.2-0.5-0.4c-3.3-2.7-6.7-5.8-8.4-10.8l-15.1-30.2c-1-2.1-2.3-3.6-3.6-4.2
				c-2.6-1.6-4.3-2-6.8-2c-0.3,0-0.6,0-0.9-0.1c-1.7-0.3-3.7,0.5-5.4,1.3c-2,1.6-3.3,3.6-4,5.1L74.6,50.1c-2.3,4.5-5.2,7.5-7.9,10.1
				c-0.3,0.3-0.6,0.5-0.9,0.7c-3.6,2.1-7.9,3.7-12.5,4.4l-33.7,5.1c-2.1,0.4-4,1.3-6.1,2.9c-1.5,1.1-2.4,2.7-3.4,5.3
				c-0.5,1.9-0.8,3.9-0.1,5.7c0.1,0.2,0.1,0.4,0.2,0.6c0.6,2.3,1.5,4.1,2.7,5c0.2,0.1,0.4,0.3,0.5,0.4l24.1,24.1
				c1.9,1.9,1.9,4.9,0,6.7c-1.9,1.9-4.9,1.9-6.7,0L6.8,97.3c-2.7-2.2-4.7-5.5-5.8-9.8c-1.8-4.7-0.6-9.3-0.1-11.5
				c0.1-0.2,0.1-0.4,0.2-0.6c1.3-3.2,3-6.9,6.6-9.7c3.3-2.5,6.5-3.9,10.2-4.7L51.8,56c3.1-0.5,6.1-1.5,8.6-2.9
				c2.3-2.3,4.2-4.3,5.7-7.2l15.2-30.5c1.7-3.5,4.2-6.5,7.1-8.7c0.2-0.2,0.5-0.3,0.7-0.5c3-1.5,7-3.1,11.5-2.4c4,0.1,7.3,1,10.9,3.2
				c3.7,1.8,6.1,5.5,7.5,8.3l15.2,30.5c0.1,0.2,0.2,0.4,0.3,0.6c0.9,2.6,2.6,4.4,5.2,6.5c2.7,1.6,5.3,2.5,8.2,3l34.2,5.1
				c4.1,1,7.7,2.7,10.4,4.7c0.2,0.1,0.3,0.3,0.5,0.4c2.9,2.9,4.8,6.1,5.6,9.4c1.4,3.2,1.7,7,0.8,11.4c-0.9,3.5-3.2,7.5-5.8,10.1
				l-24.8,24.2C168,122.2,166.8,122.6,165.6,122.6z"/>
		</g>
	</g>
	<g>
		<g>
			<g>
				<path d="M122.9,93.9c-2.6,0-4.8-2.1-4.8-4.8v-5.1c0-2.6,2.1-4.8,4.8-4.8c2.6,0,4.8,2.1,4.8,4.8v5.1
					C127.6,91.8,125.5,93.9,122.9,93.9z"/>
			</g>
			<g>
				<path d="M77.1,93.9c-2.6,0-4.8-2.1-4.8-4.8v-5.1c0-2.6,2.1-4.8,4.8-4.8c2.6,0,4.8,2.1,4.8,4.8v5.1
					C81.9,91.8,79.8,93.9,77.1,93.9z"/>
			</g>
		</g>
		<g>
			<path d="M100,120.7c-7.9,0-15.1-4.3-19-11.4c-1.3-2.3-0.4-5.2,1.9-6.5c2.3-1.3,5.2-0.4,6.5,1.9c2.1,3.9,6.2,6.4,10.6,6.4
				s8.5-2.5,10.6-6.4c1.3-2.3,4.2-3.2,6.5-1.9c2.3,1.3,3.2,4.2,1.9,6.5C115.1,116.3,107.9,120.7,100,120.7z"/>
		</g>
	</g>
</g>
</svg>
