<?xml version="1.0" encoding="utf-8"?>
<!-- Generator: Adobe Illustrator 22.1.0, SVG Export Plug-In . SVG Version: 6.00 Build 0)  -->
<svg version="1.1" id="图层_1" xmlns="http://www.w3.org/2000/svg" xmlns:xlink="http://www.w3.org/1999/xlink" x="0px" y="0px"
	 viewBox="0 0 200 200" style="enable-background:new 0 0 200 200;" xml:space="preserve">
<style type="text/css">
	.st0{fill:none;}
	.st1{opacity:0.5;}
</style>
<g>
	<g>
		<g>
			<path class="st0" d="M95.5,109.7c-1.2-1.9-3.1-2.5-4.4-2.5c-1.9,0-3.7,0.6-5,1.9c-3.1,3.1-6.9,4.4-10.6,5c-5-0.6-8.7-1.9-12.5-5
				c-1.2-1.2-2.5-1.9-4.4-1.9s-3.7,0.6-4.4,2.5c-1.2,1.2-1.9,2.5-1.2,4.4c0,1.2,0.6,3.1,1.9,4.4c5.6,5,12.5,7.5,20,8.1h0.6
				c6.9-0.6,13.1-3.1,19.4-8.1c1.2-1.2,1.9-3.1,1.9-4.4C96.7,112.2,96.1,110.9,95.5,109.7z"/>
			<path d="M110.5,138.3c5.6-3.1,11.2-7.5,16.2-12.5c14.4-14.3,21.8-31.2,21.8-51.7s-7.5-38-21.8-52.3C111.7,7.5,94.9,0,74.3,0
				c-20,0-37.4,7.5-51.8,21.8C7.5,36.1,0,53.6,0,74.1s7.5,37.4,22.5,51.7c4.4,5,10,9.3,15.6,12.5c-5.6,3.7-11.2,8.1-16.9,13.7
				C10,163.2,2.5,176.9,0.6,192.5c-0.6,1.2,0,2.5,0.6,3.7c0,0.6,1.2,1.9,1.9,2.5c1.2,0.6,2.5,1.2,3.7,1.2h135.4
				c1.2-0.6,2.5-0.6,3.7-1.2c0.6-0.6,1.9-1.9,1.9-2.5c0.6-1.2,0.6-2.5,0.6-3.7c-3.1-15.6-10-29.3-21.2-40.5
				C122.3,146.4,116.7,142.1,110.5,138.3z M75.5,126.5h-0.6c-7.5-0.6-14.4-3.1-20-8.1c-1.2-1.2-1.9-3.1-1.9-4.4
				c-0.6-1.9,0-3.1,1.2-4.4c0.6-1.9,2.5-2.5,4.4-2.5s3.1,0.6,4.4,1.9c3.7,3.1,7.5,4.4,12.5,5c3.7-0.6,7.5-1.9,10.6-5
				c1.2-1.2,3.1-1.9,5-1.9c1.2,0,3.1,0.6,4.4,2.5c0.6,1.2,1.2,2.5,1.2,4.4c0,1.2-0.6,3.1-1.9,4.4C88.6,123.4,82.4,125.9,75.5,126.5z
				"/>
		</g>
		<path class="st1" d="M182.3,37.4c-11.2-11.2-25.6-17.5-41.8-16.8c-0.6-0.6-1.2-0.6-1.9,0c-0.6,0-1.3,0-1.3,0s0.6,0.6,1.3,1.2l0,0
			c14.3,14.3,21.8,31.8,21.8,52.3c0,11.2-2.5,22.4-7.5,31.8c-2.5,5.6-5.6,10.6-10,15c-1.2,1.9-3.1,3.7-4.4,5
			c-5,5-10.6,9.3-16.2,12.5c6.2,3.7,11.9,8.1,16.9,13.7c8.1,8.1,14.4,17.4,18.1,28h38.1c0.6,0,1.2-0.6,2.5-0.6
			c0.6-0.6,1.2-1.2,1.9-2.5c0-0.6,0.6-1.9,0-2.5c-1.9-12.5-7.5-23.7-16.8-32.4c-3.7-5-8.7-8.1-13.1-11.2c4.4-2.5,8.7-5.6,12.5-10
			c11.9-11.2,17.5-25.5,17.5-41.1C199.7,62.9,194.1,49.2,182.3,37.4"/>
	</g>
</g>
</svg>
