<?xml version="1.0" encoding="utf-8"?>
<!-- Generator: Adobe Illustrator 22.1.0, SVG Export Plug-In . SVG Version: 6.00 Build 0)  -->
<svg version="1.1" id="图层_1" xmlns="http://www.w3.org/2000/svg" xmlns:xlink="http://www.w3.org/1999/xlink" x="0px" y="0px"
	 viewBox="0 0 200 200" style="enable-background:new 0 0 200 200;" xml:space="preserve">
<g>
	<g>
		<path d="M184.7,113.1c-0.7,0-1.5-0.2-2.2-0.6c-2.3-1.2-3.2-4.1-2-6.4c3.6-6.8,5.5-15,5.5-24.2c0-14.9-4.4-26.4-14-36.3
			c-1-0.5-1.9-1.5-2.4-2.9C160,34.1,148.7,30,135.2,30h-6.7c-2.6,0-4.7-2.1-4.7-4.7s2.1-4.7,4.7-4.7h6.7c16.6,0,30.3,5.4,42,16.4
			c0.5,0.5,0.9,1.1,1.2,1.8c11.5,11.6,17,25.8,17,43.2c0,10.8-2.2,20.5-6.6,28.7C188,112.2,186.4,113.1,184.7,113.1z"/>
	</g>
	<g>
		<path d="M160.6,137.6c-1.6,0-3.1-0.8-4-2.2c-1.4-2.2-0.7-5.1,1.5-6.5c4.9-3.1,9.1-6.1,12.9-9.1c2-1.6,5-1.3,6.6,0.7
			c1.6,2,1.3,5-0.7,6.6c-4.1,3.3-8.6,6.5-13.8,9.8C162.4,137.4,161.5,137.6,160.6,137.6z"/>
	</g>
	<g>
		<path d="M194.1,181.1h-46.8c-2.6,0-4.7-2.1-4.7-4.7s2.1-4.7,4.7-4.7h40.8c-2.5-7.8-7.2-15.2-14.1-22.2c-4.7-5.1-9.8-9.1-15.7-12.4
			c-2.3-1.3-3.1-4.2-1.8-6.4c1.3-2.3,4.2-3.1,6.4-1.8c6.7,3.8,12.5,8.4,17.9,14.1c9.8,9.9,15.8,20.9,17.9,32.6
			c0.2,1.4-0.1,2.8-1,3.9C196.8,180.5,195.5,181.1,194.1,181.1z"/>
	</g>
	<g>
		<path d="M147.2,181.1c-1.8,0-3.4-1-4.3-2.7c-3.1-6.4-7.5-12.3-13-17.5c-5.6-5.8-12.6-11.4-19.9-15.8c-2.2-1.3-3-4.2-1.6-6.5
			c1.3-2.2,4.2-3,6.5-1.6c8.1,4.9,15.7,10.8,21.7,17.2c6.2,5.9,11.3,12.7,14.9,20.1c1.1,2.3,0.2,5.2-2.2,6.3
			C148.6,181,147.9,181.1,147.2,181.1z"/>
	</g>
	<g>
		<path d="M135.2,143.9l-1.9-0.2c-5-0.6-10.8-1.3-15.4-2.5c-2.5-0.7-4-3.3-3.3-5.8c0.7-2.5,3.3-4,5.8-3.3c4,1.1,9.1,1.7,14,2.2
			l1.3,0.2c8.2,0,16.4-2,22.4-5.7c2.2-1.3,5.1-0.6,6.5,1.6c1.3,2.2,0.6,5.1-1.6,6.5C155.5,141.5,145.6,143.9,135.2,143.9z"/>
	</g>
	<g>
		<path d="M153.9,200H6.7c-1.4,0-2.8-0.7-3.7-1.8c-0.9-1.1-1.2-2.6-0.9-4c3.4-14.7,10.1-27.4,21.1-39.9c8.1-7.7,15.9-13.3,24.1-17.5
			c2.3-1.2,5.2-0.2,6.4,2.1c1.2,2.3,0.3,5.2-2.1,6.4c-7.4,3.8-14.5,8.9-21.6,15.6c-8.2,9.3-13.8,18.9-17.1,29.6H148
			c-1.2-4.5-2.8-8.4-4.8-11.8c-1.3-2.3-0.6-5.1,1.7-6.5c2.2-1.3,5.1-0.6,6.5,1.7c3.4,5.7,5.7,12.2,7.3,20.4c0.3,1.4-0.1,2.8-1,3.9
			C156.7,199.4,155.3,200,153.9,200z"/>
	</g>
	<g>
		<g>
			<g>
				<path d="M76.8,123.9c-7.8,0-15-4.3-18.8-11.2c-1.3-2.3-0.4-5.2,1.9-6.4c2.3-1.3,5.2-0.4,6.4,1.9c2.1,3.9,6.2,6.3,10.5,6.3
					c4.3,0,8.4-2.4,10.5-6.3c1.3-2.3,4.1-3.1,6.4-1.9c2.3,1.3,3.1,4.1,1.9,6.4C91.8,119.6,84.6,123.9,76.8,123.9z"/>
			</g>
		</g>
		<g>
			<g>
				<path d="M77.1,151.2c-20,0-37.6-6.8-52.3-20.1c-1.9-1.8-2.1-4.7-0.3-6.7c1.8-1.9,4.8-2.1,6.7-0.3c13.1,11.9,28.1,17.7,46,17.7
					c17.8,0,33-5.9,45.2-17.6c1.9-1.8,4.9-1.7,6.7,0.2c1.8,1.9,1.7,4.9-0.2,6.7C114.8,144.4,97.4,151.2,77.1,151.2z"/>
			</g>
			<g>
				<path d="M14.1,114c-1.7,0-3.4-1-4.2-2.6C4.1,99.9,1.2,88,1.2,75.9c0-21,7.2-38.7,22.1-54.3c15-15,33.2-22.2,54-21.6
					c20.1-0.7,37.7,6.4,53.5,21.5c14.8,15.5,21.6,32.7,21.6,54.4c0,12.9-2.7,24.8-8.1,35.5c-1.2,2.3-4,3.3-6.3,2.1
					c-2.3-1.2-3.3-4-2.1-6.3c4.7-9.4,7.1-19.9,7.1-31.3c0-19.1-6-34.3-18.8-47.8C110.4,15.1,94.9,8.9,77.2,9.5
					c-18.4-0.6-34.2,5.7-47.2,18.8c-13.2,13.8-19.4,29-19.4,47.7c0,10.5,2.6,21.1,7.7,31.3c1.2,2.3,0.2,5.2-2.1,6.3
					C15.6,113.9,14.8,114,14.1,114z"/>
			</g>
		</g>
	</g>
</g>
</svg>
