<?xml version="1.0" encoding="utf-8"?>
<!-- Generator: Adobe Illustrator 22.1.0, SVG Export Plug-In . SVG Version: 6.00 Build 0)  -->
<svg version="1.1" id="图层_1" xmlns="http://www.w3.org/2000/svg" xmlns:xlink="http://www.w3.org/1999/xlink" x="0px" y="0px"
	 viewBox="0 0 200 200" style="enable-background:new 0 0 200 200;" xml:space="preserve">
<g>
	<g>
		<g>
			<path d="M100,113.2H59.3c-2.8,0-5.1-2.3-5.1-5.1s2.3-5.1,5.1-5.1H100c2.8,0,5.1,2.3,5.1,5.1S102.8,113.2,100,113.2z"/>
		</g>
		<g>
			<path d="M100,154.6c-2.8,0-5.1-2.3-5.1-5.1v-41.4c0-2.8,2.3-5.1,5.1-5.1s5.1,2.3,5.1,5.1v41.4C105.1,152.3,102.8,154.6,100,154.6
				z"/>
		</g>
		<g>
			<path d="M100,113.2c-2.8,0-5.1-2.3-5.1-5.1V67.5c0-2.8,2.3-5.1,5.1-5.1s5.1,2.3,5.1,5.1v40.7C105.1,110.9,102.8,113.2,100,113.2z
				"/>
		</g>
		<g>
			<path d="M140.7,113.2H100c-2.8,0-5.1-2.3-5.1-5.1s2.3-5.1,5.1-5.1h40.7c2.8,0,5.1,2.3,5.1,5.1S143.5,113.2,140.7,113.2z"/>
		</g>
		<g>
			<path d="M100,194.6c-27.5,0-51.3-9.9-70.7-29.3C9.9,145.9,0,122.1,0,94.6c0-27.5,9.9-51.3,29.3-70.7C35.5,16.9,44.2,10.3,53,6
				c2.5-1.2,5.6-0.2,6.8,2.3c1.3,2.5,0.2,5.6-2.3,6.8c-7.7,3.8-15.3,9.6-20.9,15.8C19,48.5,10.2,69.9,10.2,94.6
				c0,24.7,8.9,46.1,26.3,63.5c17.5,17.5,38.8,26.3,63.5,26.3c24,0,45.4-8.9,63.6-26.4c17.4-17.4,26.2-38.8,26.2-63.5
				c0-24.7-8.9-46.1-26.3-63.5c-7-7-14.1-12.6-20.5-16.1c-2.5-1.3-3.4-4.4-2-6.9c1.3-2.5,4.4-3.4,6.9-2c7.3,4,15,10,22.9,17.8
				C190.1,43.3,200,67.1,200,94.6c0,27.5-9.9,51.3-29.3,70.7C150.5,184.7,126.8,194.6,100,194.6z"/>
		</g>
	</g>
	<g>
		<g>
			<g>
				<path d="M124.4,21c-2.8,0-5.1-2.3-5.1-5.1v-5.4c0-2.8,2.3-5.1,5.1-5.1c2.8,0,5.1,2.3,5.1,5.1v5.4C129.5,18.7,127.2,21,124.4,21z
					"/>
			</g>
			<g>
				<path d="M75.6,21c-2.8,0-5.1-2.3-5.1-5.1v-5.4c0-2.8,2.3-5.1,5.1-5.1c2.8,0,5.1,2.3,5.1,5.1v5.4C80.7,18.7,78.4,21,75.6,21z"/>
			</g>
		</g>
		<g>
			<path d="M100,49.5c-8.4,0-16.2-4.6-20.2-12.1c-1.3-2.5-0.4-5.6,2-6.9c2.5-1.3,5.6-0.4,6.9,2c2.3,4.2,6.6,6.8,11.3,6.8
				c4.7,0,9-2.6,11.3-6.8c1.3-2.5,4.4-3.4,6.9-2c2.5,1.4,3.4,4.4,2,6.9C116.1,44.9,108.4,49.5,100,49.5z"/>
		</g>
	</g>
</g>
</svg>
