<?xml version="1.0" encoding="utf-8"?>
<!-- Generator: Adobe Illustrator 22.1.0, SVG Export Plug-In . SVG Version: 6.00 Build 0)  -->
<svg version="1.1" id="图层_1" xmlns="http://www.w3.org/2000/svg" xmlns:xlink="http://www.w3.org/1999/xlink" x="0px" y="0px"
	 viewBox="0 0 200 200" style="enable-background:new 0 0 200 200;" xml:space="preserve">
<style type="text/css">
	.st0{fill:none;}
</style>
<g>
	<path class="st0" d="M128.8,114.8h-15.6V67.2c0-3.1-1.4-4.5-4.5-4.5H91.3c-2.8,0-4.2,1.4-4.2,4.5v47.6H71.5c-1.4,0-2.4,0.3-3.5,1
		c-1,0.7-2.1,2.1-2.1,3.8c-0.3,1.4,0,2.8,1,4.2L95.5,162c0.3,0.3,0.7,0.7,1,1c1.4,1,2.8,1.4,4.5,1c1.4-0.3,2.8-1,3.8-2.1l28.1-37.8
		c1-1,1.4-2.4,1.4-3.8c0-1.7-0.3-3.1-1.4-4.2C131.6,115.1,130.2,114.8,128.8,114.8z"/>
	<path d="M185.4,91.1c-6.6-6.9-14.6-11.5-23.3-13.2c-1.4-13.9-7.6-25.7-17.7-36.1c-12.5-12.2-27.1-18.4-44.4-18.4
		c-17,0-31.9,6.2-44.1,18.4C45.8,51.9,39.9,64.1,38.2,78c-5.9,1.4-11.5,3.8-16.3,7.3c-2.4,1.7-4.9,3.5-6.9,5.9
		c-5.6,5.2-9.7,11.5-11.8,18.1C1,114.8,0,120.3,0,126.6c0,5.9,1,11.8,3.1,17c2.1,6.6,6.3,12.8,11.8,18.4c2.1,2.1,4.5,3.8,6.9,5.6
		c8,5.9,17.4,8.7,28.1,9h100.3c13.9-0.3,25.3-5.2,35.1-14.6c9.7-10.1,14.6-21.9,14.6-35.4C200,112.7,195.1,100.9,185.4,91.1z
		 M133,124.1L104.9,162c-1,1-2.4,1.7-3.8,2.1c-1.7,0.3-3.1,0-4.5-1c-0.3-0.3-0.7-0.7-1-1L67,123.8c-1-1.4-1.4-2.8-1-4.2
		c0-1.7,1-3.1,2.1-3.8c1-0.7,2.1-1,3.5-1h15.6V67.2c0-3.1,1.4-4.5,4.2-4.5h17.4c3.1,0,4.5,1.4,4.5,4.5v47.6h15.6
		c1.4,0,2.8,0.3,4.2,1.4c1,1,1.4,2.4,1.4,4.2C134.4,121.7,134,123.1,133,124.1z"/>
</g>
</svg>
