<?xml version="1.0" encoding="utf-8"?>
<!-- Generator: Adobe Illustrator 22.1.0, SVG Export Plug-In . SVG Version: 6.00 Build 0)  -->
<svg version="1.1" id="图层_1" xmlns="http://www.w3.org/2000/svg" xmlns:xlink="http://www.w3.org/1999/xlink" x="0px" y="0px"
	 viewBox="0 0 200 200" style="enable-background:new 0 0 200 200;" xml:space="preserve">
<style type="text/css">
	.st0{fill:none;}
</style>
<g>
	<path class="st0" d="M46.9,48.6c-3,0-5.6,0.7-7.8,3c-1.9,1.9-3,4.5-3,7.4c0,3,1.1,5.6,3,7.4c2.2,2.2,4.8,3.4,7.8,3.4
		c3,0,5.6-1.1,7.4-3.4c2.2-1.9,3.4-4.5,3.4-7.4c0-3-1.1-5.6-3.4-7.4C52.5,49.3,49.9,48.6,46.9,48.6z"/>
	<path class="st0" d="M96.5,69.8c3,0,5.2-1.1,7.4-3.4c2.2-1.9,3.4-4.5,3.4-7.4c0-3-1.1-5.6-3.4-7.4c-2.2-2.2-4.5-3-7.4-3
		c-3,0-5.6,0.7-7.8,3c-1.9,1.9-3,4.5-3,7.4c0,3,1.1,5.6,3,7.4C90.9,68.7,93.5,69.8,96.5,69.8z"/>
	<path class="st0" d="M159.8,98.5c-2.6,0-4.5,1.1-6.3,2.6c-1.5,1.9-2.2,4.1-2.2,6.3c0,2.6,0.7,4.5,2.2,6.3c1.9,1.5,3.7,2.6,6.3,2.6
		c2.6,0,4.8-1.1,6.3-2.6c1.9-1.9,2.6-3.7,2.6-6.3c0-2.2-0.7-4.5-2.6-6.3C164.6,99.6,162.4,98.5,159.8,98.5z"/>
	<path class="st0" d="M120.3,98.5c-2.6,0-4.5,1.1-6.3,2.6c-1.5,1.9-2.6,4.1-2.6,6.3c0,2.6,1.1,4.5,2.6,6.3c1.9,1.5,3.7,2.6,6.3,2.6
		c2.2,0,4.5-1.1,6-2.6c1.9-1.9,2.6-3.7,2.6-6.3c0-2.2-0.7-4.5-2.6-6.3C124.8,99.6,122.5,98.5,120.3,98.5z"/>
	<path d="M92.7,83.6c13-11.2,28.7-16.8,47.3-16.8c0.7,0,1.5,0,2.2,0c-3-11.5-9.3-22-19.7-30.9c-14.2-11.9-30.9-17.9-51-17.9
		c-19.7,0-36.5,6-50.7,17.9C6.7,48.2,0,62.4,0,79.5c0,16.8,6.7,31.3,20.9,43.2c2.2,1.9,4.5,3.7,6.7,5.2l-6.7,21.2l23.1-12.7
		c8.6,3,17.9,4.5,27.6,4.5c1.5,0,3,0,4.8,0c-2.2-5.2-3-11.2-3-17.1C73.4,108.2,80.1,94.8,92.7,83.6z M88.6,51.6c2.2-2.2,4.8-3,7.8-3
		c3,0,5.2,0.7,7.4,3c2.2,1.9,3.4,4.5,3.4,7.4c0,3-1.1,5.6-3.4,7.4c-2.2,2.2-4.5,3.4-7.4,3.4c-3,0-5.6-1.1-7.8-3.4
		c-1.9-1.9-3-4.5-3-7.4C85.7,56.1,86.8,53.4,88.6,51.6z M54.4,66.5c-1.9,2.2-4.5,3.4-7.4,3.4c-3,0-5.6-1.1-7.8-3.4
		c-1.9-1.9-3-4.5-3-7.4c0-3,1.1-5.6,3-7.4c2.2-2.2,4.8-3,7.8-3c3,0,5.6,0.7,7.4,3c2.2,1.9,3.4,4.5,3.4,7.4
		C57.7,62,56.6,64.6,54.4,66.5z"/>
	<path d="M200,123.8c0-14.2-5.6-26.4-17.5-36.5C171,77.3,156.8,72.4,140,72.4s-30.9,4.8-42.5,14.9c-11.9,10.1-17.5,22.3-17.5,36.5
		c0,14.2,5.6,26.1,17.5,36.1c11.5,10.4,25.7,15.3,42.5,15.3c8.6,0,16-1.1,23.5-3.7l19.4,10.4l-5.6-17.5c1.9-1.5,3.7-3,5.2-4.5
		C194.4,149.9,200,138,200,123.8z M126.3,113.8c-1.5,1.5-3.7,2.6-6,2.6c-2.6,0-4.5-1.1-6.3-2.6c-1.5-1.9-2.6-3.7-2.6-6.3
		c0-2.2,1.1-4.5,2.6-6.3c1.9-1.5,3.7-2.6,6.3-2.6c2.2,0,4.5,1.1,6,2.6c1.9,1.9,2.6,4.1,2.6,6.3C128.9,110.1,128.1,111.9,126.3,113.8
		z M166.1,113.8c-1.5,1.5-3.7,2.6-6.3,2.6c-2.6,0-4.5-1.1-6.3-2.6c-1.5-1.9-2.2-3.7-2.2-6.3c0-2.2,0.7-4.5,2.2-6.3
		c1.9-1.5,3.7-2.6,6.3-2.6c2.6,0,4.8,1.1,6.3,2.6c1.9,1.9,2.6,4.1,2.6,6.3C168.7,110.1,168,111.9,166.1,113.8z"/>
</g>
</svg>
