<?xml version="1.0" encoding="utf-8"?>
<!-- Generator: Adobe Illustrator 22.1.0, SVG Export Plug-In . SVG Version: 6.00 Build 0)  -->
<svg version="1.1" id="图层_1" xmlns="http://www.w3.org/2000/svg" xmlns:xlink="http://www.w3.org/1999/xlink" x="0px" y="0px"
	 viewBox="0 0 200 200" style="enable-background:new 0 0 200 200;" xml:space="preserve">
<style type="text/css">
	.st0{fill:none;}
</style>
<g>
	<path class="st0" d="M104.5,115c3.2-4.2,6.9-6.5,11.1-6l0.9-2.3H98.1l-0.9,2.3c5.1-0.5,6.9,0.9,6,3.7c-0.5,0.9-0.9,1.9-1.8,3.2
		l-16.2,22.7l-2.8-25.4c0-1.4,0-2.3,0-2.8c0.5-0.9,0.9-1.4,2.3-1.4c0.5-0.5,1.8-0.5,4.2,0l0.5-2.3h-24l-0.9,2.3
		c3.2-0.5,5.1,1.4,5.5,5.1l3.2,38.8h4.2l22.8-31.7L104.5,115z"/>
	<path class="st0" d="M100.8,148.2l5.5-16.6c0.5-1.9,1.4-2.8,2.3-2.8h1.4l0.5-0.9h-12l-0.5,0.9H99c0.5,0,0.9,0.5,0.9,0.9
		c0.5,0.9,0,1.4,0,1.9l-5.5,16.6c-0.5,1.9-1.8,2.8-2.8,2.8h-1.4l-0.5,1.4h12.5l0.5-1.4h-1.4C100.4,151,99.9,150.1,100.8,148.2z"/>
	<path class="st0" d="M132.3,129.3c-1.4-1.4-3.7-1.9-7.4-1.4h-12v0.9c0.9,0,1.4,0,1.8,0.5c0.5,0.5,0.5,0.9,0,1.8l-6,17.6
		c-0.5,1.9-1.8,2.8-3.7,2.8l-0.5,0.9h12.9v-0.9c-0.9,0-1.8,0-1.8-0.5c-0.5-0.5-0.5-0.9-0.5-2.3l2.3-6.9c4.6,0,7.4,0,9.7-0.5
		c2.8-1.4,5.1-3.2,6-6.5C134.1,132.1,134.1,130.2,132.3,129.3z M126.7,134.8c-0.5,1.9-1.4,2.8-2.8,4.2c-1.4,0.9-2.8,1.4-3.7,1.9
		h-2.3l3.2-9.7c0.5-0.5,0.5-0.9,0.9-1.4c0.9-0.5,1.4-0.9,1.4-0.9C127.2,128.8,128.1,131.1,126.7,134.8z"/>
	<path d="M123.6,129.1c-0.4,0-0.9,0.1-1.4,0.7c-0.5,0.5-0.6,0.7-0.9,1.4l-3.2,9.7h2.3c1.9-0.3,2.6-0.7,3.6-1.8c0,0,0.1-0.1,0.1-0.1
		c1.3-1.4,2-2.3,2.7-4.1c1.4-3.7,1-5.8-2.7-5.8C124,129.1,123.6,129.1,123.6,129.1z"/>
	<path d="M155.9,172.3c-0.9-1.4-2.3-1.9-4.2-1.9H46.3c-1.4,0-2.8,0.5-3.7,1.9c-1.4,0.9-1.8,2.3-1.8,3.7c0,1.9,0.5,3.2,1.8,4.2
		c0.9,1.4,2.3,1.8,3.7,1.8h105.4c1.8,0,3.2-0.5,4.2-1.8c1.4-0.9,1.8-2.3,1.8-4.2C157.7,174.6,157.2,173.2,155.9,172.3z"/>
	<path d="M178.4,49.1c-10.4,0.1-19.3,8.2-20.6,18.6c-0.5,4.4,0.5,8.5,2.3,12.1l-27.5,14.8l-23.1-33.8c6.4-3.7,10.7-10.5,10.6-18.5
		c-0.2-10.9-9-20-19.8-20.6c-12.1-0.7-22.2,9-22.2,21c0,7.8,4.3,14.5,10.6,18.1L65.7,94.6L39,80.2c2-3.6,3.1-7.7,2.6-12.2
		c-1.1-10.5-9.9-18.7-20.5-18.9c-11.8-0.2-21.4,9.3-21.4,21c0,11.6,9.4,21,21,21c0.6,0,1.1-0.1,1.7-0.2l18.3,68.5
		c0,0.9,0.9,2.3,2.3,2.8c0.9,0.9,2.3,1.4,3.2,1.4h105.4c1.4,0,2.3-0.5,3.7-1.4c0.9-0.5,1.9-1.9,1.9-2.8l18.8-68.5
		c0.9,0.1,1.7,0.3,2.6,0.3c11.6,0,21-9.4,21-21C199.7,58.4,190.1,48.9,178.4,49.1z M73.1,152.9L69.9,114c-0.5-3.7-2.3-5.5-5.5-5.1
		l0.9-2.3h24l-0.5,2.3c-2.3-0.5-2.8-0.3-4.2-0.3c-1.4,0.1-2.1,0.5-2.2,1.7c0,0.5,0,1.4,0,2.8l2.8,25.4l16.2-22.7
		c0.9-1.4,1.4-2.3,1.8-3.2c0.9-2.8-0.9-4.2-6-3.7l0.9-2.3h18.5l-0.9,2.3c-4.2-0.5-7.9,1.9-11.1,6l-4.5,6.2l-22.8,31.7H73.1z
		 M102.2,152.4H89.7l0.5-1.4h1.4c0.9,0,2.3-0.9,2.8-2.8l5.5-16.6c0.1-0.4,0.1-1,0.1-1.9c-0.1-0.5-0.6-0.9-1-0.9h-0.9l0.5-0.9h12
		l-0.5,0.9h-1.4c-0.9,0-1.8,0.9-2.3,2.8l-5.5,16.6c-0.9,1.9-0.5,2.8,0.5,2.8h1.4L102.2,152.4z M133.2,134.8c-0.9,3.2-3.2,5.1-6,6.5
		c-2.3,0.5-5.1,0.5-9.7,0.5l-2.3,6.9c-0.1,0.5-0.2,0.9-0.2,1.3c0,0.7,0.5,1.3,1.2,1.4c0.4,0.1,0.8,0.1,1.3,0.1v0.9h-12.9l0.5-0.9
		c1.9,0,3.2-0.9,3.7-2.8l6-17.6c0.3-1.1,0.5-1.4,0-1.8c-0.5-0.5-0.9-0.5-1.8-0.5v-0.9h12c3.4,0,5-0.1,7.4,1.4
		C133.8,130.2,134.1,132.1,133.2,134.8z"/>
</g>
</svg>
