<?xml version="1.0" encoding="utf-8"?>
<!-- Generator: Adobe Illustrator 22.1.0, SVG Export Plug-In . SVG Version: 6.00 Build 0)  -->
<svg version="1.1" id="图层_1" xmlns="http://www.w3.org/2000/svg" xmlns:xlink="http://www.w3.org/1999/xlink" x="0px" y="0px"
	 viewBox="0 0 200 200" style="enable-background:new 0 0 200 200;" xml:space="preserve">
<g>
	<g>
		<path d="M123.9,98.1c0.4-1.6-0.8-2.7-3.1-2.7H79c-1.9,0-3.1,1.2-2.7,3.1c0.4,5.1,2.7,9.7,6.6,13.6c4.7,5.1,10.5,7,17.2,7.4
			c6.6-0.4,12.1-2.3,16.8-7.4c4.3-3.9,6.6-8.6,7-13.6L123.9,98.1"/>
	</g>
	<g>
		<path d="M99.9,168.2c-18.2,0-34.2-6.5-47.5-19.4c-13.1-13.1-19.5-28.8-19.5-48c0-18.9,6.4-34.5,19.5-47.6l0,0
			c13-13.1,28.6-19.5,47.5-19.5s34.5,6.4,47.6,19.5c13.2,13.2,19.9,29.2,19.9,47.6c0,18.9-6.5,34.6-19.9,48
			C134.1,161.7,118.1,168.2,99.9,168.2z M57.8,58.7C46.3,70.3,40.6,84,40.6,100.8c0,17,5.6,30.9,17.2,42.5
			c11.9,11.5,25.7,17.2,42.1,17.2s30.2-5.6,42.1-17.2c11.8-11.8,17.5-25.7,17.5-42.4c0-16.5-5.7-30.3-17.6-42.1
			c-11.6-11.6-25.3-17.2-42.1-17.2C83.1,41.5,69.4,47.1,57.8,58.7L57.8,58.7z"/>
	</g>
	<g>
		<path d="M161.4,44.3c-1,0-1.9-0.4-2.7-1.1c-1.6-1.5-1.6-3.9-0.2-5.5l6.2-6.6c1.5-1.6,3.9-1.6,5.5-0.2c1.6,1.5,1.6,3.9,0.2,5.5
			l-6.2,6.6C163.5,43.8,162.4,44.3,161.4,44.3z"/>
	</g>
	<g>
		<path d="M38.2,44.3c-1,0-1.9-0.4-2.7-1.1L28.9,37c-1.6-1.5-1.6-3.9-0.2-5.5c1.5-1.6,3.9-1.6,5.5-0.2l6.6,6.2
			c1.6,1.5,1.6,3.9,0.2,5.5C40.3,43.8,39.2,44.3,38.2,44.3z"/>
	</g>
	<g>
		<path d="M115.3,197.5H84.9c-2.2,0-3.9-1.7-3.9-3.9s1.7-3.9,3.9-3.9h30.4c2.2,0,3.9,1.7,3.9,3.9
			C119.2,195.7,117.4,197.5,115.3,197.5z"/>
	</g>
	<g>
		<path d="M124.3,183.4H75.9c-2.2,0-3.9-1.7-3.9-3.9s1.7-3.9,3.9-3.9h48.3c2.2,0,3.9,1.7,3.9,3.9
			C128.2,181.7,126.4,183.4,124.3,183.4z"/>
	</g>
	<g>
		<path d="M12.9,105.8h-9c-2.2,0-3.9-1.7-3.9-3.9C0,99.7,1.7,98,3.9,98h9c2.2,0,3.9,1.7,3.9,3.9C16.8,104.1,15,105.8,12.9,105.8z"/>
	</g>
	<g>
		<path d="M196.1,104.7h-9c-2.2,0-3.9-1.7-3.9-3.9c0-2.2,1.7-3.9,3.9-3.9h9c2.2,0,3.9,1.7,3.9,3.9
			C200,102.9,198.3,104.7,196.1,104.7z"/>
	</g>
	<g>
		<path d="M100.2,19.3c-2.2,0-3.9-1.7-3.9-3.9v-9c0-2.2,1.7-3.9,3.9-3.9s3.9,1.7,3.9,3.9v9C104.1,17.6,102.3,19.3,100.2,19.3z"/>
	</g>
	<g>
		<g>
			<path d="M82.7,77.5c0,3.7-3,6.8-6.8,6.8s-6.8-3-6.8-6.8c0-3.7,3-6.8,6.8-6.8C79.7,70.8,82.7,73.8,82.7,77.5z"/>
		</g>
		<g>
			<path d="M131,77.5c0,3.7-3,6.8-6.8,6.8s-6.8-3-6.8-6.8c0-3.7,3-6.8,6.8-6.8C128,70.8,131,73.8,131,77.5z"/>
		</g>
	</g>
</g>
</svg>
