<?xml version="1.0" encoding="utf-8"?>
<!-- Generator: Adobe Illustrator 22.1.0, SVG Export Plug-In . SVG Version: 6.00 Build 0)  -->
<svg version="1.1" id="图层_1" xmlns="http://www.w3.org/2000/svg" xmlns:xlink="http://www.w3.org/1999/xlink" x="0px" y="0px"
	 viewBox="0 0 200 200" style="enable-background:new 0 0 200 200;" xml:space="preserve">
<g>
	<g>
		<g>
			<path d="M138.1,147c-1.7,0-3.3-0.9-4.1-2.4c-1.3-2.3-0.5-5.2,1.8-6.5c4.2-2.4,8.4-5.4,12.6-9c7.8-7.8,11.7-17.3,11.7-28.8
				c0-11.7-3.7-20.8-12-29.8c-4.2-3.6-8.2-6.2-11.7-7.8c-2.4-1-3.5-3.8-2.5-6.3c1-2.4,3.8-3.5,6.3-2.5c4.5,1.9,9.2,5.1,14.6,9.7
				c10.3,11,15,22.6,15,36.6c0,14-5,26-14.7,35.8c-4.9,4.2-9.6,7.6-14.3,10.3C139.7,146.8,138.9,147,138.1,147z"/>
		</g>
		<g>
			<path d="M107,192.1c-1,0-2-0.3-2.8-0.9l-58.4-43.5H30.8C10.9,147.6,0,136.9,0,117.5V82.5c0-20.1,10.6-30.8,30.8-30.8h14.9
				l58.4-42.9c1.4-1.1,3.4-1.2,5-0.4s2.6,2.5,2.6,4.2V73c0,2.6-2.1,4.8-4.8,4.8c-2.6,0-4.8-2.1-4.8-4.8V22.1L50.1,60.3
				c-0.8,0.6-1.8,0.9-2.8,0.9H30.8c-14.9,0-21.3,6.4-21.3,21.3v34.9c0,14.3,6.6,20.6,21.3,20.6h16.5c1,0,2,0.3,2.8,0.9l52.1,38.8
				v-52.1c0-2.6,2.1-4.8,4.8-4.8c2.6,0,4.8,2.1,4.8,4.8v61.6c0,1.8-1,3.4-2.6,4.3C108.4,191.9,107.7,192.1,107,192.1z"/>
		</g>
		<g>
			<path d="M147.6,179.4c-1.7,0-3.4-1-4.3-2.6c-1.2-2.3-0.2-5.2,2.1-6.4c9.1-4.5,16.1-9.5,22.2-15.6c15.3-15.9,22.7-33.7,22.7-54.4
				c0-21.3-7.4-39.1-22.7-54.4c-6.3-6.9-13.3-11.7-22-15.5c-2.4-1-3.5-3.8-2.5-6.3c1-2.4,3.8-3.5,6.3-2.5c10,4.3,18,9.9,25.1,17.7
				c16.8,16.8,25.4,37.4,25.4,61c0,23-8.6,43.5-25.5,61.1c-6.9,6.9-14.8,12.5-24.8,17.5C149.1,179.2,148.3,179.4,147.6,179.4z"/>
		</g>
	</g>
	<g>
		<g>
			<g>
				<path d="M75.3,93.9c-2.6,0-4.8-2.1-4.8-4.8v-5.1c0-2.6,2.1-4.8,4.8-4.8c2.6,0,4.8,2.1,4.8,4.8v5.1
					C80.1,91.8,77.9,93.9,75.3,93.9z"/>
			</g>
			<g>
				<path d="M29.6,93.9c-2.6,0-4.8-2.1-4.8-4.8v-5.1c0-2.6,2.1-4.8,4.8-4.8s4.8,2.1,4.8,4.8v5.1C34.4,91.8,32.2,93.9,29.6,93.9z"/>
			</g>
		</g>
		<g>
			<path d="M52.5,120.7c-7.9,0-15.1-4.3-18.9-11.3c-1.3-2.3-0.4-5.2,1.9-6.5c2.3-1.3,5.2-0.4,6.5,1.9c2.1,3.9,6.2,6.4,10.6,6.4
				s8.4-2.4,10.6-6.4c1.3-2.3,4.2-3.2,6.5-1.9c2.3,1.3,3.1,4.2,1.9,6.5C67.6,116.3,60.3,120.7,52.5,120.7z"/>
		</g>
	</g>
</g>
</svg>
