<?xml version="1.0" encoding="utf-8"?>
<!-- Generator: Adobe Illustrator 22.1.0, SVG Export Plug-In . SVG Version: 6.00 Build 0)  -->
<svg version="1.1" id="图层_1" xmlns="http://www.w3.org/2000/svg" xmlns:xlink="http://www.w3.org/1999/xlink" x="0px" y="0px"
	 viewBox="0 0 200 200" style="enable-background:new 0 0 200 200;" xml:space="preserve">
<g>
	<g>
		<path d="M71.9,115.2c-2.9,0-4.3,1.4-4.3,3.8c1,7.6,4.3,13.8,9.5,19c6.7,6.7,14.3,9.5,23.3,10c9-0.5,16.7-3.3,22.9-10
			c5.7-5.2,8.6-11.4,9.5-19c0.5-2.4-1-3.8-4.3-3.8H71.9"/>
	</g>
	<g>
		<path d="M195.2,174.8c-2.6,0-4.8-2.1-4.8-4.8V72.9c0-14-5.8-20-19.5-20h-13.8c-2.6,0-4.8-2.1-4.8-4.8c0-2.6,2.1-4.8,4.8-4.8H171
			c19,0,29,10.2,29,29.5V170C200,172.6,197.9,174.8,195.2,174.8z"/>
	</g>
	<g>
		<path d="M171,200H29c-18.7,0-29-10.7-29-30c0-2.6,2.1-4.8,4.8-4.8s4.8,2.1,4.8,4.8c0,14.2,6,20.5,19.5,20.5H171
			c13.5,0,19.5-6.3,19.5-20.5c0-2.6,2.1-4.8,4.8-4.8s4.8,2.1,4.8,4.8C200,189.3,189.7,200,171,200z"/>
	</g>
	<g>
		<path d="M4.8,174.8c-2.6,0-4.8-2.1-4.8-4.8V72.9c0-19.3,10-29.5,29-29.5h13.8c2.6,0,4.8,2.1,4.8,4.8c0,2.6-2.1,4.8-4.8,4.8H29
			C15.3,53,9.5,59,9.5,73v97C9.5,172.6,7.4,174.8,4.8,174.8z"/>
	</g>
	<g>
		<path d="M42.9,61.9c-2.6,0-4.8-2.1-4.8-4.8v-9c0-2.6,2.1-4.8,4.8-4.8c2.6,0,4.8,2.1,4.8,4.8v9C47.6,59.8,45.5,61.9,42.9,61.9z"/>
	</g>
	<g>
		<path d="M195.2,174.8H4.8c-2.6,0-4.8-2.1-4.8-4.8s2.1-4.8,4.8-4.8h190.5c2.6,0,4.8,2.1,4.8,4.8S197.9,174.8,195.2,174.8z"/>
	</g>
	<g>
		<path d="M157.1,52.9H42.9c-2.6,0-4.8-2.1-4.8-4.8c0-2.6,2.1-4.8,4.8-4.8h114.3c2.6,0,4.8,2.1,4.8,4.8
			C161.9,50.7,159.8,52.9,157.1,52.9z"/>
	</g>
	<g>
		<path d="M157.1,52.9c-2.6,0-4.8-2.1-4.8-4.8V35.7c0-17.9-8.3-26.2-26.2-26.2H74.3c-18.2,0-26.7,8.3-26.7,26.2v12.4
			c0,2.6-2.1,4.8-4.8,4.8c-2.6,0-4.8-2.1-4.8-4.8V35.7C38.1,12.7,50.9,0,74.3,0h51.9c23,0,35.7,12.7,35.7,35.7v12.4
			C161.9,50.7,159.8,52.9,157.1,52.9z"/>
	</g>
	<g>
		<g>
			<path d="M76.8,90.7c0,5.1-4.1,9.2-9.2,9.2s-9.2-4.1-9.2-9.2s4.1-9.2,9.2-9.2C72.7,81.5,76.8,85.6,76.8,90.7z"/>
		</g>
		<g>
			<path d="M142.1,90.7c0,5.1-4.1,9.2-9.2,9.2c-5.1,0-9.2-4.1-9.2-9.2s4.1-9.2,9.2-9.2C138,81.5,142.1,85.6,142.1,90.7z"/>
		</g>
	</g>
</g>
</svg>
