<?xml version="1.0" encoding="utf-8"?>
<!-- Generator: Adobe Illustrator 22.1.0, SVG Export Plug-In . SVG Version: 6.00 Build 0)  -->
<svg version="1.1" id="图层_1" xmlns="http://www.w3.org/2000/svg" xmlns:xlink="http://www.w3.org/1999/xlink" x="0px" y="0px"
	 viewBox="0 0 200 200" style="enable-background:new 0 0 200 200;" xml:space="preserve">
<style type="text/css">
	.st0{clip-path:url(#SVGID_2_);fill:#44AD3E;}
</style>
<g>
	<g>
		<defs>
			<rect id="SVGID_1_" y="8.2" width="200" height="183.7"/>
		</defs>
		<clipPath id="SVGID_2_">
			<use xlink:href="#SVGID_1_"  style="overflow:visible;"/>
		</clipPath>
		<path class="st0" d="M189.1,55.8c7.5,11.7,10.8,25.8,10.8,40c0,48.3-45,87.5-100,87.5c-13.3,0-25.8-2.5-37.5-6.7l-27.5,15
			c-0.8,0-1.7,0-2.5-0.8v-1.7l5-25C14.1,147.4,0,123.3,0,95.8C0,47.4,45,8.3,100,8.3c34.2,0,64.2,15,81.7,37.5L79.1,92.4
			c-2.5,0.8-5,0.8-7.5-0.8L48.3,74.1c-1.7-1.7-3.3-0.8-4.2,0c-0.8,0.8-0.8,2.5-0.8,3.3L65,123.3c0.8,2.5,4.2,3.3,6.7,2.5h0.8
			L189.1,55.8z M189.1,55.8"/>
	</g>
</g>
</svg>
