<?xml version="1.0" encoding="utf-8"?>
<!-- Generator: Adobe Illustrator 22.1.0, SVG Export Plug-In . SVG Version: 6.00 Build 0)  -->
<svg version="1.1" id="图层_1" xmlns="http://www.w3.org/2000/svg" xmlns:xlink="http://www.w3.org/1999/xlink" x="0px" y="0px"
	 viewBox="0 0 200 200" style="enable-background:new 0 0 200 200;" xml:space="preserve">
<g>
	<g>
		<g>
			<path d="M34.7,194.2c-23.8-1.4-36-15.9-34.6-40.6l0-40.4c0-34.4,20.9-41.6,38.4-41.6h9.5c2.6,0,4.8,2.1,4.8,4.8v87
				c0,2.6-2.1,4.8-4.8,4.8s-4.8-2.1-4.8-4.8V81.2h-4.8c-19.7,0-28.9,10.2-28.9,32.1v40.7c-1.1,20,6.9,29.7,25.4,30.8l110.2,0
				c14.7-0.5,23.8-8.3,28.5-24.5l14.6-50.8c2.8-10.1,2.9-17.2,0.4-21.8c-1.6-2.7-5.1-6.4-16.2-6.4h-54c-1.5,0-2.9-0.7-3.8-1.8
				c-0.9-1.2-1.2-2.7-0.9-4.1l8.9-34.9c2-5.9,2-10.1,0.3-14c-1.6-4.7-4.3-7.6-9-9.6c-5.1-1.7-9.4-1.7-13.3,0
				c-4.1,1.5-7.5,4.9-8.9,8.8L74.8,77.9c-0.8,2.5-3.5,3.9-6,3.1c-2.5-0.8-3.9-3.5-3.1-6l17.2-52.7c2.5-6.6,7.9-12,14.3-14.4
				c5.9-2.6,12.4-2.7,20.3-0.1c7.6,3.3,12.2,8.2,14.4,15.1c2.6,5.7,2.6,12.3,0,20.2l-7.3,28.7h47.9c11.9,0,19.9,3.7,24.4,11.2
				c3.9,7,4,16.5,0.5,29.1l-14.6,50.9c-5.7,20.1-18.3,30.7-37.4,31.4L34.7,194.2z"/>
		</g>
	</g>
	<g>
		<g>
			<g>
				<path d="M159,113.7c-2.6,0-4.8-2.1-4.8-4.8v-5.1c0-2.6,2.1-4.8,4.8-4.8c2.6,0,4.8,2.1,4.8,4.8v5.1
					C163.8,111.6,161.6,113.7,159,113.7z"/>
			</g>
			<g>
				<path d="M113.3,113.7c-2.6,0-4.8-2.1-4.8-4.8v-5.1c0-2.6,2.1-4.8,4.8-4.8c2.6,0,4.8,2.1,4.8,4.8v5.1
					C118,111.6,115.9,113.7,113.3,113.7z"/>
			</g>
		</g>
		<g>
			<path d="M136.1,140.4c-7.9,0-15.1-4.3-19-11.3c-1.3-2.3-0.4-5.2,1.9-6.5c2.3-1.3,5.2-0.4,6.5,1.9c2.1,3.9,6.2,6.4,10.6,6.4
				s8.5-2.4,10.6-6.4c1.3-2.3,4.2-3.2,6.5-1.9c2.3,1.3,3.2,4.2,1.9,6.5C151.3,136.1,144,140.4,136.1,140.4z"/>
		</g>
	</g>
</g>
</svg>
