<?xml version="1.0" encoding="utf-8"?>
<!-- Generator: Adobe Illustrator 22.1.0, SVG Export Plug-In . SVG Version: 6.00 Build 0)  -->
<svg version="1.1" id="图层_1" xmlns="http://www.w3.org/2000/svg" xmlns:xlink="http://www.w3.org/1999/xlink" x="0px" y="0px"
	 viewBox="0 0 200 200" style="enable-background:new 0 0 200 200;" xml:space="preserve">
<g>
	<g>
		<g>
			<path d="M154.9,176.9h-21.7c-2.6,0-4.8-2.1-4.8-4.8c0-2.6,2.1-4.8,4.8-4.8h21.7c2.6,0,4.8,2.1,4.8,4.8
				C159.7,174.8,157.6,176.9,154.9,176.9z"/>
		</g>
		<g>
			<path d="M177.3,176.9h-22.4c-2.6,0-4.8-2.1-4.8-4.8c0-2.6,2.1-4.8,4.8-4.8h22.4c2.6,0,4.8,2.1,4.8,4.8
				C182.1,174.8,179.9,176.9,177.3,176.9z"/>
		</g>
		<g>
			<path d="M154.9,176.9c-2.6,0-4.8-2.1-4.8-4.8v-21.7c0-2.6,2.1-4.8,4.8-4.8s4.8,2.1,4.8,4.8v21.7
				C159.7,174.8,157.6,176.9,154.9,176.9z"/>
		</g>
		<g>
			<path d="M154.9,199.3c-2.6,0-4.8-2.1-4.8-4.8v-22.4c0-2.6,2.1-4.8,4.8-4.8s4.8,2.1,4.8,4.8v22.4
				C159.7,197.1,157.6,199.3,154.9,199.3z"/>
		</g>
		<g>
			<path d="M110.9,200H22.7c-1.5,0-2.8-0.7-3.7-1.8c-0.9-1.1-1.3-2.6-0.9-4c3.3-14.6,11.1-28.1,23-40c7.7-7.7,15-13.2,22.3-16.9
				c2.4-1.2,5.2-0.2,6.4,2.1c1.2,2.4,0.2,5.2-2.1,6.4c-6.4,3.2-12.9,8.1-19.8,15.1c-9,9-15.3,18.9-18.8,29.5h81.9
				c2.6,0,4.8,2.1,4.8,4.8S113.5,200,110.9,200z"/>
		</g>
	</g>
	<g>
		<g>
			<g>
				<path d="M97,125.7c-7.9,0-15.2-4.4-19.1-11.4c-1.3-2.3-0.4-5.2,1.9-6.5c2.3-1.3,5.2-0.4,6.5,1.9c2.2,3.9,6.2,6.4,10.7,6.4
					c4.4,0,8.5-2.5,10.7-6.4c1.3-2.3,4.2-3.2,6.5-1.9c2.3,1.3,3.2,4.2,1.9,6.5C112.2,121.3,104.9,125.7,97,125.7z"/>
			</g>
		</g>
		<g>
			<g>
				<path d="M97.3,153.4c-20.3,0-38.2-6.9-53.1-20.4c-2-1.8-2.1-4.8-0.3-6.8c1.8-2,4.8-2.1,6.8-0.3c13.3,12.1,28.5,17.9,46.6,17.9
					c18,0,33.5-6,45.9-17.8c1.9-1.8,4.9-1.8,6.8,0.2c1.8,1.9,1.8,5-0.2,6.8C135.6,146.5,117.9,153.4,97.3,153.4z"/>
			</g>
			<g>
				<path d="M33.5,115.7c-1.8,0-3.4-1-4.3-2.6c-5.8-11.7-8.8-23.8-8.8-36c0-21.3,7.3-39.3,22.4-55.1C58,6.7,76.5-0.6,97.5,0
					c20.4-0.7,38.2,6.5,54.3,21.8c15,15.7,21.9,33.2,21.9,55.2c0,13-2.7,25.2-8.2,36c-1.2,2.4-4.1,3.3-6.4,2.1
					c-2.4-1.2-3.3-4.1-2.1-6.4c4.7-9.5,7.2-20.2,7.2-31.7c0-19.4-6.1-34.8-19.1-48.4c-13.9-13.3-29.5-19.5-47.5-19
					c-18.7-0.6-34.7,5.8-47.9,19C36.2,42.7,29.9,58.1,29.9,77c0,10.7,2.6,21.4,7.8,31.7c1.2,2.4,0.2,5.2-2.1,6.4
					C34.9,115.5,34.2,115.7,33.5,115.7z"/>
			</g>
		</g>
	</g>
</g>
</svg>
