<?xml version="1.0" encoding="utf-8"?>
<!-- Generator: Adobe Illustrator 22.1.0, SVG Export Plug-In . SVG Version: 6.00 Build 0)  -->
<svg version="1.1" id="图层_1" xmlns="http://www.w3.org/2000/svg" xmlns:xlink="http://www.w3.org/1999/xlink" x="0px" y="0px"
	 viewBox="0 0 200 200" style="enable-background:new 0 0 200 200;" xml:space="preserve">
<g>
	<g>
		<g>
			<path d="M141.3,165.7c-0.6,0-1.3-0.1-1.9-0.4c-2.4-1.1-3.5-3.9-2.4-6.3c2.2-5,3.4-10.7,3.4-16.5c0-11.3-3.8-20.9-11.3-28.4
				c-8-8-17.5-11.9-29-11.9c-10.9,0-20.5,4-28.4,11.9c-8,7.4-11.9,16.9-11.9,28.4c0,5.8,1.2,11.5,3.4,16.5c1.1,2.4,0,5.2-2.4,6.3
				c-2.4,1.1-5.2,0-6.3-2.4c-2.8-6.2-4.2-13.2-4.2-20.3c0-14.2,5-26.1,14.9-35.2c9.6-9.7,21.5-14.6,35-14.6c14,0,26,5,35.7,14.7
				c9.2,9.2,14.1,21.4,14.1,35.1c0,7.1-1.5,14.1-4.2,20.3C144.8,164.7,143.1,165.7,141.3,165.7z"/>
		</g>
		<g>
			<path d="M41,69.8H26.3c-2.6,0-4.8-2.1-4.8-4.8c0-2.6,2.1-4.8,4.8-4.8H41c2.6,0,4.8,2.1,4.8,4.8C45.7,67.7,43.6,69.8,41,69.8z"/>
		</g>
		<g>
			<path d="M174.3,69.8h-14.6c-2.6,0-4.8-2.1-4.8-4.8c0-2.6,2.1-4.8,4.8-4.8h14.6c2.6,0,4.8,2.1,4.8,4.8
				C179,67.7,176.9,69.8,174.3,69.8z"/>
		</g>
		<g>
			<path d="M100,192.4c-13.5,0-25.3-5-35.1-14.7c-4.3-4.3-7.8-10-10.3-14.3c-1.3-2.3-0.5-5.2,1.8-6.5c2.3-1.3,5.2-0.5,6.5,1.8
				c2.2,3.9,5.2,8.8,8.8,12.3c7.9,7.9,17.5,11.9,28.4,11.9c11.5,0,21-3.9,29-11.9c3.6-3.7,6.3-7.6,7.8-11.6c0.9-2.5,3.7-3.7,6.1-2.8
				c2.5,0.9,3.7,3.7,2.8,6.1c-2,5.4-5.4,10.4-10,15C126,187.4,113.9,192.4,100,192.4z"/>
		</g>
		<g>
			<path d="M175.6,165.7h-34.3c-2.6,0-4.8-2.1-4.8-4.8s2.1-4.8,4.8-4.8h34.3c10.3,0,14.9-4.4,14.9-14.3V60.6
				c-0.3-4.9-1.5-8.6-3.8-10.8c-2.3-2.2-6-3.2-10.8-2.9l-18.7,0c-2.2,0-4.1-1.5-4.6-3.6l-3.2-12.7c-2.6-9.3-7.8-13.5-17-13.5H68.3
				c-9.4,0-15,4.3-17.6,13.7l-3.1,12.6C46.9,45.5,45,47,42.9,47H24.4c-5.5-0.3-9.3,0.7-11.6,2.9c-2.2,2.1-3.4,5.7-3.4,10.7v81.3
				c0,10.1,4.3,14.3,14.9,14.3h34.3c2.6,0,4.8,2.1,4.8,4.8s-2.1,4.8-4.8,4.8H24.4C8.7,165.7,0,157.3,0,141.9V60.6
				C0,52.9,2.1,47,6.3,43c4.2-4,10.4-5.9,18.4-5.5l14.5,0l2.3-9.1C45.1,14.9,54.7,7.6,68.3,7.6h64.1c13.6,0,22.4,6.9,26.2,20.6
				l2.3,9.2h14.7c7.4-0.4,13.4,1.5,17.6,5.5c4.1,3.9,6.4,9.8,6.8,17.4l0,81.5C200,157,191.1,165.7,175.6,165.7z"/>
		</g>
	</g>
	<g>
		<g>
			<g>
				<path d="M122.9,41c-2.6,0-4.8-2.1-4.8-4.8v-5.1c0-2.6,2.1-4.8,4.8-4.8s4.8,2.1,4.8,4.8v5.1C127.6,38.9,125.5,41,122.9,41z"/>
			</g>
			<g>
				<path d="M77.1,41c-2.6,0-4.8-2.1-4.8-4.8v-5.1c0-2.6,2.1-4.8,4.8-4.8s4.8,2.1,4.8,4.8v5.1C81.9,38.9,79.8,41,77.1,41z"/>
			</g>
		</g>
		<g>
			<path d="M100,67.7c-7.9,0-15.1-4.3-19-11.3c-1.3-2.3-0.4-5.2,1.9-6.5c2.3-1.3,5.2-0.4,6.5,1.9c2.1,3.9,6.2,6.4,10.6,6.4
				c4.4,0,8.4-2.4,10.6-6.4c1.3-2.3,4.2-3.2,6.5-1.9s3.2,4.2,1.9,6.5C115.1,63.4,107.9,67.7,100,67.7z"/>
		</g>
	</g>
</g>
</svg>
