<?xml version="1.0" encoding="utf-8"?>
<!-- Generator: Adobe Illustrator 22.1.0, SVG Export Plug-In . SVG Version: 6.00 Build 0)  -->
<svg version="1.1" id="图层_1" xmlns="http://www.w3.org/2000/svg" xmlns:xlink="http://www.w3.org/1999/xlink" x="0px" y="0px"
	 viewBox="0 0 200 200" style="enable-background:new 0 0 200 200;" xml:space="preserve">
<g>
	<g>
		<path d="M108.7,75.2c0-2.2-1.3-3.5-4.3-3.5H53c-3,0-3.9,1.3-3.9,3.5c0.4,7,3.5,12.6,8.7,17.8c5.7,5.7,12.6,8.7,20.9,8.7
			s15.2-3,21.3-8.7C104.8,87.8,107.8,82.2,108.7,75.2"/>
	</g>
	<g>
		<path d="M162.2,193.5c-1.1,0-2.2-0.4-3.1-1.3l-19.6-19.6h-28.6c-11-0.5-20.2-4.5-26.7-11.4c-7.3-6.9-11.2-15.8-11.2-26.4v-2.2
			c0-2.4,1.9-4.3,4.3-4.3s4.3,1.9,4.3,4.3v2.2c0,8.2,2.8,14.9,8.6,20.3c5.2,5.5,12.1,8.4,20.7,8.8h30.2c1.2,0,2.3,0.5,3.1,1.3
			l13.4,13.4v-10.4c0-2.3,1.8-4.2,4.2-4.3c8.8-0.4,15.5-3.2,21-8.7c5.6-5.6,8.3-12.3,8.3-20.4v-30.4c0-8.3-2.8-15.3-8.3-20.8
			c-5.9-5.9-12.7-8.7-20.6-8.3H152c-2.4,0-4.3-1.9-4.3-4.3s1.9-4.3,4.3-4.3h10c10.2-0.4,19.3,3.2,27,10.8c7.1,7.1,10.8,16.4,10.8,27
			v30.4c0,10.4-3.6,19.4-10.8,26.6c-6.2,6.2-13.6,9.8-22.6,10.9v16.9c0,1.8-1.1,3.3-2.7,4C163.3,193.4,162.7,193.5,162.2,193.5z"/>
	</g>
	<g>
		<path d="M110.4,137h-33c-2.4,0-4.3-1.9-4.3-4.3c0-2.4,1.9-4.3,4.3-4.3h33c10.6,0,19.7-3.7,26.4-10.8c7.2-6.9,11-16,11-26.6V71
			c0-2.4,1.9-4.3,4.3-4.3c2.4,0,4.3,1.9,4.3,4.3v20c0,13-4.7,24.3-13.5,32.7C134.8,132.3,123.5,137,110.4,137z"/>
	</g>
	<g>
		<path d="M46.5,163c-0.6,0-1.1-0.1-1.7-0.3c-1.6-0.7-2.7-2.3-2.7-4v-21.9c-11-0.9-20.3-5.3-28.3-13.3C5,115.1,0,103.4,0,90.9V53
			c0-12.7,4.7-23.8,13.9-33c9.6-9.1,20.2-13.5,32.6-13.5h63.9c12.4,0,24,4.8,32.6,13.5c8.9,8.9,13.4,20,13.4,33.1v17.8
			c0,2.4-1.9,4.3-4.3,4.3c-2.4,0-4.3-1.9-4.3-4.3V53c0-10.8-3.6-19.6-10.9-26.9c-7-7-16.4-10.9-26.5-10.9H46.5
			c-10.1,0-18.8,3.6-26.6,11C12.5,33.6,8.7,42.7,8.7,53v37.8c0,10.2,4,19.5,11.2,26.4c7.5,7.5,15.9,11,26.6,11
			c2.4,0,4.3,1.9,4.3,4.3v15.7L70,129.5c0.8-0.8,1.9-1.2,3-1.2h4.3c2.4,0,4.3,1.9,4.3,4.3c0,2.4-1.9,4.3-4.3,4.3h-2.6l-25.3,24.8
			C48.7,162.6,47.6,163,46.5,163z"/>
	</g>
	<g>
		<g>
			<path d="M57.5,49.4c0,4.6-3.8,8.4-8.4,8.4s-8.4-3.8-8.4-8.4s3.8-8.4,8.4-8.4S57.5,44.7,57.5,49.4z"/>
		</g>
		<g>
			<path d="M117.1,49.4c0,4.6-3.8,8.4-8.4,8.4s-8.4-3.8-8.4-8.4s3.8-8.4,8.4-8.4C113.4,41,117.1,44.7,117.1,49.4z"/>
		</g>
	</g>
</g>
</svg>
