<?xml version="1.0" encoding="utf-8"?>
<!-- Generator: Adobe Illustrator 22.1.0, SVG Export Plug-In . SVG Version: 6.00 Build 0)  -->
<svg version="1.1" id="图层_1" xmlns="http://www.w3.org/2000/svg" xmlns:xlink="http://www.w3.org/1999/xlink" x="0px" y="0px"
	 viewBox="0 0 200 200" style="enable-background:new 0 0 200 200;" xml:space="preserve">
<style type="text/css">
	.st0{fill:none;}
</style>
<g>
	<path class="st0" d="M100.6,42.3c-10,0-18.2,3.5-25.3,10.6c-7.1,6.5-10.6,14.7-10.6,24.7c0,2.4,0.6,4.7,1.2,6.5
		c0,2.3,1.2,3.5,2.9,4.7c1.8,1.2,3.5,1.2,5.9,0.6c1.8,0,3.5-1.2,4.7-2.9c0.6-1.8,1.2-3.5,0.6-5.9c0-0.6-0.6-1.8-0.6-2.9
		c0-5.3,2.3-10.6,6.5-14.1c3.5-4.1,8.8-6.5,14.7-6.5c5.3,0,10.6,2.4,14.7,6.5c3.5,3.5,5.3,8.2,5.9,14.1c-0.6,5.9-2.4,10.6-5.9,14.7
		c-4.1,4.1-9.4,5.9-14.7,5.9c-2.4,0-3.5,1.2-5.3,2.4c-1.2,1.8-2.4,2.9-2.4,5.3v21.2c0,2.4,1.2,4.1,2.4,5.3c1.8,1.8,2.9,2.4,5.3,2.4
		c1.8,0,3.5-0.6,5.3-2.4c1.2-1.2,1.8-2.9,1.8-5.3v-14.7c7.1-1.2,12.9-4.7,17.6-9.4c7.1-7.1,10-15.3,10.6-24.7v-0.6
		c-0.6-10-4.1-18.2-10.6-24.7C118.2,45.9,110,42.3,100.6,42.3z"/>
	<path class="st0" d="M100.6,140c-2.4,0-3.5,0.6-5.3,2.3c-1.2,1.2-2.4,2.9-2.4,4.7v3.5c0,2.4,1.2,4.1,2.4,5.3
		c1.8,1.8,2.9,2.3,5.3,2.3c1.8,0,3.5-0.6,5.3-2.3c1.2-1.2,1.8-2.9,1.8-5.3v-3.5c0-1.8-0.6-3.5-1.8-4.7
		C104.1,140.6,102.3,140,100.6,140z"/>
	<path d="M171.2,29.4C151.2,10,127.6,0,100,0C72.4,0,48.8,10,29.4,29.4C10,48.8,0,72.4,0,100c0,27.6,10,51.2,29.4,71.2
		C48.8,190.6,72.4,200,100,200c27.6,0,51.2-9.4,71.2-28.8c19.4-20,28.8-43.5,28.8-71.2C200,72.4,190.6,48.8,171.2,29.4z
		 M107.6,150.6c0,2.4-0.6,4.1-1.8,5.3c-1.8,1.8-3.5,2.3-5.3,2.3c-2.4,0-3.5-0.6-5.3-2.3c-1.2-1.2-2.4-2.9-2.4-5.3v-3.5
		c0-1.8,1.2-3.5,2.4-4.7c1.8-1.8,2.9-2.3,5.3-2.3c1.8,0,3.5,0.6,5.3,2.3c1.2,1.2,1.8,2.9,1.8,4.7V150.6z M135.9,78.2
		c-0.6,9.4-3.5,17.6-10.6,24.7c-4.7,4.7-10.6,8.2-17.6,9.4v14.7c0,2.4-0.6,4.1-1.8,5.3c-1.8,1.8-3.5,2.4-5.3,2.4
		c-2.4,0-3.5-0.6-5.3-2.4c-1.2-1.2-2.4-2.9-2.4-5.3v-21.2c0-2.4,1.2-3.5,2.4-5.3c1.8-1.2,2.9-2.4,5.3-2.4c5.3,0,10.6-1.8,14.7-5.9
		c3.5-4.1,5.3-8.8,5.9-14.7c-0.6-5.9-2.4-10.6-5.9-14.1c-4.1-4.1-9.4-6.5-14.7-6.5c-5.9,0-11.2,2.4-14.7,6.5
		c-4.1,3.5-6.5,8.8-6.5,14.1c0,1.2,0.6,2.4,0.6,2.9c0.6,2.4,0,4.1-0.6,5.9c-1.2,1.8-2.9,2.9-4.7,2.9c-2.4,0.6-4.1,0.6-5.9-0.6
		c-1.8-1.2-2.9-2.4-2.9-4.7c-0.6-1.8-1.2-4.1-1.2-6.5c0-10,3.5-18.2,10.6-24.7c7.1-7.1,15.3-10.6,25.3-10.6
		c9.4,0,17.6,3.5,24.7,10.6c6.5,6.5,10,14.7,10.6,24.7V78.2z"/>
</g>
</svg>
