<?xml version="1.0" encoding="utf-8"?>
<!-- Generator: Adobe Illustrator 22.1.0, SVG Export Plug-In . SVG Version: 6.00 Build 0)  -->
<svg version="1.1" id="图层_1" xmlns="http://www.w3.org/2000/svg" xmlns:xlink="http://www.w3.org/1999/xlink" x="0px" y="0px"
	 viewBox="0 0 200 200" style="enable-background:new 0 0 200 200;" xml:space="preserve">
<g>
	<g>
		<g>
			<g>
				<path d="M162.8,200c-6.6,0-14.8-3.2-24.7-9.6l-38-25l-38,25c-14.4,9.4-25.1,11.9-32.8,7.7C22.5,194.4,19,186,19,173v-62.2
					c0-2.6,2.1-4.8,4.8-4.8s4.8,2.1,4.8,4.8V173c0,8.9,1.8,14.8,5.1,16.6c2.4,1.3,8.6,2.1,23.1-7.3l40.6-26.7c1.6-1,3.6-1,5.2,0
					l40.6,26.7c14.5,9.4,20.6,8.6,23,7.3c3.3-1.8,5.1-7.7,5.1-16.6v-62.2c0-2.6,2.1-4.8,4.8-4.8s4.8,2.1,4.8,4.8V173
					c0,12.9-3.4,21.4-10.1,25C168.5,199.3,165.8,200,162.8,200z"/>
			</g>
			<g>
				<path d="M176.2,92.1c-2.6,0-4.8-2.1-4.8-4.8V41c-0.6-21.7-11.2-31.4-34.6-31.4H62.5c-12.3,0-21.4,2.9-26.9,8.5
					c-4.9,5.1-7.3,12.7-7.1,22.8l0,46.5c0,2.6-2.1,4.8-4.8,4.8S19,89.9,19,87.3V41c-0.3-12.6,2.9-22.5,9.8-29.5
					C36.2,3.8,47.5,0,62.5,0h74.3c28.6,0,43.4,13.7,44.1,40.8l0,46.5C181,89.9,178.8,92.1,176.2,92.1z"/>
			</g>
		</g>
		<g>
			<g>
				<path d="M138.1,36.2H61.9c-2.6,0-4.8-2.1-4.8-4.8s2.1-4.8,4.8-4.8h76.2c2.6,0,4.8,2.1,4.8,4.8S140.7,36.2,138.1,36.2z"/>
			</g>
		</g>
	</g>
	<g>
		<g>
			<g>
				<path d="M122.9,78.2c-2.6,0-4.8-2.1-4.8-4.8v-5.1c0-2.6,2.1-4.8,4.8-4.8c2.6,0,4.8,2.1,4.8,4.8v5.1
					C127.6,76.1,125.5,78.2,122.9,78.2z"/>
			</g>
			<g>
				<path d="M77.1,78.2c-2.6,0-4.8-2.1-4.8-4.8v-5.1c0-2.6,2.1-4.8,4.8-4.8c2.6,0,4.8,2.1,4.8,4.8v5.1
					C81.9,76.1,79.8,78.2,77.1,78.2z"/>
			</g>
		</g>
		<g>
			<path d="M100,105c-7.9,0-15.1-4.3-19-11.3c-1.3-2.3-0.4-5.2,1.9-6.5c2.3-1.3,5.2-0.4,6.5,1.9c2.1,3.9,6.2,6.4,10.6,6.4
				c4.4,0,8.4-2.4,10.6-6.4c1.3-2.3,4.2-3.2,6.5-1.9c2.3,1.3,3.2,4.2,1.9,6.5C115.1,100.6,107.9,105,100,105z"/>
		</g>
	</g>
</g>
</svg>
