<?xml version="1.0" encoding="utf-8"?>
<!-- Generator: Adobe Illustrator 22.1.0, SVG Export Plug-In . SVG Version: 6.00 Build 0)  -->
<svg version="1.1" id="图层_1" xmlns="http://www.w3.org/2000/svg" xmlns:xlink="http://www.w3.org/1999/xlink" x="0px" y="0px"
	 viewBox="0 0 200 200" style="enable-background:new 0 0 200 200;" xml:space="preserve">
<g>
	<g>
		<g>
			<g>
				<path d="M124.4,18.3c-2.8,0-5.1-2.3-5.1-5.1V7.8c0-2.8,2.3-5.1,5.1-5.1c2.8,0,5.1,2.3,5.1,5.1v5.4
					C129.5,16,127.2,18.3,124.4,18.3z"/>
			</g>
		</g>
		<g>
			<g>
				<path d="M75.6,18.3c-2.8,0-5.1-2.3-5.1-5.1V7.8c0-2.8,2.3-5.1,5.1-5.1c2.8,0,5.1,2.3,5.1,5.1v5.4C80.7,16,78.4,18.3,75.6,18.3z"
					/>
			</g>
		</g>
	</g>
	<g>
		<g>
			<g>
				<path d="M100,197.3c-27,0-50.8-10.1-70.7-30C9.8,147.9,0,124.3,0,97.3C0,70.1,9.8,46.1,29.2,26C36.4,18.8,44.4,13,53,8.7
					c2.5-1.3,5.6-0.2,6.8,2.3c1.3,2.5,0.2,5.6-2.3,6.8c-7.6,3.8-14.7,9-21.1,15.3C18.8,51.4,10.2,72.4,10.2,97.3
					c0,24.2,8.9,45.4,26.3,62.9c18.2,18.2,38.9,27,63.5,27c25.2,0,46-8.8,63.5-26.9c17.5-16.9,26.4-38.1,26.4-62.9
					c0-25.5-8.6-46.5-26.3-64.2c-6.1-6.1-13-11.3-20.5-15.4c-2.5-1.3-3.4-4.4-2-6.9c1.3-2.5,4.4-3.4,6.9-2
					c8.4,4.6,16.1,10.3,22.9,17.1C190.4,45.6,200,69,200,97.3c0,27.7-9.9,51.3-29.4,70.1C151.6,187.2,127.8,197.3,100,197.3z"/>
			</g>
		</g>
	</g>
	<g>
		<g>
			<g>
				<path d="M130.5,145.4c-1.1,0-2.2-0.4-3.2-1.1c-2.2-1.8-2.5-5-0.8-7.1l6.5-8.1H56.4c-2.8,0-5.1-2.3-5.1-5.1
					c0-2.8,2.3-5.1,5.1-5.1h87.1c2,0,3.7,1.1,4.6,2.9c0.8,1.8,0.6,3.8-0.6,5.4l-13.1,16.3C133.5,144.8,132,145.4,130.5,145.4z"/>
			</g>
		</g>
		<g>
			<g>
				<path d="M143.6,101.4H56.4c-2,0-3.7-1.1-4.6-2.9c-0.8-1.8-0.6-3.9,0.6-5.4l13.1-16.3c1.8-2.2,5-2.5,7.2-0.8
					c2.2,1.8,2.5,5,0.8,7.1L67,91.2h76.6c2.8,0,5.1,2.3,5.1,5.1C148.7,99.1,146.4,101.4,143.6,101.4z"/>
			</g>
		</g>
	</g>
	<g>
		<g>
			<path d="M100,46.8c-8.4,0-16.2-4.6-20.2-12.1c-1.3-2.5-0.4-5.6,2-6.9c2.5-1.4,5.6-0.4,6.9,2c2.3,4.2,6.6,6.8,11.3,6.8
				c4.7,0,9-2.6,11.3-6.8c1.3-2.5,4.4-3.4,6.9-2s3.4,4.4,2,6.9C116.1,42.2,108.4,46.8,100,46.8z"/>
		</g>
	</g>
</g>
</svg>
