<?xml version="1.0" encoding="utf-8"?>
<!-- Generator: Adobe Illustrator 22.1.0, SVG Export Plug-In . SVG Version: 6.00 Build 0)  -->
<svg version="1.1" id="图层_1" xmlns="http://www.w3.org/2000/svg" xmlns:xlink="http://www.w3.org/1999/xlink" x="0px" y="0px"
	 viewBox="0 0 200 200" style="enable-background:new 0 0 200 200;" xml:space="preserve">
<g>
	<g>
		<g>
			<path d="M135.6,200H65.1c-21.8,0-33.3-11.1-33.3-32.1V97.5c0-2.6,2.1-4.8,4.8-4.8c2.6,0,4.8,2.1,4.8,4.8v70.5
				c0,15.6,7.3,22.5,23.8,22.5h70.5c16,0,23.2-7,23.2-22.5V97.5c0-2.6,2.1-4.8,4.8-4.8s4.8,2.1,4.8,4.8v70.5
				C168.3,188.9,156.9,200,135.6,200z"/>
		</g>
		<g>
			<path d="M116.8,34.9H83.2c-2.6,0-4.8-2.1-4.8-4.8s2.1-4.8,4.8-4.8h33.7c2.6,0,4.8,2.1,4.8,4.8S119.5,34.9,116.8,34.9z"/>
		</g>
		<g>
			<path d="M163.5,72.4c-2.6,0-4.8-2.1-4.8-4.8V31.4c0-14.9-7.4-21.9-23.2-21.9H65.1c-16.5,0-23.8,6.8-23.8,21.9v36.2
				c0,2.6-2.1,4.8-4.8,4.8c-2.6,0-4.8-2.1-4.8-4.8V31.4C31.7,17.1,37.5,0,65.1,0h70.5c21.1,0,32.7,11.2,32.7,31.4v36.2
				C168.3,70.2,166.1,72.4,163.5,72.4z"/>
		</g>
		<g>
			<path d="M111.7,172.2c0,6.5-5.2,11.7-11.7,11.7c-6.5,0-11.7-5.2-11.7-11.7c0-6.5,5.2-11.7,11.7-11.7
				C106.5,160.5,111.7,165.8,111.7,172.2z"/>
		</g>
	</g>
	<g>
		<g>
			<g>
				<path d="M122.9,57.1c-2.6,0-4.8-2.1-4.8-4.8v-5.1c0-2.6,2.1-4.8,4.8-4.8s4.8,2.1,4.8,4.8v5.1C127.6,55,125.5,57.1,122.9,57.1z"
					/>
			</g>
			<g>
				<path d="M77.1,57.1c-2.6,0-4.8-2.1-4.8-4.8v-5.1c0-2.6,2.1-4.8,4.8-4.8s4.8,2.1,4.8,4.8v5.1C81.9,55,79.8,57.1,77.1,57.1z"/>
			</g>
		</g>
		<g>
			<path d="M100,83.8c-7.9,0-15.1-4.3-18.9-11.3c-1.3-2.3-0.4-5.2,1.9-6.5c2.3-1.3,5.2-0.4,6.5,1.9c2.1,3.9,6.2,6.4,10.6,6.4
				s8.4-2.4,10.6-6.4c1.3-2.3,4.2-3.1,6.5-1.9c2.3,1.3,3.2,4.2,1.9,6.5C115.1,79.5,107.9,83.8,100,83.8z"/>
		</g>
	</g>
</g>
</svg>
