<?xml version="1.0" encoding="utf-8"?>
<!-- Generator: Adobe Illustrator 22.1.0, SVG Export Plug-In . SVG Version: 6.00 Build 0)  -->
<svg version="1.1" id="图层_1" xmlns="http://www.w3.org/2000/svg" xmlns:xlink="http://www.w3.org/1999/xlink" x="0px" y="0px"
	 viewBox="0 0 200 200" style="enable-background:new 0 0 200 200;" xml:space="preserve">
<style type="text/css">
	.st0{fill:none;}
	.st1{fill:#1984BE;}
	.st2{fill:#FFFFFF;}
</style>
<g>
	<g>
		<g>
			<path class="st0" d="M126,105.6c1.4,1.9,3.7,2.8,6.1,2.8c2.8,0,4.7-0.9,6.5-2.8c1.4-1.9,2.3-3.7,2.3-6.5c0-2.3-0.9-4.7-2.3-6.1
				c-1.9-1.9-3.7-2.8-6.5-2.8c-2.3,0-5.8-0.6-7.2,1.3c-2.3,1.4-1.7,5.2-1.7,7.5C123.3,101.9,123.7,103.7,126,105.6z"/>
		</g>
		<g>
			<path class="st0" d="M68.4,108.4c2.8,0,4.7-0.9,6.5-2.8c1.4-1.9,2.3-3.7,2.3-6.5c0-2.3-0.9-4.7-2.3-6.1c-1.9-1.9-3.7-2.8-6.5-2.8
				c-2.8,0-4.7,0.9-6,2.8c-1.9,1.4-2.8,3.7-2.8,6.1c0,2.8,0.9,4.7,2.8,6.5C63.7,107.4,65.6,108.4,68.4,108.4z"/>
		</g>
		<g>
			<path class="st0" d="M68.4,127c0.9,7.4,4.2,13.5,9.3,18.6c6.5,6.5,13.5,9.3,22.8,9.8c8.8-0.5,16.3-3.3,22.3-9.8
				c5.6-5.1,8.4-11.2,9.3-18.6c0.5-2.3-1.4-3.7-4.2-3.7H72.6C69.8,123.3,68.4,124.7,68.4,127z"/>
		</g>
		<g>
			<path class="st0" d="M159.1,173c-0.9-0.9-1.9-1.4-3.3-1.4H44.2c-0.9,0-2.3,0.5-3.3,1.4c-0.9,0.9-1.4,2.3-1.4,3.3
				c0,1.4,0.5,2.3,1.4,3.3c0.9,0.9,2.3,1.4,3.3,1.4h111.6c1.4,0,2.3-0.5,3.3-1.4c0.9-0.9,1.4-1.9,1.4-3.3
				C160.5,175.3,160,174,159.1,173z"/>
		</g>
		<g>
			<path class="st1" d="M192.1,164.2L173,64.2c-1.9-12.1-10.2-17.7-23.7-17.7H133H67h-0.5H51.2c-14,0-22.3,5.6-24.2,17.7l-19.1,100
				c-3.7,20.5,3.7,31.2,22.8,31.2h138.1C188.4,195.3,195.8,184.7,192.1,164.2z M125.6,92.9c0.1-0.2,0.3-0.3,0.4-0.4
				c1.8-1.5,3.9-2.2,6.1-2.2c2.8,0,4.7,0.9,6.5,2.8c1.4,1.4,2.3,3.7,2.3,6.1c0,2.7-0.9,4.5-2.2,6.3c-0.1,0.1-0.2,0.3-0.3,0.4
				c-1.8,1.7-3.6,2.6-6.3,2.6c-1.3,0-2.4-0.3-3.6-0.8c-1.9-0.8-3.5-2.2-4.4-4c-0.8-1.5-0.8-2.6-0.8-4.5
				C123.3,96.8,123.8,95,125.6,92.9z M132.1,127c-0.9,7.4-3.7,13.5-9.3,18.6c-6.1,6.5-13.5,9.3-22.3,9.8c-9.3-0.5-16.3-3.3-22.8-9.8
				c-5.1-5.1-8.4-11.2-9.3-18.6c0-2.3,1.4-3.7,4.2-3.7h55.4C130.7,123.3,132.6,124.7,132.1,127z M62,92.7c1.8-1.7,3.6-2.5,6.4-2.5
				c2.8,0,4.7,0.9,6.5,2.8c1.4,1.4,2.3,3.7,2.3,6.1c0,2.8-0.9,4.7-2.3,6.5c-1.9,1.9-3.7,2.8-6.5,2.8c-2.8,0-5.6-1.5-6.4-2.6
				c-1.8-1.7-2.4-3.9-2.4-6.7C59.5,96.7,60.5,94.6,62,92.7z M155.8,180.9H44.2c-0.9,0-2.3-0.5-3.3-1.4c-0.9-0.9-1.4-1.9-1.4-3.3
				c0-0.9,0.5-2.3,1.4-3.3c0.9-0.9,2.3-1.4,3.3-1.4h111.6c1.4,0,2.3,0.5,3.3,1.4c0.9,0.9,1.4,2.3,1.4,3.3c0,1.4-0.5,2.3-1.4,3.3
				C158.1,180.5,157.2,180.9,155.8,180.9z"/>
		</g>
	</g>
	<g>
		<path class="st1" d="M168.8,200H30.7c-10.3,0-18-2.9-22.8-8.7c-5.2-6.3-6.8-15.7-4.6-28l19.1-100c1.5-9.7,7.7-21.5,28.8-21.5H67
			c2.6,0,4.7,2.1,4.7,4.7c0,2.6-2.1,4.7-4.7,4.7H51.2c-15.5,0-18.6,7.3-19.6,13.7L12.5,165.1c-1.7,9.4-0.9,16.2,2.5,20.3
			c3,3.5,8.2,5.3,15.7,5.3h138.1c7.7,0,13.1-1.8,16.1-5.4c3.4-4.1,4.2-10.9,2.5-20.2l-19.1-100c-0.9-6.1-3.9-13.9-19.2-13.9H133
			c-2.6,0-4.7-2.1-4.7-4.7c0-2.6,2.1-4.7,4.7-4.7h16.3c16.1,0,26.2,7.7,28.3,21.6l19,99.8c2.2,12.3,0.7,21.6-4.5,27.9
			C187.3,197,179.4,200,168.8,200z"/>
	</g>
	<g>
		<path class="st1" d="M133,51.2c-2.6,0-4.7-2.1-4.7-4.7v-8.8c0-8.1-2.7-14.8-8.4-20.4c-5.8-5.4-12.2-7.9-20-7.9
			c-7.9,0-14.8,2.7-20.6,8.1c-5.1,5.5-7.8,12.4-7.8,20.3v8.8c0,2.6-2.1,4.7-4.7,4.7c-2.6,0-4.7-2.1-4.7-4.7v-8.8
			c0-10.3,3.5-19.4,10.5-26.9C80.7,3.5,89.7,0,100,0c10.1,0,18.8,3.4,26.4,10.5c7.5,7.5,11.3,16.6,11.3,27.1v8.8
			C137.7,49.1,135.6,51.2,133,51.2z"/>
	</g>
	<g>
		<path class="st1" d="M133,51.2H67c-2.6,0-4.7-2.1-4.7-4.7c0-2.6,2.1-4.7,4.7-4.7h66c2.6,0,4.7,2.1,4.7,4.7
			C137.7,49.1,135.6,51.2,133,51.2z"/>
	</g>
	<g>
		<path class="st2" d="M66.5,60.5c-2.6,0-4.7-2.1-4.7-4.7v-9.3c0-2.6,2.1-4.7,4.7-4.7c2.6,0,4.7,2.1,4.7,4.7v9.3
			C71.2,58.4,69.1,60.5,66.5,60.5z"/>
	</g>
</g>
</svg>
