<?xml version="1.0" encoding="utf-8"?>
<!-- Generator: Adobe Illustrator 22.1.0, SVG Export Plug-In . SVG Version: 6.00 Build 0)  -->
<svg version="1.1" id="图层_1" xmlns="http://www.w3.org/2000/svg" xmlns:xlink="http://www.w3.org/1999/xlink" x="0px" y="0px"
	 viewBox="0 0 200 200" style="enable-background:new 0 0 200 200;" xml:space="preserve">
<g>
	<g>
		<g>
			<path d="M21,75.6c-2.6,0-4.8-2.1-4.8-4.8v-26c0-23.5,13-36.5,36.5-36.5h3.2c2.6,0,4.8,2.1,4.8,4.8s-2.1,4.8-4.8,4.8h-3.2
				c-18.4,0-27,8.6-27,27v26C25.7,73.4,23.6,75.6,21,75.6z"/>
		</g>
		<g>
			<path d="M77.5,24.8c-2.6,0-4.8-2.1-4.8-4.8v-7c0-2.6,2.1-4.8,4.8-4.8s4.8,2.1,4.8,4.8v7C82.2,22.6,80.1,24.8,77.5,24.8z"/>
		</g>
		<g>
			<path d="M77.5,17.8c-2.6,0-4.8-2.1-4.8-4.8V4.8c0-2.6,2.1-4.8,4.8-4.8s4.8,2.1,4.8,4.8V13C82.2,15.6,80.1,17.8,77.5,17.8z"/>
		</g>
		<g>
			<path d="M179,120.6c-2.6,0-4.8-2.1-4.8-4.8V44.8c-0.6-18.6-8.9-27-27-27h-3.2c-2.6,0-4.8-2.1-4.8-4.8s2.1-4.8,4.8-4.8h3.2
				c23.2,0,35.8,12.6,36.5,36.4l0,71.3C183.8,118.5,181.7,120.6,179,120.6z"/>
		</g>
		<g>
			<path d="M120.6,26c-2.6,0-4.8-2.1-4.8-4.8V13c0-2.6,2.1-4.8,4.8-4.8s4.8,2.1,4.8,4.8v8.3C125.4,23.9,123.3,26,120.6,26z"/>
		</g>
		<g>
			<path d="M120.6,17.8c-2.6,0-4.8-2.1-4.8-4.8V5.4c0-2.6,2.1-4.8,4.8-4.8s4.8,2.1,4.8,4.8V13C125.4,15.6,123.3,17.8,120.6,17.8z"/>
		</g>
		<g>
			<path d="M120.6,17.8H77.5c-2.6,0-4.8-2.1-4.8-4.8s2.1-4.8,4.8-4.8h43.2c2.6,0,4.8,2.1,4.8,4.8S123.3,17.8,120.6,17.8z"/>
		</g>
		<g>
			<path d="M91.4,200H52.7c-23.9-0.7-36.5-13.3-36.5-36.5V93.6c0-2.6,2.1-4.8,4.8-4.8s4.8,2.1,4.8,4.8v69.8c0,18.1,8.4,26.4,27.1,27
				h38.6c2.6,0,4.8,2.1,4.8,4.8C96.2,197.9,94.1,200,91.4,200z"/>
		</g>
		<g>
			<path d="M123.2,200C123.1,200,123.1,200,123.2,200c-1.3,0-2.6-0.5-3.4-1.5l-29.8-31.1c-1.8-1.9-1.8-4.9,0.1-6.7
				c1.9-1.8,4.9-1.8,6.7,0.1l26.5,27.6l52.4-51.8c1.9-1.8,4.9-1.8,6.7,0c1.9,1.9,1.8,4.9,0,6.7l-55.9,55.2
				C125.6,199.5,124.4,200,123.2,200z"/>
		</g>
	</g>
	<g>
		<g>
			<g>
				<path d="M122.8,64.8c-2.6,0-4.8-2.1-4.8-4.8v-5.1c0-2.6,2.1-4.8,4.8-4.8s4.8,2.1,4.8,4.8V60C127.6,62.6,125.5,64.8,122.8,64.8z"
					/>
			</g>
			<g>
				<path d="M77.1,64.8c-2.6,0-4.8-2.1-4.8-4.8v-5.1c0-2.6,2.1-4.8,4.8-4.8s4.8,2.1,4.8,4.8V60C81.9,62.6,79.8,64.8,77.1,64.8z"/>
			</g>
		</g>
		<g>
			<path d="M100,91.5c-7.9,0-15.1-4.3-18.9-11.3c-1.3-2.3-0.4-5.2,1.9-6.5c2.3-1.3,5.2-0.4,6.5,1.9c2.1,3.9,6.2,6.4,10.6,6.4
				s8.4-2.4,10.6-6.4c1.3-2.3,4.2-3.1,6.5-1.9c2.3,1.3,3.2,4.2,1.9,6.5C115.1,87.1,107.9,91.5,100,91.5z"/>
		</g>
	</g>
</g>
</svg>
