<?xml version="1.0" encoding="utf-8"?>
<!-- Generator: Adobe Illustrator 22.1.0, SVG Export Plug-In . SVG Version: 6.00 Build 0)  -->
<svg version="1.1" id="图层_1" xmlns="http://www.w3.org/2000/svg" xmlns:xlink="http://www.w3.org/1999/xlink" x="0px" y="0px"
	 viewBox="0 0 200 200" style="enable-background:new 0 0 200 200;" xml:space="preserve">
<g>
	<g>
		<g>
			<path d="M193.3,89.6c-3.7,0-6.7-3-6.7-6.7v-14c0-3.7,3-6.7,6.7-6.7c3.7,0,6.7,3,6.7,6.7v14C200,86.6,197,89.6,193.3,89.6z"/>
		</g>
		<g>
			<path d="M193.3,75.6c-3.7,0-6.7-3-6.7-6.7v-6.7c0-16.2-6.8-22.7-23.4-22.7h-8.7c-3.7,0-6.7-3-6.7-6.7s3-6.7,6.7-6.7h8.7
				c24.1,0,36.8,12.5,36.8,36.1v6.7C200,72.6,197,75.6,193.3,75.6z"/>
		</g>
		<g>
			<path d="M154.5,75.6c-3.7,0-6.7-3-6.7-6.7V32.8c0-3.7,3-6.7,6.7-6.7s6.7,3,6.7,6.7v36.1C161.2,72.6,158.2,75.6,154.5,75.6z"/>
		</g>
		<g>
			<path d="M154.5,39.5c-3.7,0-6.7-3-6.7-6.7v-6c0-4.8-1.5-5.4-4.7-5.4H58.2c-3.6,0-4.7,0.2-4.7,5.4v6c0,3.7-3,6.7-6.7,6.7
				s-6.7-3-6.7-6.7v-6C40.1,14.9,46.7,8,58.2,8h84.9c11.1,0,18.1,7.2,18.1,18.7v6C161.2,36.5,158.2,39.5,154.5,39.5z"/>
		</g>
		<g>
			<path d="M193.3,153.2h-22.7c-0.2,0-0.5,0-0.7,0c-8-0.9-14.6-3.8-19.4-8.6c-5.1-5.2-8-12.1-8-19.4c0-7.9,2.8-14.9,8-20.1
				c5.2-5.2,12.2-8,20.1-8h22.7c3.7,0,6.7,3,6.7,6.7v42.8C200,150.2,197,153.2,193.3,153.2z M171,139.8h15.7v-29.4h-16.1
				c-4.4,0-8,1.4-10.7,4.1c-2.7,2.7-4.1,6.3-4.1,10.7c0,3.8,1.4,7.4,4.1,10C162.5,137.7,166.1,139.2,171,139.8z"/>
		</g>
		<g>
			<path d="M193.3,75.6h-38.8c-3.7,0-6.7-3-6.7-6.7c0-3.7,3-6.7,6.7-6.7h38.8c3.7,0,6.7,3,6.7,6.7C200,72.6,197,75.6,193.3,75.6z"/>
		</g>
		<g>
			<path d="M46.8,75.6c-3.7,0-6.7-3-6.7-6.7V32.8c0-3.7,3-6.7,6.7-6.7s6.7,3,6.7,6.7v36.1C53.5,72.6,50.5,75.6,46.8,75.6z"/>
		</g>
		<g>
			<path d="M6.7,75.6c-3.7,0-6.7-3-6.7-6.7v-6.7c0-16.5,6.6-36.1,38.1-36.1h8.7c3.7,0,6.7,3,6.7,6.7s-3,6.7-6.7,6.7h-8.7
				c-17.8,0-24.8,6.4-24.8,22.7v6.7C13.4,72.6,10.4,75.6,6.7,75.6z"/>
		</g>
		<g>
			<path d="M163.2,192H38.1C6.6,192,0,172.3,0,155.9v-87c0-3.7,3-6.7,6.7-6.7s6.7,3,6.7,6.7v87c0,16.4,6.9,22.7,24.8,22.7h125.1
				c16.5,0,21-7.2,23.1-13.5c1.2-3.5,4.9-5.4,8.5-4.2c3.5,1.2,5.4,5,4.2,8.5C194,184.4,181.9,192,163.2,192z"/>
		</g>
		<g>
			<path d="M46.8,75.6H6.7c-3.7,0-6.7-3-6.7-6.7c0-3.7,3-6.7,6.7-6.7h40.1c3.7,0,6.7,3,6.7,6.7C53.5,72.6,50.5,75.6,46.8,75.6z"/>
		</g>
		<g>
			<path d="M132.4,46.2H73.6c-3.7,0-6.7-3-6.7-6.7s3-6.7,6.7-6.7h58.9c3.7,0,6.7,3,6.7,6.7S136.1,46.2,132.4,46.2z"/>
		</g>
		<g>
			<path d="M154.5,75.6H46.8c-3.7,0-6.7-3-6.7-6.7c0-3.7,3-6.7,6.7-6.7h107.7c3.7,0,6.7,3,6.7,6.7C161.2,72.6,158.2,75.6,154.5,75.6
				z"/>
		</g>
	</g>
	<g>
		<g>
			<g>
				<path d="M124.4,108.7c-3.7,0-6.7-3-6.7-6.7v-5.3c0-3.7,3-6.7,6.7-6.7c3.7,0,6.7,3,6.7,6.7v5.3
					C131.1,105.7,128.1,108.7,124.4,108.7z"/>
			</g>
			<g>
				<path d="M76.3,108.7c-3.7,0-6.7-3-6.7-6.7v-5.3c0-3.7,3-6.7,6.7-6.7c3.7,0,6.7,3,6.7,6.7v5.3C82.9,105.7,80,108.7,76.3,108.7z"
					/>
			</g>
		</g>
		<g>
			<path d="M100.3,136.8c-8.9,0-17.1-4.9-21.4-12.8c-1.8-3.2-0.6-7.3,2.7-9.1c3.2-1.8,7.3-0.6,9.1,2.7c2,3.6,5.7,5.8,9.7,5.8
				c4,0,7.7-2.2,9.7-5.9c1.8-3.2,5.8-4.4,9.1-2.7c3.2,1.8,4.4,5.8,2.7,9.1C117.4,131.9,109.2,136.8,100.3,136.8z"/>
		</g>
	</g>
</g>
</svg>
