<?xml version="1.0" encoding="utf-8"?>
<!-- Generator: Adobe Illustrator 22.1.0, SVG Export Plug-In . SVG Version: 6.00 Build 0)  -->
<svg version="1.1" id="图层_1" xmlns="http://www.w3.org/2000/svg" xmlns:xlink="http://www.w3.org/1999/xlink" x="0px" y="0px"
	 viewBox="0 0 200 200" style="enable-background:new 0 0 200 200;" xml:space="preserve">
<g>
	<g>
		<g>
			<path d="M113,194.2c-3.5,0-6.7-0.7-9.8-2.1c-6.1-2.3-11.6-7.7-14-14.1l-23.4-52.4c-1.1-2.4,0-5.2,2.4-6.3c2.4-1.1,5.2,0,6.3,2.4
				l23.5,52.7c1.5,4.1,4.9,7.5,8.8,8.9c4.2,1.8,8.4,1.8,14-0.1c4.3-1.9,7-4.8,8.4-9.1c1.9-4.3,1.9-8.6,0-14.1l-15.1-34.5
				c-0.6-1.5-0.5-3.2,0.4-4.5c0.9-1.3,2.4-2.2,4-2.2h54c11,0,14.5-3.8,16.2-6.6c2.4-4.3,2.3-11.7-0.5-21.7l-14.6-50.8
				c-4.6-16.2-13.7-23.9-28.6-24.5l-110.3,0C16.6,16.4,8.5,26.1,9.6,45.9l0,40.9c0,21.9,9.2,32.1,28.9,32.1h4.8V36.6
				c0-2.6,2.1-4.8,4.8-4.8s4.8,2.1,4.8,4.8v87c0,2.6-2.1,4.8-4.8,4.8h-9.5c-17.5,0-38.4-7.2-38.4-41.6V46.1
				C-1.3,21.7,10.9,7.2,34.4,5.8l110.8,0c19.3,0.7,31.9,11.3,37.6,31.4L197.5,88c3.5,12.7,3.4,22.2-0.4,29
				c-4.6,7.7-12.6,11.3-24.5,11.3h-46.7l12.3,28.3c2.8,8.3,2.7,14.8,0,21c-2.1,6.4-6.7,11.3-13.9,14.5
				C120.2,193.5,116.5,194.2,113,194.2z"/>
		</g>
	</g>
	<g>
		<g>
			<g>
				<path d="M148.8,49.8c-2.6,0-4.8-2.1-4.8-4.8V40c0-2.6,2.1-4.8,4.8-4.8s4.8,2.1,4.8,4.8v5.1C153.5,47.7,151.4,49.8,148.8,49.8z"
					/>
			</g>
			<g>
				<path d="M103,49.8c-2.6,0-4.8-2.1-4.8-4.8V40c0-2.6,2.1-4.8,4.8-4.8s4.8,2.1,4.8,4.8v5.1C107.8,47.7,105.7,49.8,103,49.8z"/>
			</g>
		</g>
		<g>
			<path d="M140.7,76.6c-1.7,0-3.3-0.9-4.2-2.5c-2.1-3.9-6.2-6.4-10.6-6.4c-4.4,0-8.5,2.4-10.6,6.4c-1.3,2.3-4.2,3.1-6.5,1.9
				c-2.3-1.3-3.2-4.2-1.9-6.5c3.8-7,11.1-11.3,19-11.3c7.9,0,15.1,4.3,19,11.3c1.3,2.3,0.4,5.2-1.9,6.5
				C142.2,76.4,141.5,76.6,140.7,76.6z"/>
		</g>
	</g>
</g>
</svg>
