<?xml version="1.0" encoding="utf-8"?>
<!-- Generator: Adobe Illustrator 22.1.0, SVG Export Plug-In . SVG Version: 6.00 Build 0)  -->
<svg version="1.1" id="图层_1" xmlns="http://www.w3.org/2000/svg" xmlns:xlink="http://www.w3.org/1999/xlink" x="0px" y="0px"
	 viewBox="0 0 200 200" style="enable-background:new 0 0 200 200;" xml:space="preserve">
<style type="text/css">
	.st0{fill:none;}
</style>
<g>
	<path class="st0" d="M70,69c-2.2,0-4.4,0.9-5.7,2.2c-1.7,1.7-2.6,3.5-2.6,6.1c0,2.2,0.9,4.4,2.6,6.1c1.4,1.3,3.5,2.2,5.7,2.2
		c2.6,0,4.4-0.9,6.1-2.2c1.3-1.8,2.2-3.9,2.6-6.1c-0.4-2.6-1.3-4.4-2.6-6.1C74.3,69.9,72.6,69,70,69z"/>
	<path class="st0" d="M70,103.4c0.9,6.5,3.9,12.2,8.7,17.4c6.1,5.7,13,8.7,21.3,8.7s15.2-3,20.9-8.7c5.2-5.2,7.9-10.9,8.6-17.4
		c0.4-2.6-0.9-3.9-3.9-3.9H73.9C71.3,99.9,70,100.8,70,103.4z"/>
	<path class="st0" d="M129.7,69c-2.2,0-4.4,0.9-5.7,2.2c-1.7,1.8-2.6,3.5-2.6,6.1c0,2.2,0.9,4.4,2.6,6.1c1.4,1.3,3.5,2.2,5.7,2.2
		c2.6,0,4.4-0.9,6.1-2.2c1.6-1.8,2.1-3.9,2.2-6.1c0-2.6-0.5-4.4-2.2-6.1C134,69.9,132.3,69,129.7,69z"/>
	<path d="M195.6,88.6l-70.4-70.9c-16.5-16.5-34-16.5-50.5,0L5.6,87.3C1.9,91,0,95.6,0,100.8c0,5.4,2,10,5.6,13
		c4,4.1,8.6,6.1,13.5,6.1h3.5v42.2c0,21.1,10.9,32.1,32.6,32.6h90c21-0.5,32.1-11.8,32.1-32.6v-42.2h3.9c0.2,0,0.3,0,0.5,0
		c5.4-0.6,9.5-2.5,12.6-6c3.7-3.3,5.6-7.8,5.6-13.1C199.9,96.1,198.6,92.2,195.6,88.6z M76.1,83.4c-1.7,1.3-3.5,2.2-6.1,2.2
		c-2.2,0-4.3-0.9-5.7-2.2c-1.7-1.7-2.6-3.9-2.6-6.1c0-2.6,0.9-4.4,2.6-6.1c1.3-1.3,3.5-2.2,5.7-2.2c2.6,0,4.3,0.9,6.1,2.2
		c1.3,1.7,2.2,3.5,2.6,6.1C78.3,79.5,77.4,81.6,76.1,83.4z M125.6,99.5c3,0,4.3,1.3,3.9,3.9c-0.7,6.5-3.4,12.2-8.6,17.4
		c-5.7,5.7-12.6,8.7-20.9,8.7s-15.2-3-21.3-8.7c-4.8-5.2-7.8-10.9-8.7-17.4c0-2.6,1.3-3.5,3.9-3.9H125.6z M135.8,83.4
		c-1.7,1.3-3.5,2.2-6.1,2.2c-2.2,0-4.3-0.9-5.7-2.2c-1.7-1.7-2.6-3.9-2.6-6.1c0-2.6,0.9-4.3,2.6-6.1c1.3-1.3,3.5-2.2,5.7-2.2
		c2.6,0,4.3,0.9,6.1,2.2c1.7,1.7,2.2,3.5,2.2,6.1C137.9,79.5,137.4,81.6,135.8,83.4z"/>
</g>
</svg>
