<?xml version="1.0" encoding="utf-8"?>
<!-- Generator: Adobe Illustrator 22.1.0, SVG Export Plug-In . SVG Version: 6.00 Build 0)  -->
<svg version="1.1" id="图层_1" xmlns="http://www.w3.org/2000/svg" xmlns:xlink="http://www.w3.org/1999/xlink" x="0px" y="0px"
	 viewBox="0 0 200 200" style="enable-background:new 0 0 200 200;" xml:space="preserve">
<style type="text/css">
	.st0{fill:none;}
</style>
<g>
	<path class="st0" d="M50.6,88.2c-2.9,0-5.9,1.2-8.2,3.5c-2.3,2.4-3.5,5.3-3.5,8.2c0,3.5,1.2,5.9,3.5,8.2c2.4,2.4,5.3,3.5,8.2,3.5
		c3.5,0,6.5-1.2,8.8-3.5c1.8-2.3,2.9-4.7,2.9-8.2c0-2.9-1.2-5.9-2.9-8.2C57.1,89.4,54.1,88.2,50.6,88.2z"/>
	<path class="st0" d="M100.6,88.2c-3.5,0-6.5,1.2-8.2,3.5c-2.3,2.4-3.5,5.3-3.5,8.2c0,3.5,1.2,5.9,3.5,8.2c1.8,2.4,4.7,3.5,8.2,3.5
		c2.9,0,5.9-1.2,8.2-3.5c2.3-2.3,3.5-4.7,3.5-8.2c0-2.9-1.2-5.9-3.5-8.2C106.5,89.4,103.5,88.2,100.6,88.2z"/>
	<path class="st0" d="M150,88.2c-2.9,0-5.9,1.2-8.2,3.5c-2.4,2.4-3.5,5.3-3.5,8.2c0,3.5,1.2,5.9,3.5,8.2c2.4,2.4,5.3,3.5,8.2,3.5
		c3.5,0,6.5-1.2,8.8-3.5c1.8-2.3,2.9-4.7,2.9-8.2c0-2.9-1.2-5.9-2.9-8.2C156.5,89.4,153.5,88.2,150,88.2z"/>
	<path d="M170.6,29.4C151.2,10,127.6,0,100,0C72.4,0,48.8,10,29.4,29.4C9.4,48.8,0,72.4,0,100c0,27.6,9.4,51.2,29.4,71.2
		C48.8,190.6,72.4,200,100,200c27.6,0,51.2-9.4,70.6-28.8c19.4-20,29.4-43.5,29.4-71.2C200,72.4,190,48.8,170.6,29.4z M59.4,108.2
		c-2.4,2.4-5.3,3.5-8.8,3.5c-2.9,0-5.9-1.2-8.2-3.5c-2.3-2.3-3.5-4.7-3.5-8.2c0-2.9,1.2-5.9,3.5-8.2c2.4-2.4,5.3-3.5,8.2-3.5
		c3.5,0,6.5,1.2,8.8,3.5c1.8,2.4,2.9,5.3,2.9,8.2C62.4,103.5,61.2,105.9,59.4,108.2z M108.8,108.2c-2.4,2.4-5.3,3.5-8.2,3.5
		c-3.5,0-6.5-1.2-8.2-3.5c-2.3-2.3-3.5-4.7-3.5-8.2c0-2.9,1.2-5.9,3.5-8.2c1.8-2.4,4.7-3.5,8.2-3.5c2.9,0,5.9,1.2,8.2,3.5
		c2.3,2.4,3.5,5.3,3.5,8.2C112.4,103.5,111.2,105.9,108.8,108.2z M158.8,108.2c-2.4,2.4-5.3,3.5-8.8,3.5c-2.9,0-5.9-1.2-8.2-3.5
		c-2.4-2.3-3.5-4.7-3.5-8.2c0-2.9,1.2-5.9,3.5-8.2c2.4-2.4,5.3-3.5,8.2-3.5c3.5,0,6.5,1.2,8.8,3.5c1.8,2.4,2.9,5.3,2.9,8.2
		C161.8,103.5,160.6,105.9,158.8,108.2z"/>
</g>
</svg>
