<?xml version="1.0" encoding="utf-8"?>
<!-- Generator: Adobe Illustrator 22.1.0, SVG Export Plug-In . SVG Version: 6.00 Build 0)  -->
<svg version="1.1" id="图层_1" xmlns="http://www.w3.org/2000/svg" xmlns:xlink="http://www.w3.org/1999/xlink" x="0px" y="0px"
	 viewBox="0 0 200 200" style="enable-background:new 0 0 200 200;" xml:space="preserve">
<style type="text/css">
	.st0{fill:none;}
</style>
<path class="st0" d="M155.6,57.4c-1.8,0-3.5,1.2-4.7,2.4L85,125L49.1,89.7c-1.8-1.8-2.9-2.4-5.3-2.4c-2.4,0-3.5,0.6-5.3,2.4
	c-1.2,1.2-1.8,2.9-1.8,4.7c0,2.4,0.6,4.1,1.8,5.3l41.2,41.2c1.8,1.2,2.9,1.8,5.3,1.8c1.8,0,3.5-0.6,5.3-1.8l70.6-70.6
	c1.8-1.8,2.4-3.5,2.4-5.3c0-2.3-0.6-3.5-2.4-5.3C159.7,58.5,157.9,57.4,155.6,57.4z"/>
<path d="M100,0C72.4,0,48.8,9.4,29.4,29.4C10,48.8,0,72.4,0,100s10,51.2,29.4,70.6C48.8,190,72.4,200,100,200
	c27.6,0,51.2-10,71.2-29.4c19.4-19.4,28.8-42.9,28.8-70.6s-9.4-51.2-28.8-70.6C151.2,9.4,127.6,0,100,0z M161.8,70l-70.6,70.6
	c-1.8,1.2-3.5,1.8-5.3,1.8c-2.4,0-3.5-0.6-5.3-1.8L39.4,99.4c-1.2-1.2-1.8-2.9-1.8-5.3c0-1.8,0.6-3.5,1.8-4.7
	c1.8-1.8,2.9-2.4,5.3-2.4c2.4,0,3.5,0.6,5.3,2.4l35.9,35.3l65.9-65.3c1.2-1.2,2.9-2.4,4.7-2.4c2.4,0,4.1,1.2,5.3,2.4
	c1.8,1.8,2.4,2.9,2.4,5.3C164.1,66.5,163.5,68.2,161.8,70z"/>
</svg>
