<?xml version="1.0" encoding="utf-8"?>
<!-- Generator: Adobe Illustrator 22.1.0, SVG Export Plug-In . SVG Version: 6.00 Build 0)  -->
<svg version="1.1" id="图层_1" xmlns="http://www.w3.org/2000/svg" xmlns:xlink="http://www.w3.org/1999/xlink" x="0px" y="0px"
	 viewBox="0 0 200 200" style="enable-background:new 0 0 200 200;" xml:space="preserve">
<style type="text/css">
	.st0{fill:none;}
</style>
<g>
	<path class="st0" d="M141.9,90.4c0-2.4-0.5-4.8-2.4-6.2c-1.9-1.5-3.8-2.9-6.7-2.9c-2.4,0-4.8,1.5-6.2,2.9c-1.9,1.4-2.9,3.8-2.9,6.2
		c0,2.9,1,4.8,2.9,6.7c1.4,1.9,3.8,2.9,6.2,2.9c2.9,0,4.8-1,6.7-2.9C141.4,95.2,141.9,93.3,141.9,90.4z"/>
	<path class="st0" d="M77.2,90.4c-0.5-2.4-1.5-4.8-2.9-6.2c-1.9-1.5-3.8-2.9-6.7-2.9c-2.4,0-4.8,1.5-6.2,2.9
		c-1.9,1.4-2.9,3.8-2.9,6.2c0,2.9,1,4.8,2.9,6.7c1.5,1.9,3.8,2.9,6.2,2.9c2.9,0,4.8-1,6.7-2.9C75.8,95.2,76.7,93.3,77.2,90.4z"/>
	<path class="st0" d="M100.4,148.1c9.1-0.5,16.7-3.3,22.9-10c5.7-5.2,8.6-11.4,9.6-19c0.5-2.4-1-3.8-4.3-3.8H71.9
		c-2.9,0-4.3,1.4-4.3,3.8c0.9,7.6,4.3,13.8,9.5,19C83.7,144.8,91.4,147.6,100.4,148.1z"/>
	<path class="st0" d="M152.3,43.3v-7.6c0-17.9-8.3-26.2-26.2-26.2H74.3c-18.2,0-26.7,8.3-26.7,26.2v7.6H152.3z"/>
	<path class="st0" d="M9.9,174.8c1.3,10.8,7.4,15.7,19.2,15.7H171c11.9,0,17.9-4.9,19.2-15.7H9.9z"/>
	<path d="M200,169V73.2c0-19.3-10.3-30-29-30h-9.1v-7.5c0-23-12.7-35.7-35.7-35.7H74.3C50.9,0,38.1,12.7,38,35.7v7.6h-9
		c-18.7,0-29,10.7-29,30V170c0,19.3,10.3,30,29,30h142c18.7,0,29-10.7,29.1-30C200.1,169.7,200.1,169.3,200,169z M71.9,115.3h56.7
		c3.3,0,4.8,1.4,4.3,3.8c-1,7.6-3.9,13.8-9.6,19c-6.2,6.7-13.8,9.5-22.9,10c-9-0.5-16.7-3.3-23.3-10c-5.2-5.2-8.6-11.4-9.5-19
		C67.6,116.7,69,115.3,71.9,115.3z M67.6,100c-2.4,0-4.7-1-6.2-2.9c-1.9-1.9-2.9-3.8-2.9-6.7c0-2.4,1-4.8,2.9-6.2
		c1.4-1.4,3.8-2.9,6.2-2.9c2.9,0,4.8,1.4,6.7,2.9c1.4,1.4,2.4,3.8,2.9,6.2c-0.5,2.9-1.4,4.8-2.9,6.7C72.4,99,70.5,100,67.6,100z
		 M132.8,100c-2.4,0-4.8-1-6.2-2.9c-1.9-1.9-2.9-3.8-2.9-6.7c0-2.4,1-4.8,2.9-6.2c1.4-1.4,3.8-2.9,6.2-2.9c2.9,0,4.8,1.4,6.7,2.9
		c1.9,1.4,2.4,3.8,2.4,6.2c0,2.9-0.5,4.8-2.4,6.7C137.6,99,135.7,100,132.8,100z M74.3,9.5h51.8c17.9,0,26.2,8.3,26.2,26.2v7.6H47.6
		v-7.6C47.6,17.8,56.1,9.5,74.3,9.5z M171,190.5H29.1c-11.9,0-17.9-4.9-19.2-15.7h180.4C188.9,185.6,182.9,190.5,171,190.5z"/>
</g>
</svg>
