<?xml version="1.0" encoding="utf-8"?>
<!-- Generator: Adobe Illustrator 22.1.0, SVG Export Plug-In . SVG Version: 6.00 Build 0)  -->
<svg version="1.1" id="图层_1" xmlns="http://www.w3.org/2000/svg" xmlns:xlink="http://www.w3.org/1999/xlink" x="0px" y="0px"
	 viewBox="0 0 200 200" style="enable-background:new 0 0 200 200;" xml:space="preserve">
<g>
	<g>
		<g>
			<path d="M120.6,20.6c-3.5,0-6.2-2.8-6.2-6.2V6.9c0-3.5,2.8-6.2,6.2-6.2s6.2,2.8,6.2,6.2v7.5C126.9,17.8,124.1,20.6,120.6,20.6z"
				/>
		</g>
		<g>
			<path d="M178.1,77.5c-3.5,0-6.2-2.8-6.2-6.2V45.6c0-17.1-7.9-25-25-25h-3.1c-3.5,0-6.2-2.8-6.2-6.2s2.8-6.2,6.2-6.2h3.1
				c24.2,0,37.5,13.3,37.5,37.5v25.6C184.4,74.7,181.6,77.5,178.1,77.5z"/>
		</g>
		<g>
			<path d="M78.1,20.6c-3.5,0-6.2-2.8-6.2-6.2V6.2c0-3.5,2.8-6.2,6.2-6.2s6.2,2.8,6.2,6.2v8.1C84.4,17.8,81.6,20.6,78.1,20.6z"/>
		</g>
		<g>
			<path d="M21.9,77.5c-3.5,0-6.2-2.8-6.2-6.2V45.6c0-23.8,13.7-37.5,37.5-37.5h3.1c3.5,0,6.2,2.8,6.2,6.2s-2.8,6.2-6.2,6.2h-3.1
				c-16.8,0-25,8.2-25,25v25.6C28.1,74.7,25.3,77.5,21.9,77.5z"/>
		</g>
		<g>
			<path d="M146.9,200H53.1c-23.8,0-37.5-13.4-37.5-36.9V93.7c0-3.5,2.8-6.2,6.2-6.2s6.2,2.8,6.2,6.2v69.4c0,16.6,7.9,24.4,25,24.4
				h93.7c17.3,0,25-7.5,25-24.4V93.7c0-3.5,2.8-6.2,6.2-6.2c3.5,0,6.2,2.8,6.2,6.2v69.4C184.4,186.9,171.1,200,146.9,200z"/>
		</g>
		<g>
			<path d="M120.6,20.6H78.1c-3.5,0-6.2-2.8-6.2-6.2s2.8-6.2,6.2-6.2h42.5c3.5,0,6.2,2.8,6.2,6.2S124.1,20.6,120.6,20.6z"/>
		</g>
		<g>
			<path d="M78.1,27.5c-3.5,0-6.2-2.8-6.2-6.2v-6.9c0-3.5,2.8-6.2,6.2-6.2s6.2,2.8,6.2,6.2v6.9C84.4,24.7,81.6,27.5,78.1,27.5z"/>
		</g>
		<g>
			<path d="M120.6,28.8c-3.5,0-6.2-2.8-6.2-6.2v-8.1c0-3.5,2.8-6.2,6.2-6.2s6.2,2.8,6.2,6.2v8.1C126.9,26,124.1,28.8,120.6,28.8z"/>
		</g>
		<g>
			<path d="M150,176.2H50c-3.5,0-6.2-2.8-6.2-6.2s2.8-6.2,6.2-6.2h100c3.5,0,6.2,2.8,6.2,6.2S153.5,176.2,150,176.2z"/>
		</g>
	</g>
	<g>
		<g>
			<g>
				<path d="M122.5,69.7c-3.5,0-6.2-2.8-6.2-6.2v-5c0-3.5,2.8-6.2,6.2-6.2s6.2,2.8,6.2,6.2v5C128.7,66.9,125.9,69.7,122.5,69.7z"/>
			</g>
			<g>
				<path d="M77.5,69.7c-3.5,0-6.2-2.8-6.2-6.2v-5c0-3.5,2.8-6.2,6.2-6.2s6.2,2.8,6.2,6.2v5C83.8,66.9,81,69.7,77.5,69.7z"/>
			</g>
		</g>
		<g>
			<path d="M100,96c-8.3,0-16-4.6-20-12c-1.7-3-0.5-6.8,2.5-8.5c3-1.6,6.8-0.5,8.5,2.5c1.8,3.4,5.3,5.5,9.1,5.5
				c3.7,0,7.2-2.1,9.1-5.5c1.7-3,5.5-4.1,8.5-2.5s4.1,5.5,2.5,8.5C116,91.4,108.3,96,100,96z"/>
		</g>
	</g>
</g>
</svg>
