<?xml version="1.0" encoding="utf-8"?>
<!-- Generator: Adobe Illustrator 22.1.0, SVG Export Plug-In . SVG Version: 6.00 Build 0)  -->
<svg version="1.1" id="图层_1" xmlns="http://www.w3.org/2000/svg" xmlns:xlink="http://www.w3.org/1999/xlink" x="0px" y="0px"
	 viewBox="0 0 200 200" style="enable-background:new 0 0 200 200;" xml:space="preserve">
<style type="text/css">
	.st0{fill:none;}
</style>
<g>
	<path class="st0" d="M70.6,129.4H23.7v46.9h46.9V129.4z M59.4,165H35.6v-23.8h23.7V165z"/>
	<path class="st0" d="M129.4,70.6h47.5V23.7h-47.5V70.6z M141.3,35H165v23.8h-23.7V35z"/>
	<path class="st0" d="M70.6,23.7H23.7v46.9h46.9V23.7z M59.4,58.8H35.6V35h23.7V58.8z"/>
	<path d="M106.3,0v94.4H200V0H106.3z M176.9,70.6h-47.5V23.7h47.5V70.6z"/>
	<rect x="141.3" y="35" width="23.7" height="23.8"/>
	<rect x="106.3" y="105.6" width="23.1" height="23.7"/>
	<polygon points="176.9,176.2 153.1,176.2 153.1,200 200,200 200,153.1 176.9,153.1 	"/>
	<rect x="129.4" y="129.4" width="23.7" height="46.9"/>
	<rect x="106.3" y="176.2" width="23.1" height="23.8"/>
	<rect x="176.9" y="105.6" width="23.1" height="23.7"/>
	<path d="M0,200h94.4v-94.4H0V200z M23.7,129.4h46.9v46.9H23.7V129.4z"/>
	<rect x="35.6" y="141.2" width="23.7" height="23.8"/>
	<path d="M0,94.4h94.4V0H0V94.4z M23.7,23.7h46.9v46.9H23.7V23.7z"/>
	<rect x="35.6" y="35" width="23.7" height="23.8"/>
</g>
</svg>
