<?xml version="1.0" encoding="utf-8"?>
<!-- Generator: Adobe Illustrator 22.1.0, SVG Export Plug-In . SVG Version: 6.00 Build 0)  -->
<svg version="1.1" id="图层_1" xmlns="http://www.w3.org/2000/svg" xmlns:xlink="http://www.w3.org/1999/xlink" x="0px" y="0px"
	 viewBox="0 0 200 200" style="enable-background:new 0 0 200 200;" xml:space="preserve">
<style type="text/css">
	.st0{clip-path:url(#SVGID_2_);fill:#1E95D4;}
</style>
<g>
	<g>
		<g>
			<defs>
				<rect id="SVGID_1_" y="-0.2" width="200" height="200.4"/>
			</defs>
			<clipPath id="SVGID_2_">
				<use xlink:href="#SVGID_1_"  style="overflow:visible;"/>
			</clipPath>
			<path class="st0" d="M55.6,154.5c-29.3,0-34-18.6-32.2-26.3c1.5-7.7,9.9-17.6,26.3-17.6c18.6,0,35.5,4.8,55.6,14.6
				C90.7,143.9,73.5,154.5,55.6,154.5L55.6,154.5z M200,136.9V38.6c0-21.2-17.2-38.4-38.4-38.4H38.4C17.2,0.2,0,17.4,0,38.6v123.2
				c0,21.2,17.2,38.4,38.4,38.4h123.2c19,0,34.7-13.5,38-31.8c-10.2-4.4-54.5-23.4-77.5-34.4c-17.6,21.2-35.8,34-63.6,34
				s-46.1-16.8-43.9-38c1.5-13.5,11-36.2,51.6-32.2c21.6,1.8,31.4,6.2,49,11.7c4.4-8.4,8.4-17.6,11.3-27.1H49v-7.7h38.4V60.9H40.6
				v-8.4h46.8V32.4c0,0,0.4-3.3,4-3.3h19.4v23h50.1v8.4h-50.1v13.9h41c-3.7,15.4-9.5,29.3-16.5,41.7
				C146.3,120.5,200,136.9,200,136.9L200,136.9z"/>
		</g>
	</g>
</g>
</svg>
