<?xml version="1.0" encoding="utf-8"?>
<!-- Generator: Adobe Illustrator 22.1.0, SVG Export Plug-In . SVG Version: 6.00 Build 0)  -->
<svg version="1.1" id="图层_1" xmlns="http://www.w3.org/2000/svg" xmlns:xlink="http://www.w3.org/1999/xlink" x="0px" y="0px"
	 viewBox="0 0 200 200" style="enable-background:new 0 0 200 200;" xml:space="preserve">
<g>
	<g>
		<g>
			<path d="M39.7,200c-13.5-0.4-23.2-3.9-29.9-10.6c-6.8-6.8-10.1-16.9-9.7-29.9L0,38.9C-0.4,26.4,2.8,16.5,9.6,9.8
				c6.9-6.9,17-10.2,30.3-9.7l68.9,0c3,0,5.5,2.4,5.5,5.5s-2.4,5.5-5.5,5.5H39.7c-10.2-0.4-17.7,1.9-22.4,6.5
				c-4.5,4.5-6.7,11.7-6.4,21.3l0,120.9c-0.3,10.2,1.8,17.4,6.5,22c4.6,4.6,12.1,7.1,22.4,7.4h119.8c20.6-0.6,29.5-9.5,29.5-29.4
				V70.2c0-3,2.4-5.5,5.5-5.5c3,0,5.5,2.4,5.5,5.5v89.4c0,25.9-13.5,39.5-40.2,40.4H39.7z"/>
		</g>
		<g>
			<path d="M85.5,169.5c-0.3,0-0.5,0-0.8,0c-3-0.4-5.1-3.2-4.6-6.2c6.7-47.5,24.7-83.8,53.5-108.1c2.3-1.9,5.7-1.6,7.7,0.7
				c1.9,2.3,1.6,5.7-0.7,7.7C113.9,86,97.2,120.1,90.9,164.8C90.5,167.5,88.2,169.5,85.5,169.5z"/>
		</g>
	</g>
	<g>
		<g>
			<g>
				<path d="M194.5,16.7c-3,0-5.5-2.4-5.5-5.5V5.5c0-3,2.4-5.5,5.5-5.5c3,0,5.5,2.4,5.5,5.5v5.8C200,14.3,197.6,16.7,194.5,16.7z"/>
			</g>
			<g>
				<path d="M142.2,16.7c-3,0-5.5-2.4-5.5-5.5V5.5c0-3,2.4-5.5,5.5-5.5c3,0,5.5,2.4,5.5,5.5v5.8C147.7,14.3,145.2,16.7,142.2,16.7z"
					/>
			</g>
		</g>
		<g>
			<path d="M168.4,47.3c-9,0-17.3-5-21.7-13c-1.4-2.6-0.5-6,2.2-7.4c2.6-1.4,6-0.5,7.4,2.2c2.5,4.5,7.1,7.3,12.1,7.3
				s9.7-2.8,12.1-7.3c1.4-2.6,4.8-3.6,7.4-2.2c2.6,1.4,3.6,4.8,2.2,7.4C185.7,42.3,177.4,47.3,168.4,47.3z"/>
		</g>
	</g>
</g>
</svg>
