<?xml version="1.0" encoding="utf-8"?>
<!-- Generator: Adobe Illustrator 22.1.0, SVG Export Plug-In . SVG Version: 6.00 Build 0)  -->
<svg version="1.1" id="图层_1" xmlns="http://www.w3.org/2000/svg" xmlns:xlink="http://www.w3.org/1999/xlink" x="0px" y="0px"
	 viewBox="0 0 200 200" style="enable-background:new 0 0 200 200;" xml:space="preserve">
<style type="text/css">
	.st0{fill:none;}
</style>
<g>
	<path class="st0" d="M141.8,58.8l-13.2,13.9c-1.6-1.6-3.2-1.9-5.3-1.9c-2.6,0.1-5,1.5-5.9,3.9c-0.3,0.8-0.4,1.6-0.4,2.7
		c0.1,2.2,0.6,3.5,1.8,4.7c1.4,1.2,2.8,1.9,4.7,1.9l-3.1,11.7H78.7L76,84l2.7,11.8c-1.9,0-3.1,0.8-2.7,2.7c0.4,5,2.7,9.7,6.6,13.6
		c4.7,4.7,10.6,7,17.2,7.4c6.7-0.4,12.1-2.7,16.8-7.4c4.3-3.9,6.6-8.5,7-13.6v-0.4c0.4-1.5-0.8-2.3-3.1-2.3l3.1-11.7
		c2,0,3.5-0.3,5.1-1.9c1.2-1.2,1.6-2.7,1.6-4.7s-0.4-3.1-1.6-4.7l13.2-13.9C141.9,58.9,141.9,58.9,141.8,58.8z"/>
	<path class="st0" d="M82.5,77.3c0-2-0.7-3.1-1.9-4.7c-1.6-1.5-3.1-1.9-4.7-1.9c-1.9,0-3.2,0.6-4.5,1.8c-0.2,0.1-0.3,0.3-0.4,0.4
		c-1.1,1.4-1.4,2.2-1.7,4.1c0,0.2,0,0.4,0,0.6c0.2,2.2,0.9,3.6,1.8,4.6c1.5,1.3,3,1.8,4.9,1.8c1.6,0,3.1-0.4,4.6-2
		C81.7,80.8,82.5,79.3,82.5,77.3z"/>
	<path d="M164.7,31.1l-6.2,6.6c-1.4,1.6-1.4,4,0.2,5.5c0.8,0.7,1.7,1.1,2.7,1.1s2.1-0.5,2.8-1.3l6.2-6.6c1.4-1.6,1.4-4-0.2-5.5
		C168.6,29.5,166.2,29.5,164.7,31.1z"/>
	<path d="M38.2,44.3c1,0,2.1-0.5,2.8-1.3c1.4-1.6,1.4-4-0.2-5.5l-6.6-6.2c-1.6-1.4-4-1.4-5.5,0.2c-1.4,1.6-1.4,4,0.2,5.5l6.6,6.2
		C36.3,43.9,37.2,44.3,38.2,44.3z"/>
	<path d="M99.9,33.7c-18.9,0-34.5,6.4-47.6,19.5c-13.1,13.1-19.5,28.7-19.5,47.6c0,19.2,6.4,34.9,19.5,48
		c13.3,12.9,29.3,19.4,47.5,19.4c18.3,0,34.3-6.5,47.7-19.4c13.4-13.4,19.9-29.1,19.9-48c0-18.4-6.7-34.4-19.9-47.6
		C134.4,40.1,118.8,33.7,99.9,33.7z M128.7,72.8c1.2,1.6,1.6,2.7,1.6,4.7s-0.4,3.5-1.6,4.7c-1.6,1.6-3.1,1.9-5.1,1.9l-3.2,11.6
		c2.3,0,3.2,0.2,3.2,2.4v0.4c-0.4,5.1-2.7,9.7-7,13.6c-4.7,4.7-10.1,7-16.8,7.4c-6.6-0.4-12.5-2.7-17.2-7.4
		c-3.9-3.9-6.2-8.6-6.6-13.6c-0.4-1.9,0.8-2.8,2.7-2.8L76,84c-1.9,0-3.4-0.5-4.9-1.8c-0.9-1-1.6-2.4-1.8-4.6c0-0.2,0-0.4,0-0.6
		c0.3-1.9,0.6-2.7,1.7-4.1c0.1-0.1,0.2-0.3,0.4-0.4c1.3-1.2,2.6-1.8,4.5-1.8c1.6,0,3.1,0.4,4.7,1.9c1.2,1.6,1.9,2.7,1.9,4.7
		s-0.8,3.5-1.9,4.7c-1.5,1.6-3,2-4.6,2l2.7,11.7h41.7l3.3-11.6c-1.9,0-3.5-0.8-4.9-2c-1.2-1.2-1.7-2.5-1.8-4.7
		c0-1.1,0.1-1.9,0.4-2.7c0.9-2.4,3.3-3.8,5.9-3.9C125.4,70.8,127.1,71.2,128.7,72.8"/>
	<path d="M115.4,189.7H85c-2.2,0-3.9,1.7-3.9,3.9c0,2.2,1.7,3.9,3.9,3.9h30.4c2.2,0,3.9-1.8,3.9-3.9
		C119.3,191.4,117.6,189.7,115.4,189.7z"/>
	<path d="M124.3,175.6H76c-2.2,0-3.9,1.7-3.9,3.9s1.7,3.9,3.9,3.9h48.4c2.1,0,3.9-1.7,3.8-3.9C128.2,177.3,126.5,175.6,124.3,175.6z
		"/>
	<path d="M12.9,98h-9C1.7,98,0,99.7,0,101.9c0,2.2,1.7,3.9,3.9,3.9h9c2.1,0,3.9-1.7,3.9-3.9C16.8,99.7,15.1,98,12.9,98z"/>
	<path d="M196.1,96.9h-9c-2.2,0-3.9,1.7-3.9,3.9s1.7,3.9,3.9,3.9h9c2.2,0,3.9-1.8,3.9-3.9C200,98.6,198.3,96.9,196.1,96.9z"/>
	<path d="M100.2,19.3c2.1,0,3.9-1.7,3.9-3.9v-9c0-2.2-1.7-3.9-3.9-3.9s-3.9,1.7-3.9,3.9v9C96.3,17.6,98,19.3,100.2,19.3z"/>
</g>
</svg>
