<?xml version="1.0" encoding="utf-8"?>
<!-- Generator: Adobe Illustrator 22.1.0, SVG Export Plug-In . SVG Version: 6.00 Build 0)  -->
<svg version="1.1" id="图层_1" xmlns="http://www.w3.org/2000/svg" xmlns:xlink="http://www.w3.org/1999/xlink" x="0px" y="0px"
	 viewBox="0 0 200 200" style="enable-background:new 0 0 200 200;" xml:space="preserve">
<g>
	<g>
		<g>
			<path d="M158.1,57.1c-1.9,0-3.7-1.2-4.5-3.1c-0.9-2.5,0.3-5.2,2.8-6.1l2-0.7v-31c0-4.4-1.1-6.7-7.3-6.7h-29.2
				c-2.6,0-4.8-2.1-4.8-4.8s2.1-4.8,4.8-4.8h29.2c10.7,0,16.8,5.9,16.8,16.2v34.3c0,2-1.2,3.8-3.1,4.5l-5.1,1.9
				C159.2,57,158.6,57.1,158.1,57.1z M163.2,50.5L163.2,50.5L163.2,50.5z"/>
		</g>
		<g>
			<path d="M121.9,38.1c-2.6,0-4.8-2.1-4.8-4.8V4.8c0-2.6,2.1-4.8,4.8-4.8s4.8,2.1,4.8,4.8v28.6C126.7,36,124.5,38.1,121.9,38.1z"/>
		</g>
		<g>
			<path d="M41.3,57.1c-0.6,0-1.3-0.1-1.9-0.4L35,54.9c-1.8-0.7-2.9-2.5-2.9-4.4V16.2c-0.5-5.7,1.6-9.4,3.5-11.4
				c2-2.2,5.8-4.7,12.7-4.7h29.8c2.6,0,4.8,2.1,4.8,4.8s-2.1,4.8-4.8,4.8H48.3c-2.7,0-4.7,0.6-5.7,1.7c-0.9,0.9-1.2,2.5-1,4.6
				l0,31.5l1.6,0.7c2.4,1,3.5,3.8,2.5,6.2C44.9,56.1,43.1,57.1,41.3,57.1z"/>
		</g>
		<g>
			<path d="M99.7,200c-20.6,0-39-7.8-53-22.4c-14.5-13.9-21.6-31.2-21.6-52.8c0-20.7,7.3-38.5,21.7-52.9l0,0
				C61,57.7,79.3,50.2,99.7,50.2c20.7,0,38.5,7.3,52.9,21.7c14.8,14.8,22.3,32.6,22.3,52.9c0,20.9-7.5,38.8-22.4,53
				C138.4,192.5,120.6,200,99.7,200z M53.5,78.6c-12.7,12.7-18.9,27.8-18.9,46.2c0,18.9,6.2,34,18.8,46.1
				c12.3,12.9,28.3,19.6,46.2,19.6c18.5,0,33.6-6.4,46.1-19.5c13.3-12.7,19.6-27.7,19.6-46.2c0-17.9-6.4-33-19.5-46.2
				C133.3,66,117.7,59.7,99.7,59.7C81.9,59.7,65.9,66.2,53.5,78.6L53.5,78.6z"/>
		</g>
		<g>
			<path d="M78.1,38.1c-2.6,0-4.8-2.1-4.8-4.8V4.8c0-2.6,2.1-4.8,4.8-4.8s4.8,2.1,4.8,4.8v28.6C82.9,36,80.7,38.1,78.1,38.1z"/>
		</g>
		<g>
			<path d="M121.9,9.5H78.1c-2.6,0-4.8-2.1-4.8-4.8S75.5,0,78.1,0h43.8c2.6,0,4.8,2.1,4.8,4.8S124.5,9.5,121.9,9.5z"/>
		</g>
	</g>
	<g>
		<g>
			<g>
				<path d="M122.8,118.4c-2.6,0-4.8-2.1-4.8-4.8v-5.1c0-2.6,2.1-4.8,4.8-4.8s4.8,2.1,4.8,4.8v5.1
					C127.6,116.3,125.5,118.4,122.8,118.4z"/>
			</g>
			<g>
				<path d="M77.1,118.4c-2.6,0-4.8-2.1-4.8-4.8v-5.1c0-2.6,2.1-4.8,4.8-4.8c2.6,0,4.8,2.1,4.8,4.8v5.1
					C81.9,116.3,79.8,118.4,77.1,118.4z"/>
			</g>
		</g>
		<g>
			<path d="M100,145.1c-7.9,0-15.1-4.3-18.9-11.3c-1.3-2.3-0.4-5.2,1.9-6.5c2.3-1.3,5.2-0.4,6.5,1.9c2.1,3.9,6.2,6.4,10.6,6.4
				c4.4,0,8.4-2.4,10.6-6.4c1.3-2.3,4.2-3.2,6.5-1.9c2.3,1.3,3.1,4.2,1.9,6.5C115.1,140.8,107.9,145.1,100,145.1z"/>
		</g>
	</g>
</g>
</svg>
