<?xml version="1.0" encoding="utf-8"?>
<!-- Generator: Adobe Illustrator 22.1.0, SVG Export Plug-In . SVG Version: 6.00 Build 0)  -->
<svg version="1.1" id="图层_1" xmlns="http://www.w3.org/2000/svg" xmlns:xlink="http://www.w3.org/1999/xlink" x="0px" y="0px"
	 viewBox="0 0 200 200" style="enable-background:new 0 0 200 200;" xml:space="preserve">
<g>
	<g>
		<g>
			<path d="M91.9,139.7c-1.3,0-2.6-0.5-3.6-1.5L53,103.6c-2-2-2-5.2-0.1-7.2c2-2,5.2-2,7.2-0.1l31.7,31l54.1-54.1c2-2,5.2-2,7.2,0
				c2,2,2,5.2,0,7.2l-57.6,57.6C94.5,139.2,93.2,139.7,91.9,139.7z"/>
		</g>
		<g>
			<path d="M100,194.6c-27,0-50.8-10.1-70.7-30C9.9,145.2,0,121.6,0,94.6c0-27.2,9.8-51.2,29.2-71.3C36.4,16.1,44.4,10.3,53,6
				c2.5-1.2,5.6-0.2,6.8,2.3c1.3,2.5,0.2,5.6-2.3,6.8c-7.6,3.8-14.7,9-21.1,15.3C18.8,48.7,10.2,69.7,10.2,94.6
				c0,24.2,8.8,45.4,26.3,62.8c17.9,17.9,39.3,27,63.5,27c25.2,0,46-8.8,63.5-26.9c17.5-16.9,26.4-38,26.4-62.9
				c0-25.5-8.6-46.5-26.3-64.2c-6.1-6.1-13-11.3-20.5-15.4c-2.5-1.3-3.4-4.4-2-6.9c1.3-2.5,4.4-3.4,6.9-2c8.4,4.6,16,10.3,22.9,17.1
				C190.4,42.9,200,66.3,200,94.6c0,27.7-9.9,51.3-29.4,70.1C151.6,184.5,127.7,194.6,100,194.6z"/>
		</g>
	</g>
	<g>
		<g>
			<g>
				<path d="M124.4,21c-2.8,0-5.1-2.3-5.1-5.1v-5.4c0-2.8,2.3-5.1,5.1-5.1c2.8,0,5.1,2.3,5.1,5.1v5.4C129.5,18.7,127.2,21,124.4,21z
					"/>
			</g>
			<g>
				<path d="M75.6,21c-2.8,0-5.1-2.3-5.1-5.1v-5.4c0-2.8,2.3-5.1,5.1-5.1c2.8,0,5.1,2.3,5.1,5.1v5.4C80.7,18.7,78.4,21,75.6,21z"/>
			</g>
		</g>
		<g>
			<path d="M100,49.5c-8.4,0-16.2-4.6-20.2-12.1c-1.3-2.5-0.4-5.6,2-6.9c2.5-1.3,5.6-0.4,6.9,2c2.3,4.2,6.6,6.8,11.3,6.8
				s9-2.6,11.3-6.8c1.3-2.5,4.4-3.4,6.9-2c2.5,1.3,3.4,4.4,2,6.9C116.2,44.9,108.4,49.5,100,49.5z"/>
		</g>
	</g>
</g>
</svg>
