<?xml version="1.0" encoding="utf-8"?>
<!-- Generator: Adobe Illustrator 22.1.0, SVG Export Plug-In . SVG Version: 6.00 Build 0)  -->
<svg version="1.1" id="图层_1" xmlns="http://www.w3.org/2000/svg" xmlns:xlink="http://www.w3.org/1999/xlink" x="0px" y="0px"
	 viewBox="0 0 200 200" style="enable-background:new 0 0 200 200;" xml:space="preserve">
<g>
	<g>
		<g>
			<path d="M18.7,81.6c-2.6,0-4.8-2.1-4.8-4.8v-26c0-21.3,10.5-34.3,29.6-36.5l6.9,0c2.6,0,4.8,2.1,4.8,4.8s-2.1,4.8-4.8,4.8h-6.3
				c-13.7,1.6-20.6,10.4-20.6,27v26C23.5,79.5,21.4,81.6,18.7,81.6z"/>
		</g>
		<g>
			<path d="M180.6,81.6c-2.6,0-4.8-2.1-4.8-4.8v-26c0-16.7-6.1-24.8-20.4-27h-6c-2.6,0-4.8-2.1-4.8-4.8s2.1-4.8,4.8-4.8h6.3
				c0.2,0,0.5,0,0.7,0.1c19.4,2.9,28.8,14.8,28.8,36.5v26C185.4,79.5,183.3,81.6,180.6,81.6z"/>
		</g>
		<g>
			<path d="M77.1,185.7H50.5C26.5,185,14,172.4,14,149.2v-26c0-2.6,2.1-4.8,4.8-4.8s4.8,2.1,4.8,4.8v26c0,18.1,8.4,26.4,27.1,27
				h26.5c2.6,0,4.8,2.1,4.8,4.8S79.8,185.7,77.1,185.7z"/>
		</g>
		<g>
			<path d="M122.9,185.7c-2.6,0-4.8-2.1-4.8-4.8s2.1-4.8,4.8-4.8h26.7c18.4-0.6,26.3-8.6,26.3-27v-26c0-2.6,2.1-4.8,4.8-4.8
				s4.8,2.1,4.8,4.8v26c0,23.5-12,35.8-35.7,36.5H122.9z"/>
		</g>
		<g>
			<path d="M195.2,104.4H4.8c-2.6,0-4.8-2.1-4.8-4.8s2.1-4.8,4.8-4.8h190.5c2.6,0,4.8,2.1,4.8,4.8S197.9,104.4,195.2,104.4z"/>
		</g>
	</g>
	<g>
		<g>
			<g>
				<path d="M122.9,28.9c-2.6,0-4.8-2.1-4.8-4.8V19c0-2.6,2.1-4.8,4.8-4.8s4.8,2.1,4.8,4.8v5.1C127.6,26.8,125.5,28.9,122.9,28.9z"
					/>
			</g>
			<g>
				<path d="M77.1,28.9c-2.6,0-4.8-2.1-4.8-4.8V19c0-2.6,2.1-4.8,4.8-4.8s4.8,2.1,4.8,4.8v5.1C81.9,26.8,79.8,28.9,77.1,28.9z"/>
			</g>
		</g>
		<g>
			<path d="M100,55.6c-7.9,0-15.1-4.3-19-11.3c-1.3-2.3-0.4-5.2,1.9-6.5c2.3-1.3,5.2-0.4,6.5,1.9c2.1,3.9,6.2,6.4,10.6,6.4
				c4.4,0,8.4-2.4,10.6-6.4c1.3-2.3,4.1-3.2,6.5-1.9c2.3,1.3,3.1,4.2,1.9,6.5C115.1,51.3,107.9,55.6,100,55.6z"/>
		</g>
	</g>
</g>
</svg>
