<?xml version="1.0" encoding="utf-8"?>
<!-- Generator: Adobe Illustrator 22.1.0, SVG Export Plug-In . SVG Version: 6.00 Build 0)  -->
<svg version="1.1" id="图层_1" xmlns="http://www.w3.org/2000/svg" xmlns:xlink="http://www.w3.org/1999/xlink" x="0px" y="0px"
	 viewBox="0 0 200 200" style="enable-background:new 0 0 200 200;" xml:space="preserve">
<g>
	<g>
		<g>
			<path d="M184.4,63.7c-2.8,0-5.1-2.3-5.1-5.1V38.5l-78.3-28l-80.3,28v20.1c0,2.8-2.3,5.1-5.1,5.1s-5.1-2.3-5.1-5.1V34.9
				c0-2.2,1.4-4.1,3.4-4.8L99.3,0.3c1.1-0.4,2.3-0.4,3.4,0l83.4,29.8c2,0.7,3.4,2.6,3.4,4.8v23.7C189.5,61.4,187.2,63.7,184.4,63.7z
				"/>
		</g>
		<g>
			<path d="M101,200c-0.7,0-1.4-0.1-2-0.4c-46-20.2-75.6-48.1-88.2-82.9c-0.2-0.5-0.3-1.1-0.3-1.7V83.7c0-2.8,2.3-5.1,5.1-5.1
				s5.1,2.3,5.1,5.1V114c11.7,31.7,38,56.3,80.3,75.3c41-19,66.7-43.7,78.3-75.3V83.7c0-2.8,2.3-5.1,5.1-5.1c2.8,0,5.1,2.3,5.1,5.1
				v31.2c0,0.6-0.1,1.2-0.3,1.7c-12.5,34.8-41.5,62.7-86.1,82.9C102.4,199.8,101.7,200,101,200z"/>
		</g>
		<g>
			<path d="M97.6,150.5C97.6,150.5,97.6,150.5,97.6,150.5c-1.4,0-2.7-0.6-3.6-1.5l-29.8-30.5c-2-2-1.9-5.2,0.1-7.2
				c2-2,5.2-1.9,7.2,0.1l26.3,26.9l49.2-48.6c2-2,5.2-2,7.2,0c2,2,1.9,5.2,0,7.2L101.2,149C100.3,150,99,150.5,97.6,150.5z"/>
		</g>
	</g>
	<g>
		<g>
			<g>
				<path d="M124.4,50.9c-2.8,0-5.1-2.3-5.1-5.1v-5.4c0-2.8,2.3-5.1,5.1-5.1s5.1,2.3,5.1,5.1v5.4C129.5,48.6,127.2,50.9,124.4,50.9z
					"/>
			</g>
			<g>
				<path d="M75.6,50.9c-2.8,0-5.1-2.3-5.1-5.1v-5.4c0-2.8,2.3-5.1,5.1-5.1s5.1,2.3,5.1,5.1v5.4C80.7,48.6,78.4,50.9,75.6,50.9z"/>
			</g>
		</g>
		<g>
			<path d="M100,79.4c-8.4,0-16.2-4.6-20.2-12.1c-1.3-2.5-0.4-5.6,2-6.9c2.5-1.4,5.6-0.4,6.9,2c2.3,4.2,6.6,6.8,11.3,6.8
				c4.7,0,9-2.6,11.3-6.8c1.4-2.5,4.4-3.4,6.9-2c2.5,1.3,3.4,4.4,2,6.9C116.2,74.8,108.4,79.4,100,79.4z"/>
		</g>
	</g>
</g>
</svg>
