<?xml version="1.0" encoding="utf-8"?>
<!-- Generator: Adobe Illustrator 22.1.0, SVG Export Plug-In . SVG Version: 6.00 Build 0)  -->
<svg version="1.1" id="图层_1" xmlns="http://www.w3.org/2000/svg" xmlns:xlink="http://www.w3.org/1999/xlink" x="0px" y="0px"
	 viewBox="0 0 200 200" style="enable-background:new 0 0 200 200;" xml:space="preserve">
<g>
	<g>
		<path d="M125.5,89.6c0.5-2.3-0.9-3.2-3.2-3.2H78.2c-2.3,0.5-3.7,1.4-3.2,3.2c0.5,5.6,2.8,10.7,7,14.9c5.1,5.1,11.1,7.4,18.1,7.4
			c7.4,0,13.5-2.3,18.1-7.4C122.3,100.2,125.1,95.1,125.5,89.6L125.5,89.6"/>
	</g>
	<g>
		<path d="M100,138.3c-19.3,0-35.7-6.9-48.8-20.4c-13.4-13-20.3-29.4-20.3-48.7c0-19.4,6.7-35.5,20.4-49.2C64.6,6.5,80.6,0,100,0h65
			c2.6,0,4.6,2.1,4.6,4.6v65v0.1c-0.5,19.2-7.2,35-20.4,48.2C135.5,131.6,119.4,138.3,100,138.3z M100,9.3
			c-16.8,0-30.6,5.6-42.2,17.2c-12,12-17.7,25.6-17.7,42.6c0,16.9,5.8,30.7,17.6,42.1c11.5,12,25.3,17.7,42.3,17.7
			s30.6-5.6,42.7-17.7c11.4-11.4,17.2-25.1,17.7-41.8V9.3H100z M165,69.6L165,69.6L165,69.6z"/>
	</g>
	<g>
		<path d="M192.8,200H7.2c-2.6,0-4.6-2.1-4.6-4.6v-25.1c0-7.6,2.8-14.4,8.6-20.8c6.2-6.1,12.8-8.9,21.1-8.9h39.4
			c1.2,0,2.4,0.5,3.3,1.4l25,25.4l25.5-25.5c0.9-0.9,2.1-1.4,3.3-1.4h39.4c7.9,0,15.2,3,20.9,8.8c5.6,6.2,8.3,12.8,8.3,20.5v25.5
			C197.4,197.9,195.4,200,192.8,200z M11.8,190.7h176.3v-20.9c0-5.3-1.8-9.7-5.8-14c-3.9-3.9-8.7-5.9-14.2-5.9h-37.5l-27.4,27.4
			c-0.9,0.9-2.1,1.4-3.3,1.4l0,0c-1.2,0-2.4-0.5-3.3-1.4l-26.9-27.4H32.3c-5.7,0-10.2,1.9-14.4,6.1c-4.1,4.6-6.1,9-6.1,14.4
			C11.8,170.4,11.8,190.7,11.8,190.7z"/>
	</g>
</g>
</svg>
