<?xml version="1.0" encoding="utf-8"?>
<!-- Generator: Adobe Illustrator 22.1.0, SVG Export Plug-In . SVG Version: 6.00 Build 0)  -->
<svg version="1.1" id="图层_1" xmlns="http://www.w3.org/2000/svg" xmlns:xlink="http://www.w3.org/1999/xlink" x="0px" y="0px"
	 viewBox="0 0 200 200" style="enable-background:new 0 0 200 200;" xml:space="preserve">
<g>
	<g>
		<g>
			<path d="M63.8,69.6H31.2c-3,0-5.4-2.4-5.4-5.4V30.8c0-3,2.4-5.4,5.4-5.4h32.6c3,0,5.4,2.4,5.4,5.4v33.3
				C69.2,67.1,66.8,69.6,63.8,69.6z M36.6,58.7h21.7V36.2H36.6V58.7z"/>
		</g>
		<g>
			<path d="M78.3,94.9H16.7c-10.2,0-16.3-6.1-16.3-16.3V16.3C0.4,6.1,6.5,0,16.7,0h61.6c10.2,0,16.3,6.1,16.3,16.3v62.3
				C94.6,88.8,88.5,94.9,78.3,94.9z M16.7,10.9c-4.3,0-5.4,1.2-5.4,5.4v62.3c0,4.3,1.2,5.4,5.4,5.4h61.6c4.3,0,5.4-1.2,5.4-5.4V16.3
				c0-4.3-1.2-5.4-5.4-5.4H16.7z"/>
		</g>
		<g>
			<path d="M16.7,200C6,199,0.4,192.9,0.4,183v-61.6c0-10.2,6.1-16.3,16.3-16.3h61.6c10.2,0,16.3,6.1,16.3,16.3V183
				c0,9.9-5.6,16-15.8,17L16.7,200z M16.7,115.9c-4.3,0-5.4,1.2-5.4,5.4V183c0,3.9,0.9,5.7,6,6.2l61,0c4.6-0.5,5.4-2.3,5.4-6.2
				v-61.6c0-4.3-1.2-5.4-5.4-5.4H16.7z"/>
		</g>
		<g>
			<path d="M183.3,94.9h-61.6c-10.8,0-17-5.9-17-16.3V16.3c0-10.4,6.2-16.3,17-16.3h61.6c10.2,0,16.3,6.1,16.3,16.3v62.3
				C199.6,88.8,193.5,94.9,183.3,94.9z M121.7,10.9c-5.6,0-6.2,1.7-6.2,5.4v62.3c0,3.7,0.6,5.4,6.2,5.4h61.6c4.3,0,5.4-1.2,5.4-5.4
				V16.3c0-4.3-1.2-5.4-5.4-5.4H121.7z"/>
		</g>
	</g>
	<g>
		<g>
			<g>
				<path d="M178.3,145.6c-3,0-5.4-2.4-5.4-5.4v-5.8c0-3,2.4-5.4,5.4-5.4s5.4,2.4,5.4,5.4v5.8C183.7,143.2,181.3,145.6,178.3,145.6z
					"/>
			</g>
			<g>
				<path d="M126.1,145.6c-3,0-5.4-2.4-5.4-5.4v-5.8c0-3,2.4-5.4,5.4-5.4c3,0,5.4,2.4,5.4,5.4v5.8
					C131.5,143.2,129.1,145.6,126.1,145.6z"/>
			</g>
		</g>
		<g>
			<path d="M152.2,176.1c-9,0-17.3-5-21.6-12.9c-1.4-2.6-0.5-5.9,2.2-7.4c2.6-1.4,5.9-0.5,7.4,2.2c2.4,4.5,7.1,7.3,12.1,7.3
				c5,0,9.6-2.8,12.1-7.3c1.4-2.6,4.8-3.6,7.4-2.2c2.6,1.4,3.6,4.7,2.2,7.4C169.5,171.2,161.2,176.1,152.2,176.1z"/>
		</g>
	</g>
</g>
</svg>
