<?xml version="1.0" encoding="utf-8"?>
<!-- Generator: Adobe Illustrator 22.1.0, SVG Export Plug-In . SVG Version: 6.00 Build 0)  -->
<svg version="1.1" id="图层_1" xmlns="http://www.w3.org/2000/svg" xmlns:xlink="http://www.w3.org/1999/xlink" x="0px" y="0px"
	 viewBox="0 0 200 200" style="enable-background:new 0 0 200 200;" xml:space="preserve">
<g>
	<g>
		<path d="M194.9,199.7c-1.3,0-2.6-0.5-3.6-1.5l-24.4-24.4c-2-2-2-5.2,0-7.2c2-2,5.2-2,7.2,0l24.4,24.4c2,2,2,5.2,0,7.2
			C197.5,199.2,196.2,199.7,194.9,199.7z"/>
	</g>
	<g>
		<path d="M98.6,196.3c-26.8,0-50.3-9.6-70-28.5C9.9,148.2,0,124.3,0,98.3c0-26.7,9.9-50.6,28.6-69.4C47.6,10,70.9,0.3,98,0.3
			c27.5,0,51.1,9.6,70,28.6c19,18.3,28.6,41.6,28.6,69.4c0,21.7-5.9,40.2-17.9,56.6c-1.7,2.3-4.8,2.7-7.1,1.1
			c-2.3-1.7-2.7-4.9-1.1-7.1c10.7-14.5,16-31.1,16-50.5c0-24.9-8.6-45.8-25.6-62.1C143.8,19.1,122.7,10.5,98,10.5
			c-24.2,0-45.2,8.6-62.2,25.6c-17,17-25.6,37.9-25.6,62.2c0,23.6,8.6,44.5,25.7,62.2c17.6,16.9,38.7,25.6,62.8,25.6
			c17.9,0,34.7-5.4,50-16c2.3-1.6,5.5-1,7.1,1.3c1.6,2.3,1,5.5-1.3,7.1C137.4,190.3,118.6,196.3,98.6,196.3z"/>
	</g>
	<g>
		<g>
			<g>
				<path d="M93.4,85.1c-2.8,0-5.1-2.3-5.1-5.1v-5.4c0-2.8,2.3-5.1,5.1-5.1s5.1,2.3,5.1,5.1V80C98.5,82.8,96.2,85.1,93.4,85.1z"/>
			</g>
			<g>
				<path d="M44.6,85.1c-2.8,0-5.1-2.3-5.1-5.1v-5.4c0-2.8,2.3-5.1,5.1-5.1c2.8,0,5.1,2.3,5.1,5.1V80C49.7,82.8,47.4,85.1,44.6,85.1
					z"/>
			</g>
		</g>
		<g>
			<path d="M69,113.6c-8.4,0-16.2-4.6-20.2-12.1c-1.3-2.5-0.4-5.6,2-6.9c2.5-1.3,5.6-0.4,6.9,2c2.3,4.2,6.6,6.8,11.3,6.8
				c4.7,0,9-2.6,11.3-6.8c1.3-2.5,4.4-3.4,6.9-2c2.5,1.4,3.4,4.4,2,6.9C85.1,108.9,77.4,113.6,69,113.6z"/>
		</g>
	</g>
</g>
</svg>
