<?xml version="1.0" encoding="utf-8"?>
<!-- Generator: Adobe Illustrator 22.1.0, SVG Export Plug-In . SVG Version: 6.00 Build 0)  -->
<svg version="1.1" id="图层_1" xmlns="http://www.w3.org/2000/svg" xmlns:xlink="http://www.w3.org/1999/xlink" x="0px" y="0px"
	 viewBox="0 0 200 200" style="enable-background:new 0 0 200 200;" xml:space="preserve">
<style type="text/css">
	.st0{fill:none;}
</style>
<g>
	<path class="st0" d="M42.8,68.9c-4.4,0-8.3,1.7-11.4,4.8c-3.5,3.1-4.8,7-4.8,11.4s1.3,7.9,4.8,11.4c3.1,3.1,7,4.8,11.4,4.8
		s7.9-1.7,11.4-4.8c3.1-3.5,4.4-7,4.8-11.4c-0.4-4.4-1.7-8.3-4.8-11.4C50.7,70.7,47.2,68.9,42.8,68.9z"/>
	<path class="st0" d="M100,68.9c-4.4,0-8.3,1.7-11.4,4.8c-3.5,3.1-4.8,7-4.8,11.4s1.3,7.9,4.8,11.4c3.1,3.1,7,4.8,11.4,4.8
		s7.9-1.7,11.4-4.8c3.1-3.5,4.4-7,4.4-11.4s-1.3-8.3-4.4-11.4C107.9,70.7,104.4,68.9,100,68.9z"/>
	<path class="st0" d="M157.2,68.9c-4.4,0-8.3,1.7-11.4,4.8c-3.5,3.1-4.8,7-4.8,11.4s1.3,7.9,4.8,11.4c3.1,3.1,7,4.8,11.4,4.8
		c4.4,0,7.9-1.7,11.4-4.8c3.1-3.5,4.4-7,4.4-11.4s-1.3-8.3-4.4-11.4C165.1,70.7,161.6,68.9,157.2,68.9z"/>
	<path d="M180.3,5.2H19.7C6.6,4.7,0,11.3,0,24.4v121C0,158.4,6.6,165,19.7,165h44.5l27.9,27.9c5.7,5.2,10.9,5.2,16.2,0l27.9-27.9
		h44.1c13.1,0,19.7-6.6,19.7-19.7v-121C200,11.3,193.4,4.7,180.3,5.2z M54.1,96.4c-3.5,3.1-7,4.8-11.4,4.8s-8.3-1.7-11.4-4.8
		c-3.5-3.5-4.8-7-4.8-11.4s1.3-8.3,4.8-11.4c3.1-3.1,7-4.8,11.4-4.8s7.9,1.7,11.4,4.8c3.1,3.1,4.4,7,4.8,11.4
		C58.5,89.4,57.2,92.9,54.1,96.4z M111.4,96.4c-3.5,3.1-7,4.8-11.4,4.8s-8.3-1.7-11.4-4.8c-3.5-3.5-4.8-7-4.8-11.4s1.3-8.3,4.8-11.4
		c3.1-3.1,7-4.8,11.4-4.8s7.9,1.7,11.4,4.8c3.1,3.1,4.4,7,4.4,11.4S114.4,92.9,111.4,96.4z M168.6,96.4c-3.5,3.1-7,4.8-11.4,4.8
		c-4.4,0-8.3-1.7-11.4-4.8c-3.5-3.5-4.8-7-4.8-11.4s1.3-8.3,4.8-11.4c3.1-3.1,7-4.8,11.4-4.8c4.4,0,7.9,1.7,11.4,4.8
		c3.1,3.1,4.4,7,4.4,11.4S171.6,92.9,168.6,96.4z"/>
</g>
</svg>
