<?xml version="1.0" encoding="utf-8"?>
<!-- Generator: Adobe Illustrator 22.1.0, SVG Export Plug-In . SVG Version: 6.00 Build 0)  -->
<svg version="1.1" id="图层_1" xmlns="http://www.w3.org/2000/svg" xmlns:xlink="http://www.w3.org/1999/xlink" x="0px" y="0px"
	 viewBox="0 0 200 200" style="enable-background:new 0 0 200 200;" xml:space="preserve">
<g>
	<g>
		<path d="M66.1,195.3c-0.4,0-0.8,0-1.2-0.1c-1.3-0.3-2.4-1.1-3.1-2.2l-25.4-14.6c-1.6-0.9-2.5-2.6-2.5-4.4c0-1.9,0.5-3.3,1.3-4.3
			c0.6-2.1,1.3-3.9,2.4-5.7c1.6-7.9,1-15.1-1.7-21.9c-0.4-0.5-0.6-1-0.8-1.4c-0.3-0.3-0.3-0.4-0.6-0.8c-5.2-9.3-12.8-15.5-22-17.9
			c-2.4-0.6-4.8-1.2-6.8-1.2H5.1c-1.4,0-2.7-0.5-3.6-1.5c-1-1-1.5-2.3-1.4-3.7l0.7-31.9c0.1-2.8,2.3-5,5.1-5c5.2,0,10-1.9,16-4.9
			c7.9-4.5,13.3-11.5,15.7-20.5c1.9-9,1.5-16.2-1.4-22.3c-1.1-1.4-2.2-3.5-2.2-5.5c0-1.8,1-3.5,2.5-4.4L63.6,5.4
			c2.4-1.4,5.4-0.6,6.9,1.7c4.6,7.5,10.8,12.2,20,15.3c3.7,0.6,7.4,1.2,10.3,1.2c6.7-0.7,11.5-2.1,15.6-4.7
			c5.1-2.9,9.4-6.7,13.5-12.3c1.5-2.1,4.4-2.6,6.6-1.4L163.6,21c2.2,1.3,3.1,3.9,2.2,6.3c-0.4,1.1-0.9,2.1-1.3,3
			c-0.8,2-1.5,3.6-1.9,5.1c-2.4,9-1.2,17.8,3.6,26.1c5.6,8.7,12.2,13.6,21.2,15.9c3.1,0.8,5.8,1.2,7.6,1.2c2.8,0,5.1,2.3,5.1,5.1
			v31.9c0,2.8-2.3,5.1-5.1,5.1c-5.4,0-10.6,1.5-16.5,4.8c-8.8,5-14.1,12.1-15.8,20.9c-2.4,8.5-1.4,16.6,2.9,25.3
			c1.2,2.4,0.3,5.3-2,6.7l-27.1,15.6c-2.3,1.3-5.2,0.7-6.7-1.5c-5.8-8.4-12.4-13.4-20.9-15.6c-9.1-2.4-17.8-1-25.8,4.1
			c-5.1,2.6-8.4,5.4-11.3,9.2l-1.2,2.3C69.8,194.2,68,195.3,66.1,195.3z M100.3,165.5c3.7,0,7.4,0.5,11.2,1.5
			c9.4,2.5,17.2,7.7,23.8,15.9l19.2-11.1c-3.7-9.4-4.3-18.7-1.8-27.8c2.1-11.3,9.3-20.9,20.7-27.4c5.7-3.2,11-5,16.4-5.8V88.3
			c-1.5-0.2-3.2-0.6-5-1c-11.6-2.9-20.3-9.4-27.5-20.5c-6.2-10.8-7.8-22.4-4.7-33.9c0.5-1.8,1.1-3.5,1.9-5.3l-19.5-11.2
			c-4.2,4.9-8.7,8.7-13.7,11.4c-6.7,4.2-14.4,5.5-20.3,6c-4.1,0-8.7-0.7-12.9-1.4c-0.3,0-0.5-0.1-0.8-0.2c-9.9-3.3-17.3-8.4-23-15.7
			L45.6,27.5c3.6,8,4.1,17.1,1.7,28.2C44.2,67.5,37,76.8,26.6,82.7c-5.6,2.8-10.6,4.9-15.8,5.7l-0.5,22.5c1.6,0.3,3.2,0.7,4.8,1.1
			c11.9,3.2,21.5,10.9,28.1,22.3c0.6,0.7,0.9,1.3,1.1,1.7c0.5,0.5,0.6,0.7,0.8,1.3c3.8,9.1,4.6,19,2.3,29.5
			c-0.1,0.6-0.4,1.2-0.7,1.7c-0.6,0.9-1,1.7-1.4,3l19.4,11.2c3.6-4.5,7.9-8,13.4-10.7C84.8,167.7,92.4,165.5,100.3,165.5z"/>
	</g>
	<g>
		<path d="M100.7,147.1c-13.5,0-25-4.6-34.1-13.7c-9-9-13.7-20.5-13.7-33.4c0-10.4,2.6-18.7,7.9-25.5c1.7-2.2,4.9-2.6,7.1-0.9
			c2.2,1.7,2.6,4.9,0.9,7.1c-3.8,4.9-5.7,11.2-5.7,19.3c0,10.3,3.6,19.1,10.7,26.2c7.2,7.2,16,10.7,26.9,10.7
			c9.7,0,18.5-3.7,25.6-10.7c7.5-7.5,11.4-16.5,11.4-26.2c-0.5-7-2.8-13.8-6.7-20.4c-1.4-2.4-0.7-5.5,1.7-7c2.4-1.4,5.5-0.7,7,1.7
			c4.8,8,7.5,16.3,8.2,25.3c0,12.9-5,24.4-14.4,33.8C124.5,142.4,113.1,147.1,100.7,147.1z"/>
	</g>
	<g>
		<path d="M123.7,70.5c-1.1,0-2.2-0.4-3.2-1.1c-5.7-4.6-12.6-7-19.9-7c-8.4,0-15.3,2.3-21.2,7c-2.2,1.8-5.4,1.4-7.1-0.8
			c-1.8-2.2-1.4-5.4,0.8-7.1c7.7-6.1,17-9.3,27.6-9.3c9.5,0,18.8,3.3,26.2,9.3c2.2,1.8,2.5,5,0.8,7.1
			C126.7,69.9,125.2,70.5,123.7,70.5z"/>
	</g>
</g>
<g>
	<g>
		<g>
			<path d="M117.5,96.8c-2.8,0-5.1-2.3-5.1-5.1v-3.9c0-2.8,2.3-5.1,5.1-5.1s5.1,2.3,5.1,5.1v3.9C122.6,94.5,120.3,96.8,117.5,96.8z"
				/>
		</g>
		<g>
			<path d="M82.5,96.8c-2.8,0-5.1-2.3-5.1-5.1v-3.9c0-2.8,2.3-5.1,5.1-5.1s5.1,2.3,5.1,5.1v3.9C87.6,94.5,85.3,96.8,82.5,96.8z"/>
		</g>
	</g>
	<g>
		<path d="M100,117.2c-6.6,0-12.6-3.6-15.8-9.4c-1.3-2.5-0.4-5.6,2-6.9c2.5-1.3,5.6-0.4,6.9,2c2.8,5.1,10.9,5.1,13.7,0
			c1.4-2.5,4.4-3.4,6.9-2c2.5,1.4,3.4,4.4,2,6.9C112.6,113.6,106.5,117.2,100,117.2z"/>
	</g>
</g>
</svg>
