<?xml version="1.0" encoding="utf-8"?>
<!-- Generator: Adobe Illustrator 22.1.0, SVG Export Plug-In . SVG Version: 6.00 Build 0)  -->
<svg version="1.1" id="图层_1" xmlns="http://www.w3.org/2000/svg" xmlns:xlink="http://www.w3.org/1999/xlink" x="0px" y="0px"
	 viewBox="0 0 200 200" style="enable-background:new 0 0 200 200;" xml:space="preserve">
<style type="text/css">
	.st0{fill:none;}
</style>
<g>
	<path class="st0" d="M104.3,71.7H53c-3,0-3.9,1.4-3.9,4c0.4,6.6,3.5,12.2,8.7,17c5.7,6.1,12.6,8.7,20.9,9.1
		c8.3-0.4,15.2-3,21.3-9.1c4.8-4.8,7.8-10.5,8.7-17C108.7,73.1,107.3,71.7,104.3,71.7z"/>
	<path class="st0" d="M54.8,55.3c1.7-1.4,2.6-3.5,2.6-5.7c0-2.6-0.9-4.4-2.6-6.1c-1.4-1.7-3.5-2.6-5.7-2.6c-2.6,0-4.4,0.9-6.1,2.6
		c-1.8,1.8-2.2,3.5-2.2,6.1c0,2.2,0.5,4.4,2.2,5.7c1.8,1.7,3.5,2.6,6.1,2.6C51.3,57.9,53.5,57,54.8,55.3z"/>
	<polygon class="st0" points="110.1,15.2 108.6,40.8 110.2,15.2 	"/>
	<path class="st0" d="M117.3,49.8c0-2.8-1-4.5-2.5-6.3c-1.8-1.7-4-2.7-6.2-2.7c-2.6,0-4.4,0.9-6.1,2.6c-1.7,1.8-2.6,3.5-2.6,6.1
		c0,2.2,0.9,4.9,2.6,6.2c1.7,1.7,3.6,2.2,6.2,2.2c2.2,0,4.2-0.7,6.1-2.6C116.3,53.8,117.3,52.5,117.3,49.8z"/>
	<path d="M188.9,77.1c-6.4-5.9-13.3-9.2-21.1-10.2c-1.2-0.1-2.5,0.3-3.4,1.1c-1,0.9-1.5,2.1-1.5,3.3v23.9c0,13-4.6,24.1-13.9,33.8
		c-9.8,9.4-20.9,14-33.9,14H79.9c-1.4,0-2.8,0.8-3.6,2s-0.9,2.8-0.3,4.1c1.7,3.9,4.2,7.5,8.2,12.1c6.5,6.9,15.7,10.9,26.7,11.4h28.6
		l19.6,19.6c0.9,0.9,2,1.3,3.1,1.3c0.5,0,1.1-0.1,1.6-0.5c1.6-0.7,2.7-2.2,2.7-4v-16.9c9-1.1,16.4-4.7,22.6-10.9
		c7.2-7.2,10.8-16.2,10.8-26.6v-30.4C199.9,93.3,196.3,84.5,188.9,77.1z"/>
	<path d="M143.1,123.5c9-8.9,13.5-19.9,13.5-32.6V53.1c0-13.3-4.6-24.3-13.4-32.6c-8.5-9-20.1-14-32.7-14H46.6
		C33.9,6.5,23.3,11,14,20.3C4.8,29,0,40.3,0,53v37.9c0,12.4,4.7,23.4,13.8,32.6c8,8,17.3,12.4,28.3,13.3v21.9c0,1.7,1.1,3.3,2.7,4
		c0.6,0.2,1.1,0.3,1.7,0.3c1.1,0,2.2-0.4,3-1.3l25.3-24.8h35.7C123.5,136.9,134.8,132.3,143.1,123.5z M43,55.3
		c-1.7-1.3-2.2-3.5-2.2-5.7c0-2.6,0.4-4.3,2.2-6.1c1.7-1.7,3.5-2.6,6.1-2.6c2.2,0,4.6,1,6,2.6c1.3,1.7,2.3,2.9,2.3,6.1
		c0,2.2-0.7,3.9-2.4,5.8c-1.2,1-3,2.5-5.9,2.5C46.5,57.9,44.8,57,43,55.3z M100,92.7c-6.1,6.1-13,8.7-21.3,9.1
		c-8.3-0.4-15.2-3-20.9-9.1c-5.2-4.8-8.3-10.4-8.7-17c0-2.6,0.9-4,3.9-4h51.3c3,0,4.4,1.4,4.4,4C107.8,82.2,104.8,87.9,100,92.7z
		 M108.6,40.8c2.2,0,4.4,1,6.2,2.7c1.5,1.8,2.5,3.6,2.5,6.3c0,2.7-1,3.9-2.5,5.5c-1.9,1.9-3.9,2.6-6.1,2.6c-2.6,0-4.5-0.5-6.2-2.2
		c-1.7-1.3-2.6-4-2.6-6.2c0-2.6,0.9-4.3,2.6-6.1C104.2,41.7,106,40.8,108.6,40.8"/>
</g>
</svg>
