<?xml version="1.0" encoding="utf-8"?>
<!-- Generator: Adobe Illustrator 22.1.0, SVG Export Plug-In . SVG Version: 6.00 Build 0)  -->
<svg version="1.1" id="图层_1" xmlns="http://www.w3.org/2000/svg" xmlns:xlink="http://www.w3.org/1999/xlink" x="0px" y="0px"
	 viewBox="0 0 200 200" style="enable-background:new 0 0 200 200;" xml:space="preserve">
<style type="text/css">
	.st0{fill:none;}
</style>
<g>
	<path class="st0" d="M155.3,64.7c-2.3,0-3.5,0.6-5.3,2.4l-65.9,65.3L48.8,96.5c-1.8-1.2-3.5-2.4-5.3-2.4c-2.3,0-3.5,1.2-5.3,2.4
		c-1.2,1.8-2.4,2.9-2.4,5.3c0,1.8,1.2,3.5,2.4,5.3l41.2,40.6c1.2,1.8,2.9,2.4,4.7,2.4c2.3,0,4.1-0.6,5.3-2.4l71.2-70.6
		c1.2-1.2,1.8-2.9,1.8-5.3c0-1.8-0.6-3.5-1.8-4.7C158.8,65.3,157.1,64.7,155.3,64.7z"/>
	<path d="M189.4,78.8l-11.2-11.2V51.2c0-19.4-10-29.4-29.4-29.4h-16.5l-11.2-11.2c-14.1-14.1-28.2-14.1-41.8,0L68.2,21.8H51.8
		c-19.4,0-29.4,10-29.4,29.4v16.5L10.6,78.8c-14.1,14.1-14.1,28.2,0,42.3l11.8,11.2v15.9c0,19.4,10,29.4,29.4,29.4h15.9l11.8,11.8
		c13.5,14.1,27.6,14.1,41.8,0l11.8-11.8h15.9c19.4,0,29.4-10,29.4-29.4v-15.9l11.2-11.2C203.5,107.1,203.5,92.9,189.4,78.8z
		 M160.6,77.1l-71.2,70.6c-1.2,1.8-2.9,2.4-5.3,2.4c-1.8,0-3.5-0.6-4.7-2.4l-41.2-40.6c-1.2-1.8-2.4-3.5-2.4-5.3
		c0-2.3,1.2-3.5,2.4-5.3c1.8-1.2,2.9-2.4,5.3-2.4c1.8,0,3.5,1.2,5.3,2.4l35.3,35.9L150,67.1c1.8-1.8,2.9-2.4,5.3-2.4
		c1.8,0,3.5,0.6,5.3,2.4c1.2,1.2,1.8,2.9,1.8,4.7C162.4,74.1,161.8,75.9,160.6,77.1z"/>
</g>
</svg>
