<?xml version="1.0" encoding="utf-8"?>
<!-- Generator: Adobe Illustrator 22.1.0, SVG Export Plug-In . SVG Version: 6.00 Build 0)  -->
<svg version="1.1" id="图层_1" xmlns="http://www.w3.org/2000/svg" xmlns:xlink="http://www.w3.org/1999/xlink" x="0px" y="0px"
	 viewBox="0 0 200 200" style="enable-background:new 0 0 200 200;" xml:space="preserve">
<style type="text/css">
	.st0{fill:none;}
</style>
<g>
	<path class="st0" d="M99.8,67.2c-11.7,0-22.4,4.6-30.5,13.2c-9.2,8.7-13.2,18.8-13.2,31c0,11.7,4.1,22.4,13.2,31
		c8.1,8.6,18.8,12.7,30.5,12.7c12.2,0,22.9-4.1,31.5-12.7c8.1-8.7,12.7-18.8,12.7-31c0-12.2-4.6-22.4-12.7-31
		C122.1,71.8,112,67.2,99.8,67.2z M121.1,132.8c-6.1,6.1-12.7,8.7-21.4,8.7c-8.2,0-15.3-2.6-20.9-8.7c-6.1-5.6-8.7-12.2-8.7-20.9
		c0-8.1,2.5-15.3,8.7-20.9c5.6-6.1,12.7-8.6,20.9-8.6c8.6,0,15.3,2.5,21.4,8.6c5.6,5.6,8.2,12.7,8.2,20.9
		C129.3,120.6,126.7,127.2,121.1,132.8z"/>
	<path class="st0" d="M177.1,55.5h-12.2c-1,0-2.6,0.5-3.6,1.5c-1,1-1.5,2-1.5,3.6c0,1.5,0.5,2.5,1.5,3.6c1,1,2.5,1.5,3.6,1.5h12.2
		c1,0,2.6-0.5,3.6-1.5c1-1,1.5-2,1.5-3.6c0-1.5-0.5-2.5-1.5-3.6C179.7,56,178.1,55.5,177.1,55.5z"/>
	<path d="M192.4,47.3c-5.1-5.1-11.7-7.6-18.8-7.6h-23.4L145,26c-1.5-3-3.6-6.1-7.6-9.2c-3.6-2.6-7.1-3.6-10.2-3.6H73.8
		c-3,0-6.6,1-10.7,3.6c-3.6,3-5.6,5.6-7.1,9.2l-5.6,13.7H26.5c-7.6,0-13.7,2.5-18.8,7.6C2.5,52.4,0,59,0,66.2v93.6
		c0,7.6,2.5,13.7,7.6,18.8c5.1,5.6,11.2,8.1,18.8,8.1h147.1c7.1,0,13.7-2.5,18.8-8.1c5.1-5.1,7.6-11.2,7.6-18.8V66.2
		C200,59,197.5,52.4,192.4,47.3z M131.3,142.5c-8.6,8.6-19.3,12.7-31.5,12.7c-11.7,0-22.4-4.1-30.5-12.7c-9.2-8.7-13.2-19.3-13.2-31
		c0-12.2,4.1-22.4,13.2-31c8.1-8.7,18.8-13.2,30.5-13.2c12.2,0,22.4,4.6,31.5,13.2c8.1,8.7,12.7,18.8,12.7,31
		C144,123.7,139.4,133.8,131.3,142.5z M180.7,64.1c-1,1-2.5,1.5-3.6,1.5h-12.2c-1,0-2.6-0.5-3.6-1.5c-1-1-1.5-2-1.5-3.6
		c0-1.5,0.5-2.5,1.5-3.6c1-1,2.5-1.5,3.6-1.5h12.2c1,0,2.6,0.5,3.6,1.5c1,1,1.5,2,1.5,3.6C182.2,62.1,181.7,63.1,180.7,64.1z"/>
	<path d="M99.8,82.4c-8.2,0-15.3,2.5-20.9,8.6c-6.1,5.6-8.7,12.7-8.7,20.9c0,8.6,2.5,15.3,8.7,20.9c5.6,6.1,12.7,8.7,20.9,8.7
		c8.6,0,15.3-2.6,21.4-8.7c5.6-5.6,8.2-12.2,8.2-20.9c0-8.1-2.5-15.3-8.2-20.9C115,85,108.4,82.4,99.8,82.4z"/>
</g>
</svg>
